<svg xmlns="http://www.w3.org/2000/svg" width="50.297" height="34.58" viewBox="0 0 50.297 34.58"><defs><style>.a{fill:#fff;fill-rule:evenodd;}</style></defs><path class="a" d="M1.572,14.7V12.738H1.538A4.636,4.636,0,0,1,0,9.124V-.3L0-.4A6.428,6.428,0,0,1,2.435-4.515C3.3-5.248,4.11-5.943,4.86-6.584h-.7A2.478,2.478,0,0,1,1.572-8.951a2.479,2.479,0,0,1,2.584-2.367,2.835,2.835,0,0,1,1.052.207l2.9,1.349c1.008-2,2.343-5.024,4-6.545A5.863,5.863,0,0,1,15.877-17.6H34.42a5.859,5.859,0,0,1,3.762,1.3c1.649,1.516,2.984,4.543,4,6.541L45.1-11.12a2.811,2.811,0,0,1,1.029-.2,2.48,2.48,0,0,1,2.584,2.367,2.479,2.479,0,0,1-2.584,2.367h-.7C46.181-5.945,47-5.25,47.86-4.515A6.453,6.453,0,0,1,50.288-.4l.008.1V9.124a4.642,4.642,0,0,1-1.574,3.646v1.925a2.285,2.285,0,0,1-2.284,2.283h-8a2.284,2.284,0,0,1-2.284-2.283v-.859h-22V14.7a2.285,2.285,0,0,1-2.284,2.283H3.856A2.284,2.284,0,0,1,1.572,14.7Zm11,0v-.861H4.715a5.413,5.413,0,0,1-1.574-.224l0,1.085a.714.714,0,0,0,.713.712h8.006A.716.716,0,0,0,12.574,14.7Zm34.577,0,0-1.081a5.381,5.381,0,0,1-1.568.222H37.723v.859a.714.714,0,0,0,.713.712h8A.716.716,0,0,0,47.151,14.695Zm1.54-5.041a4.807,4.807,0,0,1-3.11,1.041H4.715A4.809,4.809,0,0,1,1.6,9.653a2.889,2.889,0,0,0,3.112,2.612H45.582A2.89,2.89,0,0,0,48.692,9.653Zm.034-3.671V-.223l-.216-.863A5.337,5.337,0,0,0,46.852-3.31C45.263-4.661,43.844-5.872,42.7-6.846a2.764,2.764,0,0,1-.817,1.056,3.925,3.925,0,0,1-2.475.771H10.914A3.927,3.927,0,0,1,8.437-5.79a2.744,2.744,0,0,1-.824-1.068C6.461-5.884,5.038-4.67,3.443-3.31A5.3,5.3,0,0,0,1.781-1.088l-.21.861v6.21A2.931,2.931,0,0,0,4.715,9.124H45.582A2.932,2.932,0,0,0,48.725,5.982ZM3.144,3.626A3.716,3.716,0,0,1,6.629-.3a3.207,3.207,0,0,1,1.5.383l4.925,3.028a2.409,2.409,0,0,1,1.117,2.075,2.255,2.255,0,0,1-2.146,2.367H6.629A3.715,3.715,0,0,1,3.144,3.626ZM17.317,7.369a2.052,2.052,0,0,1-.9-1.12,8.6,8.6,0,0,1-.629-2.932,2.01,2.01,0,0,1,2.133-2.038H32.452a2.039,2.039,0,0,1,2.127,2.038,7.536,7.536,0,0,1-.388,2.235l-.243.7-.071.186a2.061,2.061,0,0,1-.43.628,1.65,1.65,0,0,1-1.077.492H18.031A1.505,1.505,0,0,1,17.317,7.369ZM36.149,5.186a2.407,2.407,0,0,1,1.115-2.075L42.222.066A3.171,3.171,0,0,1,43.689-.3a3.72,3.72,0,0,1,3.487,3.927,3.718,3.718,0,0,1-3.487,3.927H38.295A2.255,2.255,0,0,1,36.149,5.186Zm-23.552,0a.846.846,0,0,0-.36-.733L7.343,1.446l-.155-.069a1.562,1.562,0,0,0-.56-.107A2.179,2.179,0,0,0,4.715,3.626,2.178,2.178,0,0,0,6.629,5.982h5.394A.724.724,0,0,0,12.6,5.186ZM45.6,3.626A2.182,2.182,0,0,0,43.689,1.27a1.564,1.564,0,0,0-.562.107l-.155.069L38.079,4.453a.845.845,0,0,0-.358.733.723.723,0,0,0,.574.8h5.394A2.18,2.18,0,0,0,45.6,3.626ZM18.052,5.98l14.244,0a.487.487,0,0,0,.174-.262,7.041,7.041,0,0,0,.536-2.4A.431.431,0,0,0,32.892,3a.661.661,0,0,0-.459-.153H17.92a.611.611,0,0,0-.451.14.447.447,0,0,0-.113.327,7.106,7.106,0,0,0,.526,2.377A.674.674,0,0,0,18.052,5.98Zm22.845-13a1.187,1.187,0,0,0,.459-.974v0a.6.6,0,0,1-.073-.107C40-10.364,38.8-13.6,37.127-15.141a4.33,4.33,0,0,0-2.708-.888H15.877a4.31,4.31,0,0,0-2.71.89C11.491-13.6,10.29-10.362,9.016-8.1a.758.758,0,0,1-.057.086c0,.008,0,.017,0,.025a1.185,1.185,0,0,0,.457.974,2.38,2.38,0,0,0,1.5.427H39.4A2.377,2.377,0,0,0,40.9-7.017ZM4.156-8.155l2.561,0,.029-.025.358-.3L4.594-9.661,4.5-9.7a1.21,1.21,0,0,0-.34-.05.932.932,0,0,0-1.012.8A.929.929,0,0,0,4.156-8.155Zm42.987-.8a.932.932,0,0,0-1.012-.8,1.228,1.228,0,0,0-.344.05l-.1.036L43.178-8.492l.369.31a.181.181,0,0,0,.029.027h2.555A.931.931,0,0,0,47.143-8.951Z" transform="translate(0 17.6)"/></svg>