<svg xmlns="http://www.w3.org/2000/svg" xmlns:xlink="http://www.w3.org/1999/xlink" width="20.841" height="17.162" viewBox="0 0 20.841 17.162"><defs><style>.a{fill:#fff;}.b{clip-path:url(#a);}</style><clipPath id="a"><path class="a" d="M20.841,2.031a8.447,8.447,0,0,1-2.455.683,4.342,4.342,0,0,0,1.879-2.4,8.548,8.548,0,0,1-2.717,1.052A4.236,4.236,0,0,0,14.428,0a4.305,4.305,0,0,0-4.275,4.333,4.4,4.4,0,0,0,.111.988A12.084,12.084,0,0,1,1.452.792,4.379,4.379,0,0,0,2.775,6.578,4.231,4.231,0,0,1,.839,6.034v.054a4.324,4.324,0,0,0,3.429,4.25,4.275,4.275,0,0,1-1.126.152,4.05,4.05,0,0,1-.8-.081,4.285,4.285,0,0,0,3.993,3.01A8.5,8.5,0,0,1,1.02,15.272,8.964,8.964,0,0,1,0,15.212a11.966,11.966,0,0,0,6.553,1.95c7.865,0,12.163-6.6,12.163-12.331L18.7,4.27A8.6,8.6,0,0,0,20.841,2.031Z" transform="translate(0 0)"/></clipPath></defs><g class="b"><g transform="translate(-26.97 -28.195)"><rect class="a" width="73.555" height="73.553"/></g></g></svg>