<svg xmlns="http://www.w3.org/2000/svg" xmlns:xlink="http://www.w3.org/1999/xlink" width="20.488" height="20.487" viewBox="0 0 20.488 20.487"><defs><style>.a{fill:#fff;}.b{clip-path:url(#a);}</style><clipPath id="a"><path class="a" d="M10.222,20.487c-2.021,0-3.447-.023-4.239-.067a6.3,6.3,0,0,1-4.3-1.653A6.171,6.171,0,0,1,.067,14.461C.022,13.678,0,12.291,0,10.222S.022,6.766.067,5.983A6.224,6.224,0,0,1,1.72,1.72,6.3,6.3,0,0,1,6.015.067C6.8.022,8.185,0,10.254,0S13.7.022,14.461.067a6.3,6.3,0,0,1,4.3,1.653,6.267,6.267,0,0,1,1.653,4.3c.052.784.078,2.207.078,4.228s-.023,3.441-.067,4.239a6.3,6.3,0,0,1-1.653,4.3,6.247,6.247,0,0,1-4.306,1.643C13.67,20.465,12.244,20.487,10.222,20.487ZM7.81,1.84c-.32,0-.741.013-1.286.039a10.664,10.664,0,0,0-1.374.135,5.385,5.385,0,0,0-.954.247A3.5,3.5,0,0,0,2.254,4.218a5.274,5.274,0,0,0-.248.953,10.659,10.659,0,0,0-.134,1.374c-.022.557-.034.978-.039,1.286s-.005.794,0,1.412V12.7c0,.338.013.771.039,1.286a10.659,10.659,0,0,0,.134,1.374,5.3,5.3,0,0,0,.248.954,3.505,3.505,0,0,0,1.964,1.921,5.363,5.363,0,0,0,.953.247,10.471,10.471,0,0,0,1.374.135c.557.022.978.034,1.286.039.159,0,.359,0,.593,0l.819,0H12.7c.32,0,.741-.013,1.286-.039a10.471,10.471,0,0,0,1.374-.135,5.386,5.386,0,0,0,.954-.247,3.511,3.511,0,0,0,1.946-1.946,5.362,5.362,0,0,0,.247-.953,10.661,10.661,0,0,0,.134-1.375c.02-.48.034-.925.04-1.285,0-.318,0-.794,0-1.413V7.806c0-.324-.013-.756-.04-1.285a10.658,10.658,0,0,0-.134-1.374,5.385,5.385,0,0,0-.247-.954,3.513,3.513,0,0,0-1.946-1.946A5.386,5.386,0,0,0,15.358,2a10.665,10.665,0,0,0-1.374-.135c-.557-.022-.978-.034-1.286-.039-.159,0-.359,0-.593,0l-.819,0-1.043.014H7.81Zm2.458,13.373h-.046a4.911,4.911,0,0,1-3.5-1.45,4.968,4.968,0,0,1,3.5-8.487h.046a4.911,4.911,0,0,1,3.5,1.448,5,5,0,0,1,0,7.04A4.913,4.913,0,0,1,10.268,15.213Zm-.025-8.2a3.229,3.229,0,1,0,3.229,3.228A3.238,3.238,0,0,0,10.243,7.015Zm5.175-.779a1.164,1.164,0,1,1,.3-.04A1.166,1.166,0,0,1,15.418,6.235Z" transform="translate(0 0)"/></clipPath></defs><g class="b"><g transform="translate(-26.97 -26.97)"><rect class="a" width="73.555" height="73.553"/></g></g></svg>