<svg xmlns="http://www.w3.org/2000/svg" width="83.976" height="49.427" viewBox="0 0 83.976 49.427"><defs><style>.a{fill:none;stroke:#fff;stroke-linecap:round;stroke-linejoin:round;stroke-miterlimit:10;stroke-width:2.5px;}</style></defs><g transform="translate(-0.521 -17.792)"><path class="a" d="M47.164,21.8c-5.305-1.738-14.327-3.924-21.883-2.048l9.11,5.263"/><path class="a" d="M82.805,24.242a8.352,8.352,0,0,0-2.871-1.832c-5.491-2.345-15.763.329-15.763.329L18.427,34.259,2.72,28.076l-.949.8,9.585,11.31-7.891,2.1.618,2.122c11.379,3.69,29.55-.281,29.55-.281l5.545-1.347L31.351,64.184s2.6,6.1,11.31-4.25L57.928,38.166l21.431-5.625C83.408,31.444,83.684,26.615,82.805,24.242Z"/><line class="a" y1="2.089" x2="8.231" transform="translate(74.046 24.307)"/></g></svg>