<svg xmlns="http://www.w3.org/2000/svg" width="55.001" height="55" viewBox="0 0 55.001 55"><defs><style>.a{fill:#fff;}</style></defs><g transform="translate(0.001)"><path class="a" d="M47.4,24.519H7.077a1.159,1.159,0,0,1-.375-.063A5.538,5.538,0,0,1,2.979,20.95C1.641,16.909,5.263,11.525,5.418,11.3,12.679,1.95,21.035,0,26.773,0c11.22,0,20.984,7.22,23.6,13.909,1.487,3.812,1.618,6.711.39,8.617a4.43,4.43,0,0,1-3.3,1.993C47.442,24.517,47.421,24.519,47.4,24.519ZM7.278,22.227h40.07a2.134,2.134,0,0,0,1.5-.973c.763-1.224.544-3.537-.616-6.513C45.887,8.729,36.7,2.292,26.773,2.292c-5.226,0-12.852,1.8-19.5,10.355-.834,1.233-2.932,5.125-2.115,7.587A3.242,3.242,0,0,0,7.278,22.227Z" transform="translate(0.391)"/><path class="a" d="M45.675,49.241H8.531c-3.1,0-5.623-3.522-5.623-7.854v-.754a1.146,1.146,0,0,1,1.146-1.146h46.1A1.145,1.145,0,0,1,51.3,40.634v.754C51.3,45.719,48.776,49.241,45.675,49.241ZM5.209,41.78c.129,2.8,1.626,5.17,3.322,5.17H45.675c1.695,0,3.191-2.373,3.321-5.17Z" transform="translate(0.424 5.759)"/><path class="a" d="M28.016,31.416a10.736,10.736,0,0,1-6.339-2.292c-1.995-1.456-3.574-2.115-5.121-2.136l-.121,0a3.119,3.119,0,0,0-1.878.308,6.246,6.246,0,0,0-.733.647,8.438,8.438,0,0,1-.94.83C9.908,30.928,5.31,32.318.291,26.713A1.146,1.146,0,0,1,2,25.185c3.158,3.528,6.279,4.092,9.54,1.731a6.718,6.718,0,0,0,.684-.613,7.84,7.84,0,0,1,1.032-.895,5.169,5.169,0,0,1,3.221-.713l.116,0a11.387,11.387,0,0,1,6.435,2.577,8.359,8.359,0,0,0,5.282,1.844c1.3-.06,2.759-1.019,4.167-1.944a23.146,23.146,0,0,1,2.436-1.466,5.17,5.17,0,0,1,5.577.33c.407.293.815.612,1.225.935a14.592,14.592,0,0,0,2.621,1.781c1.438.663,3.246.222,4.839-1.184.313-.276.592-.557.857-.824A5.344,5.344,0,0,1,53.82,24.7,1.13,1.13,0,0,1,55,25.808a1.143,1.143,0,0,1-1.109,1.18c-.856.028-1.33.466-2.237,1.376-.3.3-.612.612-.964.924-2.3,2.028-5.031,2.6-7.318,1.546A16.167,16.167,0,0,1,40.3,28.776c-.386-.3-.768-.6-1.149-.878a2.891,2.891,0,0,0-3.227-.133,21.321,21.321,0,0,0-2.186,1.323c-1.666,1.1-3.389,2.231-5.322,2.319C28.283,31.412,28.149,31.416,28.016,31.416Z" transform="translate(0 3.601)"/><path class="a" d="M52.913,35.907h-51a1.146,1.146,0,0,1,0-2.292h51a1.146,1.146,0,1,1,0,2.292Z" transform="translate(0.112 4.902)"/></g></svg>