<svg xmlns="http://www.w3.org/2000/svg" width="43.075" height="63" viewBox="0 0 43.075 63"><defs><style>.a{fill:#fff;fill-rule:evenodd;}</style></defs><g transform="translate(-21.014 -7.608)"><path class="a" d="M22.526,70.608h40a1.231,1.231,0,0,0,1.221-1.075,35.529,35.529,0,0,0-8.125-28.307A1.241,1.241,0,0,0,55.453,41c-.108-.127-.221-.255-.332-.383a50.626,50.626,0,0,0-3.637-3.854l5.227-16.99c0-.015,0-.029.008-.044a.885.885,0,0,0,.017-.088,1.2,1.2,0,0,0,.022-.211c0-.032,0-.063,0-.1a1.179,1.179,0,0,0-.039-.233c0-.016,0-.033-.008-.049l-3.2-10.509a1.23,1.23,0,0,0-1.416-.85L46.357,8.829A1.23,1.23,0,0,0,45.42,10.4l2.333,7.541a12.643,12.643,0,0,0-6.011,3.7,13.966,13.966,0,0,0-5.67-3.459L38.5,10.334a1.233,1.233,0,0,0-.939-1.572l-5.734-1.13a1.23,1.23,0,0,0-1.415.85L27.2,18.991c0,.011,0,.022-.005.033a1.262,1.262,0,0,0-.041.253c0,.032,0,.064,0,.1a1.211,1.211,0,0,0,.022.207c.005.03.009.059.016.088,0,.012,0,.024.007.036l5.083,17.013a22.944,22.944,0,0,0-3.76,4.346c-.019.027-.027.059-.043.088a36.391,36.391,0,0,0-5.576,10.578A42.475,42.475,0,0,0,21.3,69.506,1.232,1.232,0,0,0,22.526,70.608ZM47.809,40.59a1.243,1.243,0,0,0-.34,0l-5.414-.021h-.007l-9.9-.039c.649-.743,1.332-1.474,2.055-2.189l15.379.026c.082.077.159.155.24.233.51.5,1.212,1.209,1.964,2.007ZM51.48,10.327l2.25,7.392a13.717,13.717,0,0,0-2.6-.273q-.483,0-.939.046l-2.014-6.513Zm-19.041-.063,3.3.65L33.727,17.43c-.3-.03-.619-.047-.941-.047a14.034,14.034,0,0,0-2.6.273Zm-.3,9.789a11.4,11.4,0,0,1,8.683,4.2,1.231,1.231,0,0,0,.927.425h0a1.233,1.233,0,0,0,.927-.419c3.064-3.489,5.395-4.2,7.952-4.2a20.8,20.8,0,0,1,3.32.327L49.173,35.9,34.6,35.876l-4.666-15.62A12.375,12.375,0,0,1,32.134,20.053Zm-1.966,22.93L34.489,43a21.333,21.333,0,0,0-3.423,10.725,1.231,1.231,0,0,0,1.229,1.2h.03a1.23,1.23,0,0,0,1.2-1.26c-.058-2.448,1.532-8.325,4.205-10.653l3.09.012.016,13.633a1.231,1.231,0,0,0,1.231,1.231h0A1.231,1.231,0,0,0,43.3,56.655l-.016-13.621,3.926.016c2.656,2.342,4.233,8.188,4.176,10.628a1.231,1.231,0,0,0,1.2,1.26h.029a1.232,1.232,0,0,0,1.231-1.2,21.351,21.351,0,0,0-3.388-10.674l3.5.014a33.075,33.075,0,0,1,7.464,25.071H23.645C22.815,58.351,24.963,50.058,30.168,42.983Z"/></g></svg>