<svg xmlns="http://www.w3.org/2000/svg" width="11.394" height="13.326" viewBox="0 0 11.394 13.326"><defs><style>.a{fill:#242635;}</style></defs><path class="a" d="M5.7,1.74a5.7,5.7,0,1,0,5.7,5.7A5.7,5.7,0,0,0,5.7,1.74Zm0,10.283a4.586,4.586,0,1,1,4.587-4.586A4.591,4.591,0,0,1,5.7,12.023Z" transform="translate(0 0.192)"/><path class="a" d="M5.74,7.267V4.105a.555.555,0,0,0-1.111,0V7.5a.562.562,0,0,0,.163.393L6.4,9.5a.555.555,0,0,0,.785-.785Z" transform="translate(0.512 0.392)"/><path class="a" d="M3.658,1.111H7.051A.555.555,0,0,0,7.051,0H3.658a.555.555,0,0,0,0,1.111Z" transform="translate(0.343)"/></svg>