<svg xmlns="http://www.w3.org/2000/svg" width="63.607" height="50" viewBox="0 0 63.607 50"><defs><style>.a{fill:#fff;}</style></defs><g transform="translate(-2.025 -8.999)"><path class="a" d="M30.36,56.679c-12.168,0-18.9-6.659-23.354-11.066-1.572-1.556-2.932-2.9-3.841-3.176a1.136,1.136,0,0,1,0-2.175c.9-.272,2.224-1.606,3.757-3.149C11.046,32.964,17.948,26.02,30.36,26.02a30.72,30.72,0,0,1,6.3.635,1.136,1.136,0,1,1-.466,2.224,28.461,28.461,0,0,0-5.833-.586c-11.467,0-17.7,6.272-21.825,10.422a34.835,34.835,0,0,1-2.791,2.63A35.9,35.9,0,0,1,8.605,44c4.189,4.145,10.521,10.409,21.755,10.409S47.926,48.142,52.115,44c1.935-1.914,3.332-3.3,4.781-3.735a1.136,1.136,0,1,1,.659,2.175c-.909.275-2.268,1.62-3.841,3.176C49.259,50.02,42.528,56.679,30.36,56.679Z" transform="translate(0.045 2.321)"/><path class="a" d="M28.137,50.295a9.484,9.484,0,0,1-9.474-9.474,9.386,9.386,0,0,1,.985-4.212,1.136,1.136,0,1,1,2.035,1.012,7.129,7.129,0,0,0-.748,3.2A7.2,7.2,0,1,0,31.08,34.247a1.137,1.137,0,0,1,.93-2.074,9.475,9.475,0,0,1-3.873,18.122Z" transform="translate(2.269 3.146)"/><path class="a" d="M28.8,55.693A15.048,15.048,0,0,1,13.771,40.661a14.863,14.863,0,0,1,1.617-6.787A1.136,1.136,0,1,1,17.415,34.9a12.628,12.628,0,0,0-1.37,5.759A12.76,12.76,0,1,0,40.43,35.395a1.136,1.136,0,1,1,2.069-.939,14.9,14.9,0,0,1,1.337,6.2A15.05,15.05,0,0,1,28.8,55.693Z" transform="translate(1.602 3.307)"/><path class="a" d="M8.544,26.531a1.143,1.143,0,0,1-.4-.071,10.911,10.911,0,0,1-4.664-3.471,5.774,5.774,0,0,1-1.193-5.567,1.139,1.139,0,0,1,.461-.565A59.28,59.28,0,0,1,28.918,9.071C44.237,8.25,53.364,14.627,64.934,22.7l.212.148a1.136,1.136,0,0,1-1.1,1.974C45.966,16.986,34.319,15.476,9,26.438A1.139,1.139,0,0,1,8.544,26.531ZM4.32,18.567a4.036,4.036,0,0,0,.97,3.042,8.759,8.759,0,0,0,3.242,2.553c21.065-9.049,33.279-9.53,47.082-5.026-7.927-5.03-15.641-8.385-26.573-7.8A58.552,58.552,0,0,0,4.32,18.567Z"/><path class="a" d="M51.169,41.2a5.815,5.815,0,0,1-1.035-.087,1.136,1.136,0,1,1,.406-2.236,7.843,7.843,0,0,0,6.568-2.81,1.136,1.136,0,0,1,1.835,1.341A10.393,10.393,0,0,1,51.169,41.2Z" transform="translate(6.432 3.627)"/><path class="a" d="M57.225,41.671a1.136,1.136,0,0,1-.33-.049,21.132,21.132,0,0,1-3.658-1.713c-4.163-2.244-10.455-5.636-22.878-5.636S11.645,37.665,7.482,39.909a21.132,21.132,0,0,1-3.658,1.713,1.136,1.136,0,1,1-.659-2.175A19.95,19.95,0,0,0,6.4,37.909C10.5,35.7,17.363,32,30.36,32s19.858,3.7,23.956,5.909a19.951,19.951,0,0,0,3.238,1.538,1.137,1.137,0,0,1-.33,2.224Z" transform="translate(0.045 3.136)"/><path class="a" d="M47.352,39.4A1.136,1.136,0,0,1,47.3,37.13h0a9.3,9.3,0,0,0,6.722-4.454,1.137,1.137,0,1,1,1.9,1.255A11.542,11.542,0,0,1,47.4,39.4Z" transform="translate(6.026 3.159)"/><path class="a" d="M43.385,37.8a1.136,1.136,0,0,1-.144-2.263h0a9.309,9.309,0,0,0,7.008-5.754,1.136,1.136,0,0,1,2.108.847,11.587,11.587,0,0,1-8.83,7.162A1.122,1.122,0,0,1,43.385,37.8Z" transform="translate(5.485 2.736)"/><path class="a" d="M39.385,36.709a1.136,1.136,0,0,1-.07-2.27c.96-.06,4.91-1.893,6.686-7.039a1.136,1.136,0,1,1,2.148.741c-2,5.794-6.648,8.438-8.692,8.566Z" transform="translate(4.939 2.404)"/><path class="a" d="M35.636,35.744a1.137,1.137,0,0,1-.447-2.182c.109-.048,5.475-2.456,6.021-7.857a1.137,1.137,0,0,1,2.262.229c-.686,6.783-7.117,9.6-7.39,9.719a1.131,1.131,0,0,1-.446.092Z" transform="translate(4.428 2.138)"/><path class="a" d="M31.1,35.444a1.137,1.137,0,0,1-.515-2.15c.062-.032,6.254-3.253,5.749-8.567a1.136,1.136,0,1,1,2.262-.215c.654,6.867-6.673,10.652-6.985,10.81A1.137,1.137,0,0,1,31.1,35.444Z" transform="translate(3.81 1.975)"/></g></svg>