<svg xmlns="http://www.w3.org/2000/svg" width="124.353" height="28.318" viewBox="0 0 124.353 28.318"><defs><style>.a{fill:#fff;fill-rule:evenodd;}</style></defs><path class="a" d="M13.208,16.361h4.083V28.688A14.158,14.158,0,0,1,2.327,21.182h4.7a8.519,8.519,0,0,0,6.18,3.472V16.361Zm-9.737-9.8C7.345.1,16.006.563,16.006.563a13.925,13.925,0,0,1,13.169,11.13H5.319c-1.848,3.574.811,8.379.811,8.379H1.694a14.653,14.653,0,0,1,.792-12.48H22.538C15.831,1.108,8.878,6.563,8.878,6.563H3.471Zm15.105,17.87a10.238,10.238,0,0,0,6.864-8.225h4.139c-1.778,10.669-11,12.328-11,12.328v-4.1Zm-3.345-8.4a2.011,2.011,0,1,1,2.059-2,2.038,2.038,0,0,1-2.059,2Zm17.4,7.846c2.129-.461,2.041-1.863,2.041-1.863.123-1.076.035-6.408.035-6.408h1.319v6.734c-.422,2.512-3.4,2.768-3.4,2.768v-1.23Zm3.976.99c.457-4.288,1.954-6.595,3.289-7.824V19.3a6.423,6.423,0,0,0-.984,1.829H39.9V22.55H38.349a7.675,7.675,0,0,0-.405,2.322ZM39.9,17.048a5.4,5.4,0,0,1,2.481-1.368v9.193h-1.5V22.551H39.9V21.132h.986V18.294A6.062,6.062,0,0,0,39.9,19.3V17.048Zm3.5-1.522h1.477a3.871,3.871,0,0,1,.809.12V17.1a2.647,2.647,0,0,0-.931-.186V20.5a2.43,2.43,0,0,0,.931-.224V23.4a4.46,4.46,0,0,1-.774-1.2c-.14.053-.177.019-.177.019v2.6H43.4v-9.3Zm2.286.12a3.206,3.206,0,0,1,2.27,2.7,3.479,3.479,0,0,1-1.778,3.23,3.147,3.147,0,0,0,2.041,1.965v1.284A4.173,4.173,0,0,1,45.686,23.4V20.277a1.827,1.827,0,0,0,0-3.179Zm4.734-.12v9.347H49V15.526H50.42Zm1.161,0h1.494a3.54,3.54,0,0,1,.792.12V17.1a2.337,2.337,0,0,0-.934-.2V20.5a2.381,2.381,0,0,0,.934-.224v3.145a4.661,4.661,0,0,1-.775-1.231c-.14.07-.175.036-.175.036v2.6H51.581v-9.3Zm2.287.12a3.184,3.184,0,0,1,2.269,2.7,3.466,3.466,0,0,1-1.777,3.214A3.154,3.154,0,0,0,56.4,23.524v1.3a4.289,4.289,0,0,1-2.534-1.4V20.277a1.727,1.727,0,0,0,.931-1.81,1.668,1.668,0,0,0-.931-1.369V15.646Zm24.3,4.563a3.539,3.539,0,0,0,3.572,3.486h.016v1.317a4.786,4.786,0,1,1,0-9.571V16.7h-.016a3.543,3.543,0,0,0-3.572,3.5Zm3.588-3.5V15.441a4.787,4.787,0,1,1,0,9.571V23.694a3.5,3.5,0,1,0,0-6.989ZM67.96,20.157a3.544,3.544,0,0,0,3.59,3.487v1.315a4.786,4.786,0,1,1,0-9.57v1.249a3.558,3.558,0,0,0-3.59,3.519Zm3.59-3.519V15.389a4.787,4.787,0,1,1,0,9.57V23.644a3.5,3.5,0,1,0,0-7.006Zm17.417,5.108v3.008H87.613V15.612h1.213v3.845s2.129-.1,2.761-3.845H92.82s.4,2.7-2.8,4.94c0,0,1.441,2.938,3.059,2.988v1.285a5.071,5.071,0,0,1-3.923-3.078h-.194Zm5.259,1.163a2.889,2.889,0,0,0,2.148.461A1.613,1.613,0,0,0,97.429,22a1.213,1.213,0,0,0-.843-1.367,7.778,7.778,0,0,1-1.8-.988,2.5,2.5,0,0,1-.827-2.038,2.558,2.558,0,0,1,1.708-2.1c1.654-.545,2.288.274,2.288.274L97.782,17.1a1.85,1.85,0,0,0-1.462-.359c-1.794.87-.561,1.9-.561,1.9a14.507,14.507,0,0,0,2.005,1.06,2.949,2.949,0,0,1,1.092,2.426,2.983,2.983,0,0,1-4.75,2.155l.121-1.367Zm4.825-5.52L98.4,16.123a6.485,6.485,0,0,1,3.1-.957c2.622.156,3.01,1.01,3.01,1.01l-.388,1.247a2.784,2.784,0,0,0-1.829-.734v7.979h-1.477V16.723a3.441,3.441,0,0,0-1.757.667Zm15.622,7.261V15.407a5.738,5.738,0,0,1,2.289.156v1.415a1.751,1.751,0,0,0-.9-.152v3.59a2.873,2.873,0,0,0,.9-.326v3.264a5.656,5.656,0,0,1-.758-1.109h-.14v2.406h-1.39Zm2.289-9.088a3.193,3.193,0,0,1,2.337,2.8,3.526,3.526,0,0,1-1.828,3.075s-.177.941,2,2.015v1.212a3.99,3.99,0,0,1-2.514-1.313V20.089a1.8,1.8,0,0,0,0-3.111V15.563Zm2.9,4.1c.58-4.51,5.122-4.39,5.122-4.39l.033,1.28a3.4,3.4,0,0,0-3.625,2.87h3.625v1.317h-3.625c.406,2.786,3.641,2.836,3.641,2.836v1.3a4.994,4.994,0,0,1-5.171-5.211Zm-14.25.445a3.539,3.539,0,0,0,3.57,3.486v1.314a4.785,4.785,0,1,1,0-9.569V16.6A3.541,3.541,0,0,0,105.612,20.106Zm3.57-3.5V15.338h.018a4.786,4.786,0,1,1,0,9.569h-.019V23.593a3.5,3.5,0,1,0,0-6.99ZM64,19.746v.682a1.808,1.808,0,0,0-.58-.237A3.209,3.209,0,0,0,64,19.746Zm-2.233-4.032A5.449,5.449,0,0,1,64,15.971v1.436a1.7,1.7,0,0,0-.844-.272v6.441A2.23,2.23,0,0,0,64,23.337v1.418a2.9,2.9,0,0,1-.58.085,11.549,11.549,0,0,1-1.6.067l-.052-9.193ZM64,15.971a2.681,2.681,0,0,1,1.654,1.486,3.171,3.171,0,0,1-.245,2.6,2.1,2.1,0,0,1,.7,1.692v.291a3.893,3.893,0,0,1-.089.752A2.794,2.794,0,0,1,64,24.754V23.337a1.566,1.566,0,0,0,.845-1.675A1.93,1.93,0,0,0,64,20.428v-.682a1.492,1.492,0,0,0,.581-1.195A1.44,1.44,0,0,0,64,17.407V15.971ZM33.616,11.648c3.169,1.11,3.169-1.128,3.169-1.128V7.563h1.864v.923H52.794V5.77h1.83v4.785H38.684a3.191,3.191,0,0,1-2.428,2.632,2.245,2.245,0,0,1-2.64-1.539Zm13.126,1.71A1.145,1.145,0,1,1,47.9,12.213,1.148,1.148,0,0,1,46.742,13.358Zm2.5-.018a1.143,1.143,0,0,1-1.161-1.128,1.171,1.171,0,0,1,2.341,0,1.149,1.149,0,0,1-1.18,1.128ZM77.267,8.486c.141-.511-.458-.887-.458-.887a7.486,7.486,0,0,0-2.6-.667c-2.286-.2-2.338-.908-2.338-.908a2.21,2.21,0,0,1-.123-2.611,3.187,3.187,0,0,0,1.3,1.229A26.239,26.239,0,0,0,77.459,5.7a2.815,2.815,0,0,1,1.99,2.872H80.2V10.52H61.5a2.9,2.9,0,0,1-2.411,2.5,2.347,2.347,0,0,1-2.64-1.828c2.446,1.537,3.151-.412,3.151-.412v-3.3h1.863v.96l15.8.048ZM75.209,13.34a1.137,1.137,0,1,1,0-2.273,1.137,1.137,0,1,1,0,2.273Zm7.319-2.819a3.655,3.655,0,0,1-.052-.667V9.821A5.123,5.123,0,0,1,85.378,5v2.22a2.553,2.553,0,0,0-.809,1.593h.809v1.707ZM85.378,5a7.323,7.323,0,0,1,2.428-.682V8.776h5.348V6.265h1.759V8.691H98.1V6.111h1.757V8.691h15.326s.456-.426-.107-.632H103.568l.089-1.759a4.151,4.151,0,0,0,1.55-3.829h1.618A8.67,8.67,0,0,1,106,6.3h9.784a1.941,1.941,0,0,1,1.706,2.373h3.4a1.848,1.848,0,0,1,2.076-1.8h.089V8.265a.183.183,0,0,0-.089-.019s-.122.035-.228.394h.317v1.88H85.379V8.814h.827V6.556a4.039,4.039,0,0,0-.827.665V5Zm37.669,1.878a1.86,1.86,0,0,1,1.864,1.4v2.24h-1.864V8.64h.316a.568.568,0,0,0-.316-.375V6.878Zm-40.7-2.406a1.147,1.147,0,0,1-1.161-1.146,1.161,1.161,0,0,1,2.32,0A1.159,1.159,0,0,1,82.352,4.472Zm2.868,0a1.16,1.16,0,0,1-1.161-1.146A1.162,1.162,0,1,1,85.22,4.472Zm11.488,0a1.137,1.137,0,1,1,0-2.274,1.137,1.137,0,1,1,0,2.274Zm3.185,0a1.154,1.154,0,0,1-1.18-1.146,1.171,1.171,0,0,1,2.34,0A1.149,1.149,0,0,1,99.893,4.472ZM93.98,13.34a1.137,1.137,0,1,1,1.162-1.128A1.157,1.157,0,0,1,93.98,13.34Z" transform="translate(-0.68 -0.555)"/></svg>