<svg xmlns="http://www.w3.org/2000/svg" xmlns:xlink="http://www.w3.org/1999/xlink" width="190" height="153.333" viewBox="0 0 190 153.333">
  <defs>
    <linearGradient id="linear-gradient" y1="0.497" x2="1" y2="0.497" gradientUnits="objectBoundingBox">
      <stop offset="0" stop-color="#fff"/>
      <stop offset="0.484" stop-color="#c5d4eb"/>
      <stop offset="1" stop-color="#83a4d4"/>
    </linearGradient>
    <linearGradient id="linear-gradient-2" x1="0.978" y1="1.535" x2="-2.777" y2="-6.161" gradientUnits="objectBoundingBox">
      <stop offset="0" stop-color="#6859ea"/>
      <stop offset="1" stop-color="#6acbe0"/>
    </linearGradient>
    <linearGradient id="linear-gradient-3" x1="0" y1="0.5" x2="1" y2="0.5" xlink:href="#linear-gradient-2"/>
    <linearGradient id="linear-gradient-4" x1="1.372" y1="2.298" x2="-1.153" y2="-2.706" xlink:href="#linear-gradient-2"/>
    <linearGradient id="linear-gradient-5" x1="1.16" y1="0.528" x2="-0.506" y2="0.476" xlink:href="#linear-gradient"/>
    <linearGradient id="linear-gradient-6" y1="0.5" x2="1" y2="0.5" gradientUnits="objectBoundingBox">
      <stop offset="0" stop-color="#83a4d4"/>
      <stop offset="0.516" stop-color="#c5d4eb"/>
      <stop offset="1" stop-color="#fff"/>
    </linearGradient>
    <linearGradient id="linear-gradient-7" x1="0" y1="0.5" x2="1" y2="0.5" xlink:href="#linear-gradient"/>
    <linearGradient id="linear-gradient-8" x1="0" y1="0.497" x2="1" y2="0.497" xlink:href="#linear-gradient-6"/>
    <linearGradient id="linear-gradient-9" x1="0.33" y1="0.019" x2="0.792" y2="1.797" xlink:href="#linear-gradient"/>
    <linearGradient id="linear-gradient-10" x1="1.246" y1="2.371" x2="0.017" y2="-0.438" xlink:href="#linear-gradient-2"/>
  </defs>
  <g id="Group_319" data-name="Group 319" transform="translate(-65 -2236.667)">
    <g id="Group_177" data-name="Group 177" transform="translate(67.331 2236.667)">
      <path id="Path_329" data-name="Path 329" d="M734.27,294a2.861,2.861,0,0,1-.3.193q-.289.184-.525.368c-.035.035-.088.053-.122.088l-.368.245c-.053.035-.088.053-.14.088a.091.091,0,0,1-.07.035,4.46,4.46,0,0,1-1.016.473.986.986,0,0,0-.21.07c-.07.018-.123.035-.21.053h-.017l-.315.053h-.052c-.088.018-.193.018-.28.035h-.876a2.623,2.623,0,0,1-.385-.035h-.07c-.123-.018-.263-.035-.368-.053s-.193-.035-.3-.053a2.342,2.342,0,0,1-.333-.088,1.132,1.132,0,0,1-.228-.07c-.175-.053-.35-.105-.525-.175l-.263-.105c-.018-.017-.053-.017-.07-.035-.088-.035-.175-.07-.245-.105-.088-.035-.175-.088-.263-.123a56.623,56.623,0,0,0-27.509-8c-.771,0-1.541,0-2.259.053-.4.018-.805.053-1.191.088h-.017a35.855,35.855,0,0,0-3.887.578c-.385.07-.753.158-1.138.245-.455.105-.911.21-1.348.333-.4.105-.805.228-1.208.35a51.692,51.692,0,0,0-7.687,3.047c-.333.158-.648.315-.963.49a59.284,59.284,0,0,0-7.529,4.658c-.158.105-.3.21-.438.315-.876.648-1.348,1.051-1.348,1.051.07-.228.14-.455.228-.665.07-.193.14-.368.228-.56a13.306,13.306,0,0,1,.648-1.331c.07-.14.158-.3.245-.438.088-.158.193-.315.28-.473.053-.088.123-.193.175-.28.07-.105.158-.228.228-.333a.175.175,0,0,1,.07-.088c.105-.158.228-.315.35-.473.017-.018.017-.035.035-.053.123-.175.263-.35.4-.525s.28-.368.438-.543l.368-.42c.193-.228.4-.438.613-.665.158-.158.3-.315.455-.473.175-.175.333-.333.508-.49.175-.175.35-.333.525-.49s.368-.315.543-.473c.158-.123.3-.263.455-.385.805-.683,1.646-1.313,2.521-1.944.175-.123.35-.245.508-.35.21-.14.4-.28.613-.42.613-.4,1.243-.805,1.856-1.173l.63-.368.63-.368c.21-.123.42-.245.63-.35.63-.35,1.243-.683,1.856-1,.053-.035.105-.053.158-.088a78.259,78.259,0,0,1,10.926-4.57c5.708-2.259,16.144,3.625,23.954,10.033,2.451,2.014,6.251,4.413,9.193,3.485h.018A4.356,4.356,0,0,0,731,291.6a4.138,4.138,0,0,0,1.226-.893,4.346,4.346,0,0,0,.648-.805,3.045,3.045,0,0,0,.193-.315.134.134,0,0,1-.035.088c-.035.158-.07.315-.105.455a2.145,2.145,0,0,0-.035.333v.07a4.245,4.245,0,0,0,0,.77,1.332,1.332,0,0,0,.053.368v.035a2.568,2.568,0,0,0,.088.35v.018a1.552,1.552,0,0,0,.088.263.389.389,0,0,0,.088.193,4.228,4.228,0,0,0,.315.63,2.277,2.277,0,0,0,.175.263.307.307,0,0,0,.07.088,1.864,1.864,0,0,0,.158.193c.018.035.052.053.07.088A.787.787,0,0,1,734.27,294Z" transform="translate(-555.966 -235.903)" fill-rule="evenodd" fill="url(#linear-gradient)"/>
      <path id="Path_330" data-name="Path 330" d="M1013.766,326.429s.438,2.662-4.553,5.5l-5.113-2.066,4.167-6.461,3.957.805Z" transform="translate(-831.4 -273.53)" fill="url(#linear-gradient-2)"/>
      <path id="Path_331" data-name="Path 331" d="M183.48,132.449a2.819,2.819,0,0,1-1.208,2.364c-1.156.735-2.329.158-3.309-.543a8.792,8.792,0,0,0,.981-.665,6.752,6.752,0,0,0,1.156-1.261,2.282,2.282,0,0,0,.333-.683,2.225,2.225,0,0,1-.543.49,6.528,6.528,0,0,1-1.4.683,5.243,5.243,0,0,1-1.436.28.856.856,0,0,1-.228-.018,1.114,1.114,0,0,1-.123-.035c-.123-.018-.21-.035-.21-.035v.105q-.5-.42-1-.893a11.6,11.6,0,0,0,1.471-.84,7.053,7.053,0,0,0,1.523-1.4,2.8,2.8,0,0,0,.455-.805,2.964,2.964,0,0,1-.648.613,6.666,6.666,0,0,1-1.734.805,9.451,9.451,0,0,1-1.839.368c-.228.018-.368.018-.508.018-.525-.56-1.051-1.138-1.523-1.751a9.246,9.246,0,0,0,2.031-1.086,5.763,5.763,0,0,0,1.663-1.663,2.017,2.017,0,0,0,.263-.718c.018-.175.018-.28.018-.28s-.035.088-.088.263a2.324,2.324,0,0,1-.4.578,5.5,5.5,0,0,1-1.856,1.051,8,8,0,0,1-2.049.438c-.14,0-.28.018-.368.018h-.263a27.83,27.83,0,0,1-2.416-4.29,9.534,9.534,0,0,1,.193-2.994c.053-.28.14-.543.21-.823a7.889,7.889,0,0,1,.28-.77,6.5,6.5,0,0,1,.333-.7,5.1,5.1,0,0,1,.35-.613,6.7,6.7,0,0,1,.6-.876c.14-.175.228-.3.245-.315-.018.018-.123.105-.3.263a9.7,9.7,0,0,0-.77.753c-.158.175-.315.35-.473.56a6.43,6.43,0,0,0-.473.665c-.14.245-.315.49-.455.753s-.28.543-.4.823a10.79,10.79,0,0,0-.84,3.257,27.965,27.965,0,0,1-24.5-9.3,4.191,4.191,0,0,1,.228-.368,9.8,9.8,0,0,1,.981-1.313,18.26,18.26,0,0,1,3.152-2.837c1.261-.946,2.714-1.874,4.115-2.924a18.694,18.694,0,0,0,1.979-1.734,16.385,16.385,0,0,0,1.628-1.926,19.044,19.044,0,0,0,2.154-3.887,17.444,17.444,0,0,0,.893-2.994c.123-.648.175-1.051.193-1.156-.018.088-.105.49-.28,1.121a15.945,15.945,0,0,1-1.086,2.889,17.1,17.1,0,0,1-2.364,3.642,15.812,15.812,0,0,1-1.7,1.734,19.107,19.107,0,0,1-1.979,1.523c-1.4.928-2.907,1.769-4.272,2.662a30.217,30.217,0,0,0-2.819,2.119c-.508.4-2.049,1.979-2.189,2.136A23.67,23.67,0,0,0,137.5,128.44a7.5,7.5,0,0,0,1.4,4.623c-.42.105-.876.228-1.313.35a19.29,19.29,0,0,0-2.574.946,9.179,9.179,0,0,0-1.086.6c.053-.018.508-.175,1.173-.333a17.506,17.506,0,0,1,2.644-.333,20.025,20.025,0,0,1,3.4.088c1.086.105,2.171.385,3.257.49,1.576.175,3.485.42,4.29,2a3.381,3.381,0,0,1-.876,3.975,5.567,5.567,0,0,1-1.628,1.033,15.15,15.15,0,0,0-.333-1.909,5.561,5.561,0,0,0-.193-.665,2.17,2.17,0,0,0-.368-.578,2.653,2.653,0,0,0-.876-.753,1.769,1.769,0,0,0-.753-.245c-.175-.018-.28-.018-.28-.018a1.767,1.767,0,0,1,.823.543,2.362,2.362,0,0,1,.473.823,2.621,2.621,0,0,1,.105.508,4.994,4.994,0,0,1,.035.543,19.779,19.779,0,0,1-.158,2.224,16.894,16.894,0,0,1-1.891.228v-.123a6.39,6.39,0,0,0-.665-2.084,4.582,4.582,0,0,0-1.313-1.646,2.037,2.037,0,0,0-.613-.315c-.158-.035-.245-.053-.245-.053s.088.053.21.123a2.2,2.2,0,0,1,.438.455,4.32,4.32,0,0,1,.648,1.734,5.055,5.055,0,0,1,0,1.786l-.053.21c-5.323.14-11.207,0-15.006-3.712a17.8,17.8,0,0,1-3.134-4.623,58.836,58.836,0,0,1-5.708-35.283c.42-2.119,1.033-4.973,1.734-7.827a32.7,32.7,0,0,1,2.7-6.724,21.51,21.51,0,0,1,1.646-2.7c.385-.578.946-1.383.946-1.383a5.349,5.349,0,0,0-1.523,1.173,12.838,12.838,0,0,0-2.119,2.854,37.522,37.522,0,0,0-2.889,6.636c-1.523,4.623-2.416,9.21-2.784,10.559a20.184,20.184,0,0,1-6.426,4.605c-7.284,3.012-14.306,3.5-22.063,3.134-1.874-.088-3.747-.245-5.5-.42-1.751-.193-3.4-.385-4.78-.613-1.4-.193-2.556-.42-3.362-.56-.718-.123-1.156-.21-1.261-.228.105.018.543.123,1.243.3.805.193,1.944.49,3.344.753,1.383.3,3.012.6,4.763.893,1.751.28,3.625.543,5.516.735a103.276,103.276,0,0,0,10.419.6c.578,0,1.086,0,1.593-.018a55.729,55.729,0,0,1-.911,19.419c-.911.228-1.979.508-3.029.823a31.321,31.321,0,0,0-3.73,1.3,9.046,9.046,0,0,0-1.156.63c-.175.158-.3.263-.35.3.053-.035.193-.123.385-.245a6.916,6.916,0,0,1,1.191-.42,29.157,29.157,0,0,1,3.817-.683c1.891-.245,3.765-.385,4.815-.455a9.9,9.9,0,0,1,3.957,1.506,6.586,6.586,0,0,1,.543.438,3.152,3.152,0,0,1,.42,4.29,5.767,5.767,0,0,0-1.261-1.891,6.832,6.832,0,0,0-1.051-.858,8.941,8.941,0,0,0-1-.578,5.276,5.276,0,0,0-1.016-.42,7.1,7.1,0,0,1,.858.665,8.029,8.029,0,0,1,.788.77,6.046,6.046,0,0,1,.718,1,4.665,4.665,0,0,1,.455,1.068,3.439,3.439,0,0,1,.158.963v.35a3.66,3.66,0,0,1-.911.245c-.315.035-.63.053-.963.088a2.232,2.232,0,0,0-.018-.333,3.245,3.245,0,0,0-.473-1.3,4.728,4.728,0,0,0-.438-.6,6.95,6.95,0,0,0-.508-.508,13.92,13.92,0,0,0-3.029-1.874c.053.053.385.3.823.718a12.1,12.1,0,0,1,1.558,1.751,3.826,3.826,0,0,1,.3.508,2.531,2.531,0,0,1,.193.508,2.07,2.07,0,0,1,.07.84,1.289,1.289,0,0,1-.14.42,161.18,161.18,0,0,1-16.95.7,4.83,4.83,0,0,1-1.663-.21c-1.856-.7-2.206-3.117-2.416-5.1a33.708,33.708,0,0,0-11.977-22.045c.245-.315.508-.648.788-1.016a49.542,49.542,0,0,0,4.518-7.232,45.327,45.327,0,0,0,1.891-4.132c.28-.665.508-1.331.735-1.944s.42-1.208.6-1.769c.35-1.1.6-2.031.735-2.679.123-.508.21-.84.245-.963-.035.123-.158.455-.315.946-.193.63-.508,1.541-.928,2.609-.193.543-.438,1.1-.718,1.716-.263.6-.543,1.243-.858,1.874-.63,1.278-1.348,2.627-2.154,3.922a47.688,47.688,0,0,1-4.92,6.706,19.575,19.575,0,0,1-1.944,1.874c-9.14,7.582-18.578,15.321-27.736,22.921a1.15,1.15,0,0,0-.315.4,19,19,0,0,0-1.786-.7,12.479,12.479,0,0,0-2.837-.6,8.349,8.349,0,0,0-.946,0c-.228.018-.35.018-.35.018l.35.053a5.333,5.333,0,0,1,.911.21,11.416,11.416,0,0,1,2.521,1.121,15.887,15.887,0,0,1,2.241,1.593c.368.3.613.525.77.665a2.486,2.486,0,0,1,.473,1.558,3.69,3.69,0,0,1-1.891,2.784,7.278,7.278,0,0,0-.788-2.346,6.707,6.707,0,0,0-1.611-1.961,5.578,5.578,0,0,0-.911-.63,6.721,6.721,0,0,1,.718.823,6.153,6.153,0,0,1,.981,2.1,5.777,5.777,0,0,1,.14,2.206,2.11,2.11,0,0,1-.07.4,10.73,10.73,0,0,1-3.432.088,8.04,8.04,0,0,0,.07-1.313,5.861,5.861,0,0,0-.193-1.383,4.156,4.156,0,0,0-.438-1.121,3.2,3.2,0,0,0-.683-.911,3.7,3.7,0,0,1,.42,1.016,4.116,4.116,0,0,1,.123,1.086,5.848,5.848,0,0,1-.14,1.226,8.613,8.613,0,0,1-.4,1.243l-5.008-.63a5.883,5.883,0,0,1-3.344-1.156,5.519,5.519,0,0,1-1.366-2.854A68.36,68.36,0,0,1,17.868,127a5.614,5.614,0,0,1,.263-2.749,7.006,7.006,0,0,1,2.837-2.539c5.586-3.607,8.825-9.981,10.611-16.39,1.8-6.409,2.4-13.1,4.115-19.524a60.158,60.158,0,0,1,4.2-11.137.017.017,0,0,1,.018-.018c.175-.333.333-.665.508-1,.035-.053.053-.105.088-.158.7-1.348,1.453-2.679,2.259-3.957.018-.018.018-.053.035-.07a57.364,57.364,0,0,1,13.343-14.9A71.232,71.232,0,0,1,90.623,39.82c10.716-1.418,21.713-.438,32.744.613h.017c1.418.14,2.819.28,4.237.4a34.618,34.618,0,0,0,10.243-.088c2.627-.543,5.078-2.119,7.775-2.154A33.557,33.557,0,0,1,159.526,41.9s-21.275.07-27.071,21.94a15.489,15.489,0,0,1,10.751-5.691S133.05,65.315,131,75.891a18.187,18.187,0,0,1,9.648-5.253s-5.5,6.321-7.354,10.226c-6.129,13.01-1.261,19.822-1.261,19.822a52.31,52.31,0,0,1,7.477-5.06A46.2,46.2,0,0,1,157.547,89.6h.018c.805-.07,1.663-.105,2.556-.123h.893c.3,0,.613,0,.911.018,2.294,1.891,4.973,10.173,5.5,11.154,1.366,2.486,3.695,4.29,5.743,6.251,2.854,2.749,5.323,6.094,6.094,9.963.438,2.241.315,4.57.981,6.759C181.151,126.671,183.55,129.193,183.48,132.449Z" transform="translate(-17.819 -38.594)" fill="url(#linear-gradient-3)"/>
      <path id="Path_332" data-name="Path 332" d="M959.316,233.31c-3.029.088-3.712.473-5.323,2.451-1.751,2.136-4.132.49-4.2-2.662-.123-5.918,5.288-10.629,10.086-9.245C965.567,225.465,965.847,233.1,959.316,233.31Z" transform="translate(-786.598 -191.214)" fill="url(#linear-gradient-4)"/>
      <path id="Path_333" data-name="Path 333" d="M722.456,96.02h0a6.2,6.2,0,0,1-2.574.6c-1.856.053-2.837.228-3.677.805h0a8.85,8.85,0,0,0-1.628,1.628,2.628,2.628,0,0,1-1.051.823h0c-1.523.63-3.1-.946-3.152-3.5a9.7,9.7,0,0,1,4.465-8.317l.018-.018a6.908,6.908,0,0,1,5.586-.928C725.24,88.508,726.2,94.164,722.456,96.02Zm-.28,18.246.315-.053h.017l.21-.053a.985.985,0,0,0,.21-.07,3.584,3.584,0,0,0,1.016-.473.091.091,0,0,0,.07-.035c.053-.035.088-.053.14-.088l.368-.245a.531.531,0,0,0,.123-.088l.228-.158.315-.21a1.738,1.738,0,0,1,.3-.193h0a1.86,1.86,0,0,1-.263-.263.382.382,0,0,0-.07-.088.017.017,0,0,1-.018-.018,1.226,1.226,0,0,1-.14-.175.307.307,0,0,0-.07-.088,2.281,2.281,0,0,1-.175-.263c-.053-.088-.105-.175-.158-.28a.381.381,0,0,0-.053-.088c-.035-.088-.088-.175-.122-.263-.035-.07-.053-.123-.088-.193a1.541,1.541,0,0,1-.088-.263v-.018c-.035-.105-.053-.228-.088-.35v-.035l-.053-.368c0-.123-.017-.263-.017-.385v-.455a2.137,2.137,0,0,1,.035-.333c.017-.14.07-.28.088-.438v-.035a.134.134,0,0,1,.035-.088l.105-.315a1.945,1.945,0,0,1,.123-.28,2.832,2.832,0,0,1,.175-.315,2.14,2.14,0,0,1,.21-.333c.455-.63.858-.928,1.261-.928a1.317,1.317,0,0,1,.893.578,6.053,6.053,0,0,0,1.7,1.4,1.066,1.066,0,0,1,.105.07,2.711,2.711,0,0,0,.6.158h.035a1.146,1.146,0,0,0,.35-.123.981.981,0,0,0,.175-.263,2.065,2.065,0,0,0,.053-.7h0a1.957,1.957,0,0,0-.035-.3l-1.909-7.7a2.727,2.727,0,0,1-.07-.368v-.018a2.118,2.118,0,0,1-.018-.333,1.567,1.567,0,0,1,.035-.4,3.572,3.572,0,0,1,.088-.42,24.961,24.961,0,0,0-6.356-22.676,1.749,1.749,0,0,1-.193.175,4.1,4.1,0,0,1-.473.35c-.018.018-.035.018-.07.035a.133.133,0,0,1-.07.035c-.018.018-.035.018-.053.035s-.052.018-.07.035h-.018a.557.557,0,0,1-.158.053,1.54,1.54,0,0,1-.263.088h0a.3.3,0,0,1-.123.018c-.035,0-.07.018-.105.018s-.07.018-.105.018a1.52,1.52,0,0,1-.4-.018.623.623,0,0,1-.175-.035.987.987,0,0,1-.21-.07.712.712,0,0,1-.158-.088.017.017,0,0,1-.017-.018c-.053-.035-.105-.053-.158-.088-.018-.018-.035-.018-.053-.035a.761.761,0,0,1-.123-.105l-.053-.053c-.017-.018-.017-.035-.035-.035s-.035-.035-.035-.053a.366.366,0,0,1-.07-.105V74.99l-.018-.018a.017.017,0,0,0-.017-.018c-.018-.035-.035-.053-.053-.088h0a.761.761,0,0,1-.07-.123.133.133,0,0,0-.035-.07v-.018h0a2.284,2.284,0,0,1-.228-1.278c1.173-8.02-6.461-7.319-9.806,1.891a.054.054,0,0,1-.017.035c-.053.123-.105.245-.175.4-.648,1.348-2.049,3.747-3.414,3.922h-.018a1.333,1.333,0,0,1-.63-.105c-1.138-.525-1.208-1.8-.858-3.082v-.018a1.535,1.535,0,0,1,.088-.263c.052-.175.123-.35.193-.525a19.993,19.993,0,0,1,4.658-7.214,46.188,46.188,0,0,0-6.584-3.817,5.414,5.414,0,0,1-.77-.42c-.158-.088-.315-.175-.455-.245-.35-.193-.683-.368-.981-.525-.105-.053-.21-.105-.3-.158a.133.133,0,0,1-.07-.035c-.438-.228-.946-.455-1.576-.735h-.018c-.018,0-.035-.018-.053-.018l-4.185-2.241-.017-.018L688.854,57.9s-21.275.07-27.071,21.94a15.489,15.489,0,0,1,10.751-5.691s-10.156,7.162-12.2,17.738a18.032,18.032,0,0,1,9.648-5.236s-5.5,6.321-7.354,10.226c-6.129,13.01-1.261,19.822-1.261,19.822s.473-.4,1.348-1.051c.14-.105.28-.21.438-.315a59.283,59.283,0,0,1,7.529-4.658c.315-.175.63-.333.963-.49a47.507,47.507,0,0,1,7.687-3.047c.4-.123.805-.245,1.208-.35.455-.123.893-.228,1.348-.333.368-.088.753-.175,1.138-.245a34.6,34.6,0,0,1,3.887-.578h.018c.385-.035.788-.07,1.191-.088.718-.035,1.488-.053,2.259-.053a56.572,56.572,0,0,1,27.509,8c.088.035.175.088.263.123s.158.07.245.105c.018.018.053.018.07.035l.263.105c.175.07.35.123.525.175.07.018.158.053.228.07.105.035.228.053.333.088.088.018.193.035.3.053l.368.053h.07c.052,0,.088.018.14.018a1.326,1.326,0,0,0,.263.018h.876Z" transform="translate(-547.165 -54.519)" fill="url(#linear-gradient-5)"/>
      <path id="Path_334" data-name="Path 334" d="M223.777,42.9c-3.414,2.154-8.633,7.232-9.193,19.016-.42,9-3.572,14.271-6.479,17.23a14.548,14.548,0,0,0-3.677,14.341c.14.455.228.718.228.718-2.942-.823-4.36-4.413-4.36-4.413-.49,5.656,5.236,13.36,5.236,13.36-11.539,2.994-16.425,2.521-25.075,1.7,0,0,2.049-2.924,3.082-10.541a7.9,7.9,0,0,0-7.022.876c2.574-15.006-12.03-22.851-24.094-14.639l-12.923,8.4h0a46.5,46.5,0,0,1,2.4-7.057c3.064-6.846,10.506-11.277,11.609-12.257-3.975.928-7.862,2.749-13.22,7.442a.017.017,0,0,1,.018-.018c.175-.333.35-.648.508-1,.035-.053.053-.105.088-.158a58,58,0,0,1,15.637-18.929A71.38,71.38,0,0,1,191,42.266c10.716-1.418,21.713-.438,32.744.613C223.759,42.9,223.759,42.9,223.777,42.9Z" transform="translate(-118.193 -41.039)" fill="url(#linear-gradient-6)"/>
      <path id="Path_335" data-name="Path 335" d="M227.389,42.92c-.3,0-24.829.018-42.06,6.882-4.22,1.681-7.494,3.782-9.771,6.531a10.259,10.259,0,0,1,1.331-3.712q-18.281,4.649-32.989,24.5a.017.017,0,0,1,.018-.018c.928-1.734,1.874-3.432,2.854-5.113.018-.018.018-.053.035-.07a57.364,57.364,0,0,1,13.343-14.9A71.371,71.371,0,0,1,194.627,42.29c10.716-1.418,21.713-.42,32.762.63Z" transform="translate(-121.823 -41.063)" fill-rule="evenodd" fill="url(#linear-gradient-7)"/>
      <path id="Path_336" data-name="Path 336" d="M734.27,302.743a2.852,2.852,0,0,1-.3.193q-.289.184-.525.368c-.035.035-.088.053-.122.088l-.368.245c-.053.035-.088.053-.14.088a.091.091,0,0,1-.07.035,4.461,4.461,0,0,1-1.016.473.986.986,0,0,0-.21.07c-.07.017-.123.035-.21.053h-.017l-.315.053h-.052c-.088.018-.193.018-.28.035h-.876a2.623,2.623,0,0,1-.385-.035h-.07c-.123-.018-.263-.035-.368-.053s-.193-.035-.3-.053a2.334,2.334,0,0,1-.333-.088,1.132,1.132,0,0,1-.228-.07c-.175-.053-.35-.105-.525-.175l-.263-.105c-.018-.018-.053-.018-.07-.035-.088-.035-.175-.07-.245-.105-.088-.035-.175-.088-.263-.123a56.623,56.623,0,0,0-27.509-8c-.771,0-1.541,0-2.259.053-.4.018-.805.053-1.191.088h-.017a35.848,35.848,0,0,0-3.887.578c-.385.07-.753.158-1.138.245-.455.105-.911.21-1.348.333-.4.105-.805.228-1.208.35a51.7,51.7,0,0,0-7.687,3.047c-.333.158-.648.315-.963.49a59.287,59.287,0,0,0-7.529,4.658c-.158.105-.3.21-.438.315-.876.648-1.348,1.051-1.348,1.051.07-.228.14-.455.228-.665.07-.193.14-.368.228-.56a13.3,13.3,0,0,1,.648-1.331c.07-.14.158-.3.245-.438.088-.158.193-.315.28-.473.053-.088.123-.193.175-.28.07-.105.158-.228.228-.333a.175.175,0,0,1,.07-.088c.105-.158.228-.315.35-.473.017-.017.017-.035.035-.053.123-.175.263-.35.4-.525s.28-.368.438-.543l.368-.42c.193-.228.4-.438.613-.665.158-.158.3-.315.455-.473.175-.175.333-.333.508-.49.175-.175.35-.333.525-.49s.368-.315.543-.473c.158-.123.3-.263.455-.385.805-.683,1.646-1.313,2.521-1.944.175-.123.35-.245.508-.35.21-.14.4-.28.613-.42.613-.4,1.243-.805,1.856-1.173l.63-.368.63-.368c.21-.123.42-.245.63-.35.63-.35,1.243-.683,1.856-1,.053-.035.105-.053.158-.088a29.449,29.449,0,0,1,28.909,1.226,66.552,66.552,0,0,1,5.971,4.237c2.486,1.979,6.251,4.4,9.193,3.485h.018a4.37,4.37,0,0,0,.508-.193,4.138,4.138,0,0,0,1.226-.893,4.346,4.346,0,0,0,.648-.805,3.044,3.044,0,0,0,.193-.315.134.134,0,0,1-.035.088c-.035.158-.07.315-.105.455a2.145,2.145,0,0,0-.035.333v.07a4.245,4.245,0,0,0,0,.77,1.333,1.333,0,0,0,.053.368v.035a2.567,2.567,0,0,0,.088.35v.018a1.55,1.55,0,0,0,.088.263.389.389,0,0,0,.088.193,4.228,4.228,0,0,0,.315.63,2.277,2.277,0,0,0,.175.263.308.308,0,0,0,.07.088,1.863,1.863,0,0,0,.158.193c.018.035.052.053.07.088A.787.787,0,0,1,734.27,302.743Z" transform="translate(-555.966 -244.643)" fill-rule="evenodd" fill="url(#linear-gradient-8)"/>
      <path id="Path_337" data-name="Path 337" d="M934.66,153.371l-1.909-7.7a2.931,2.931,0,0,1,.035-1.558,24.961,24.961,0,0,0-6.356-22.676,2.167,2.167,0,0,1-2.819.56c-.053-.053-.123-.088-.175-.14-.035-.035-.07-.053-.088-.105-.017-.018-.035-.035-.035-.053a.367.367,0,0,1-.07-.105c0-.018-.018-.018-.018-.035a.064.064,0,0,1-.017-.053c-.035-.088-.088-.175-.14-.28h0a2.284,2.284,0,0,1-.228-1.278c1.173-8.02-6.461-7.319-9.806,1.891-.175.49-4.062,9.21-4.833,12.642h0a18.083,18.083,0,0,0-.56,3.327c-.21,3.765,2.311,5.621,4.185,3.642,1.926-2.031,4.115-5.253,6.829-7.179,7.2-5.06,15.269,3.4,10.138,8.352-2.942,2.837,2.994,10.839,4.64,11.942a.92.92,0,0,0,1.051.088C934.678,154.456,934.765,154.071,934.66,153.371Z" transform="translate(-751.822 -101.119)" fill="url(#linear-gradient-9)"/>
      <path id="Path_338" data-name="Path 338" d="M926.675,107.2h0a1.745,1.745,0,0,1-.193.175,4.1,4.1,0,0,1-.473.35c-.017.018-.035.018-.07.035a.133.133,0,0,1-.07.035c-.018.018-.035.018-.053.035s-.052.018-.07.035h-.018a.555.555,0,0,1-.158.053,1.539,1.539,0,0,1-.263.088h0a.3.3,0,0,1-.123.018h-.1c-.035,0-.07.018-.105.018a1.521,1.521,0,0,1-.4-.018.623.623,0,0,1-.175-.035.987.987,0,0,1-.21-.07.709.709,0,0,1-.158-.088.017.017,0,0,1-.017-.018c-.053-.035-.105-.053-.158-.088-.018-.018-.035-.018-.053-.035a.764.764,0,0,1-.123-.105l-.052-.053c-.018-.018-.018-.035-.035-.035-.017-.018-.035-.035-.035-.053a.368.368,0,0,1-.07-.105v-.018l-.017-.018a.017.017,0,0,0-.017-.018c-.018-.035-.035-.053-.053-.088h0a.771.771,0,0,1-.07-.123.132.132,0,0,0-.035-.07v-.018h0a2.284,2.284,0,0,1-.228-1.278c1.173-8.02-6.461-7.319-9.806,1.891a.054.054,0,0,1-.017.035c-.053.123-.105.245-.175.4-.63,1.366-1.944,3.8-3.414,3.922h-.018a1.333,1.333,0,0,1-.63-.105c-1.173-.473-1.226-1.786-.858-3.082v-.018a1.535,1.535,0,0,1,.088-.263c.052-.175.123-.35.193-.525a19.991,19.991,0,0,1,4.658-7.214C913.1,100.777,924.994,89.325,926.675,107.2Z" transform="translate(-752.084 -86.908)" fill-rule="evenodd" fill="url(#linear-gradient-10)"/>
    </g>
    <text id="Koupon_Panda" data-name="Koupon Panda" transform="translate(160 2370)" fill="#fff" font-size="25" font-family="Nunito-Black, Nunito" font-weight="800" letter-spacing="0.05em"><tspan x="-94.425" y="0">Koupon Panda</tspan></text>
    <text id="Save_More_Buy_Smarter" data-name="Save More, Buy Smarter" transform="translate(137 2386)" fill="#fff" font-size="11" font-family="Nunito-Light, Nunito" font-weight="300" letter-spacing="0.1em"><tspan x="-70.147" y="0">Save More, Buy Smarter</tspan></text>
  </g>
</svg>
