<svg xmlns="http://www.w3.org/2000/svg" xmlns:xlink="http://www.w3.org/1999/xlink" width="92" height="70" viewBox="0 0 92 70">
  <defs>
    <linearGradient id="linear-gradient" y1="0.497" x2="1" y2="0.497" gradientUnits="objectBoundingBox">
      <stop offset="0" stop-color="#fff"/>
      <stop offset="0.484" stop-color="#c5d4eb"/>
      <stop offset="1" stop-color="#83a4d4"/>
    </linearGradient>
    <linearGradient id="linear-gradient-2" x1="0.978" y1="1.535" x2="-2.777" y2="-6.161" gradientUnits="objectBoundingBox">
      <stop offset="0" stop-color="#6859ea"/>
      <stop offset="1" stop-color="#6acbe0"/>
    </linearGradient>
    <linearGradient id="linear-gradient-3" x1="0" y1="0.5" x2="1" y2="0.5" xlink:href="#linear-gradient-2"/>
    <linearGradient id="linear-gradient-4" x1="1.372" y1="2.298" x2="-1.153" y2="-2.706" xlink:href="#linear-gradient-2"/>
    <linearGradient id="linear-gradient-5" x1="1.16" y1="0.528" x2="-0.506" y2="0.476" xlink:href="#linear-gradient"/>
    <linearGradient id="linear-gradient-6" y1="0.5" x2="1" y2="0.5" gradientUnits="objectBoundingBox">
      <stop offset="0" stop-color="#83a4d4"/>
      <stop offset="0.516" stop-color="#c5d4eb"/>
      <stop offset="1" stop-color="#fff"/>
    </linearGradient>
    <linearGradient id="linear-gradient-7" x1="0" y1="0.5" x2="1" y2="0.5" xlink:href="#linear-gradient"/>
    <linearGradient id="linear-gradient-8" x1="0" y1="0.497" x2="1" y2="0.497" xlink:href="#linear-gradient-6"/>
    <linearGradient id="linear-gradient-9" x1="0.33" y1="0.019" x2="0.792" y2="1.797" xlink:href="#linear-gradient"/>
    <linearGradient id="linear-gradient-10" x1="1.246" y1="2.371" x2="0.017" y2="-0.438" xlink:href="#linear-gradient-2"/>
  </defs>
  <g id="Group_345" data-name="Group 345" transform="translate(-111 -3503)">
    <g id="log-rgb" transform="translate(111.996 3503)">
      <g id="Group_177" data-name="Group 177" transform="translate(0 0)">
        <path id="Path_329" data-name="Path 329" d="M701.846,285.8a1.406,1.406,0,0,1-.147.1q-.143.091-.259.182c-.017.017-.043.026-.061.043l-.182.121c-.026.017-.043.026-.069.043a.045.045,0,0,1-.035.017,2.2,2.2,0,0,1-.5.234.485.485,0,0,0-.1.035c-.035.009-.061.017-.1.026h-.009l-.156.026h-.026c-.043.009-.1.009-.138.017h-.432a1.3,1.3,0,0,1-.19-.017H699.4c-.061-.009-.13-.017-.182-.026l-.147-.026a1.158,1.158,0,0,1-.164-.043.562.562,0,0,1-.112-.035c-.086-.026-.173-.052-.259-.086l-.13-.052c-.009-.009-.026-.009-.034-.017-.043-.017-.087-.035-.121-.052s-.087-.043-.13-.061a27.968,27.968,0,0,0-13.587-3.953c-.381,0-.761,0-1.116.026-.2.009-.4.026-.588.043h-.009a17.717,17.717,0,0,0-1.92.285c-.19.035-.372.078-.562.121-.225.052-.45.1-.666.164-.2.052-.4.112-.6.173a25.534,25.534,0,0,0-3.8,1.5c-.164.078-.32.156-.476.242a29.283,29.283,0,0,0-3.719,2.3c-.078.052-.147.1-.216.156-.432.32-.666.519-.666.519.035-.112.069-.225.112-.329s.069-.182.112-.277a6.6,6.6,0,0,1,.32-.657c.035-.069.078-.147.121-.216s.1-.156.138-.234c.026-.043.061-.1.087-.138s.078-.112.112-.164a.086.086,0,0,1,.035-.043c.052-.078.112-.156.173-.234.009-.009.009-.017.017-.026.061-.086.13-.173.2-.259s.138-.182.216-.268l.182-.208c.1-.112.2-.216.3-.329.078-.078.147-.156.225-.234s.164-.164.251-.242.173-.164.259-.242.182-.156.268-.234c.078-.06.147-.13.225-.19.4-.337.813-.649,1.245-.96.086-.061.173-.121.251-.173.1-.069.2-.138.3-.208.3-.2.614-.4.917-.579l.311-.182.311-.182c.1-.061.208-.121.311-.173.311-.173.614-.337.917-.493.026-.017.052-.026.078-.043a38.662,38.662,0,0,1,5.4-2.257c2.82-1.116,7.974,1.79,11.832,4.956,1.211.995,3.088,2.18,4.541,1.721h.009a2.157,2.157,0,0,0,.251-.1,2.044,2.044,0,0,0,.605-.441,2.146,2.146,0,0,0,.32-.4,1.519,1.519,0,0,0,.1-.156.066.066,0,0,1-.017.043c-.017.078-.035.156-.052.225a1.065,1.065,0,0,0-.017.164v.035a2.108,2.108,0,0,0,0,.381.659.659,0,0,0,.026.182v.017a1.271,1.271,0,0,0,.043.173v.009a.765.765,0,0,0,.043.13.192.192,0,0,0,.043.1,2.088,2.088,0,0,0,.156.311,1.13,1.13,0,0,0,.087.13.15.15,0,0,0,.035.043.924.924,0,0,0,.078.1c.009.017.026.026.035.043A.389.389,0,0,1,701.846,285.8Z" transform="translate(-613.776 -257.099)" fill-rule="evenodd" fill="url(#linear-gradient)"/>
        <path id="Path_330" data-name="Path 330" d="M1008.874,324.9s.216,1.315-2.249,2.716l-2.526-1.021,2.058-3.191,1.955.4Z" transform="translate(-918.797 -298.767)" fill="url(#linear-gradient-2)"/>
        <path id="Path_331" data-name="Path 331" d="M99.644,84.952a1.393,1.393,0,0,1-.6,1.168,1.415,1.415,0,0,1-1.635-.268,4.342,4.342,0,0,0,.484-.329,3.335,3.335,0,0,0,.571-.623,1.127,1.127,0,0,0,.164-.337,1.1,1.1,0,0,1-.268.242,3.225,3.225,0,0,1-.692.337,2.59,2.59,0,0,1-.709.138.423.423,0,0,1-.112-.009.55.55,0,0,1-.061-.017c-.061-.009-.1-.017-.1-.017v.052q-.246-.208-.493-.441a5.73,5.73,0,0,0,.727-.415,3.484,3.484,0,0,0,.752-.692,1.384,1.384,0,0,0,.225-.4,1.464,1.464,0,0,1-.32.3,3.292,3.292,0,0,1-.856.4,4.668,4.668,0,0,1-.908.182c-.112.009-.182.009-.251.009-.259-.277-.519-.562-.752-.865a4.567,4.567,0,0,0,1-.536,2.846,2.846,0,0,0,.822-.822,1,1,0,0,0,.13-.355c.009-.086.009-.138.009-.138s-.017.043-.043.13a1.148,1.148,0,0,1-.2.285,2.714,2.714,0,0,1-.917.519,3.951,3.951,0,0,1-1.012.216c-.069,0-.138.009-.182.009h-.13A13.746,13.746,0,0,1,93.1,80.559a4.709,4.709,0,0,1,.1-1.479c.026-.138.069-.268.1-.407a3.891,3.891,0,0,1,.138-.381,3.209,3.209,0,0,1,.164-.346,2.518,2.518,0,0,1,.173-.3,3.308,3.308,0,0,1,.294-.432c.069-.086.112-.147.121-.156-.009.009-.061.052-.147.13a4.79,4.79,0,0,0-.381.372c-.078.086-.156.173-.234.277a3.175,3.175,0,0,0-.234.329c-.069.121-.156.242-.225.372s-.138.268-.2.407a5.329,5.329,0,0,0-.415,1.609,13.813,13.813,0,0,1-12.1-4.593,2.072,2.072,0,0,1,.112-.182,4.84,4.84,0,0,1,.484-.649,9.019,9.019,0,0,1,1.557-1.4c.623-.467,1.341-.925,2.032-1.444a9.234,9.234,0,0,0,.977-.856,8.092,8.092,0,0,0,.8-.951,9.406,9.406,0,0,0,1.064-1.92,8.616,8.616,0,0,0,.441-1.479c.061-.32.086-.519.1-.571-.009.043-.052.242-.138.554a7.876,7.876,0,0,1-.536,1.427,8.447,8.447,0,0,1-1.168,1.8,7.811,7.811,0,0,1-.839.856,9.437,9.437,0,0,1-.977.752c-.692.458-1.436.874-2.11,1.315a14.926,14.926,0,0,0-1.392,1.047c-.251.2-1.012.977-1.081,1.055a11.691,11.691,0,0,0-2.647,7.663,3.7,3.7,0,0,0,.692,2.283c-.208.052-.432.112-.649.173a9.527,9.527,0,0,0-1.271.467,4.532,4.532,0,0,0-.536.294c.026-.009.251-.086.579-.164a8.647,8.647,0,0,1,1.306-.164,9.891,9.891,0,0,1,1.678.043c.536.052,1.072.19,1.609.242.778.086,1.721.208,2.119.986a1.67,1.67,0,0,1-.432,1.963,2.75,2.75,0,0,1-.8.51,7.482,7.482,0,0,0-.164-.943,2.747,2.747,0,0,0-.1-.329,1.072,1.072,0,0,0-.182-.285,1.31,1.31,0,0,0-.432-.372.874.874,0,0,0-.372-.121c-.086-.009-.138-.009-.138-.009a.873.873,0,0,1,.407.268,1.167,1.167,0,0,1,.234.407,1.294,1.294,0,0,1,.052.251,2.467,2.467,0,0,1,.017.268,9.772,9.772,0,0,1-.078,1.1,8.347,8.347,0,0,1-.934.112v-.061a3.156,3.156,0,0,0-.329-1.029,2.263,2.263,0,0,0-.649-.813,1.007,1.007,0,0,0-.3-.156l-.121-.026.1.061a1.086,1.086,0,0,1,.216.225,2.133,2.133,0,0,1,.32.856,2.5,2.5,0,0,1,0,.882l-.026.1c-2.629.069-5.535,0-7.412-1.834a8.791,8.791,0,0,1-1.548-2.283,29.061,29.061,0,0,1-2.82-17.428c.208-1.047.51-2.456.856-3.866a16.154,16.154,0,0,1,1.332-3.321,10.625,10.625,0,0,1,.813-1.332c.19-.285.467-.683.467-.683a2.642,2.642,0,0,0-.752.579,6.341,6.341,0,0,0-1.047,1.41,18.534,18.534,0,0,0-1.427,3.278c-.752,2.283-1.194,4.549-1.375,5.215A9.97,9.97,0,0,1,62.662,72a24.276,24.276,0,0,1-10.9,1.548c-.925-.043-1.851-.121-2.716-.208s-1.678-.19-2.361-.3c-.692-.1-1.263-.208-1.661-.277-.355-.061-.571-.1-.623-.112.052.009.268.061.614.147.4.1.96.242,1.652.372.683.147,1.488.294,2.353.441s1.79.268,2.724.363a51.009,51.009,0,0,0,5.146.294c.285,0,.536,0,.787-.009a27.526,27.526,0,0,1-.45,9.592c-.45.112-.977.251-1.5.406a15.474,15.474,0,0,0-1.842.64,4.468,4.468,0,0,0-.571.311c-.086.078-.147.13-.173.147l.19-.121a3.415,3.415,0,0,1,.588-.208,14.4,14.4,0,0,1,1.885-.337c.934-.121,1.86-.19,2.378-.225a4.889,4.889,0,0,1,1.955.744,3.253,3.253,0,0,1,.268.216,1.557,1.557,0,0,1,.208,2.119A2.848,2.848,0,0,0,60,86.613a3.375,3.375,0,0,0-.519-.424,4.416,4.416,0,0,0-.493-.285,2.607,2.607,0,0,0-.5-.208,3.509,3.509,0,0,1,.424.329,3.966,3.966,0,0,1,.389.381,2.986,2.986,0,0,1,.355.493,2.3,2.3,0,0,1,.225.528,1.7,1.7,0,0,1,.078.476v.173a1.807,1.807,0,0,1-.45.121c-.156.017-.311.026-.476.043a1.1,1.1,0,0,0-.009-.164,1.6,1.6,0,0,0-.234-.64,2.335,2.335,0,0,0-.216-.294,3.433,3.433,0,0,0-.251-.251,6.876,6.876,0,0,0-1.5-.925c.026.026.19.147.406.355a5.974,5.974,0,0,1,.77.865,1.891,1.891,0,0,1,.147.251,1.25,1.25,0,0,1,.1.251,1.023,1.023,0,0,1,.035.415.637.637,0,0,1-.069.208,79.614,79.614,0,0,1-8.372.346,2.386,2.386,0,0,1-.822-.1c-.917-.346-1.09-1.54-1.194-2.517A16.65,16.65,0,0,0,41.9,75.144c.121-.156.251-.32.389-.5a24.47,24.47,0,0,0,2.231-3.572,22.388,22.388,0,0,0,.934-2.041c.138-.329.251-.657.363-.96s.208-.6.294-.874c.173-.545.294-1,.363-1.323.061-.251.1-.415.121-.476-.017.061-.078.225-.156.467-.1.311-.251.761-.458,1.289-.1.268-.216.545-.355.848s-.268.614-.424.925c-.311.631-.666,1.3-1.064,1.937a23.555,23.555,0,0,1-2.43,3.313,9.669,9.669,0,0,1-.96.925c-4.515,3.745-9.176,7.568-13.7,11.321a.568.568,0,0,0-.156.2,9.385,9.385,0,0,0-.882-.346,6.164,6.164,0,0,0-1.4-.294,4.124,4.124,0,0,0-.467,0c-.112.009-.173.009-.173.009l.173.026a2.634,2.634,0,0,1,.45.1,5.639,5.639,0,0,1,1.245.554,7.848,7.848,0,0,1,1.107.787c.182.147.3.259.381.329a1.228,1.228,0,0,1,.234.77,1.823,1.823,0,0,1-.934,1.375,3.6,3.6,0,0,0-.389-1.159,3.313,3.313,0,0,0-.8-.969,2.756,2.756,0,0,0-.45-.311,3.32,3.32,0,0,1,.355.407,3.039,3.039,0,0,1,.484,1.038,2.854,2.854,0,0,1,.069,1.09,1.042,1.042,0,0,1-.035.2,5.3,5.3,0,0,1-1.7.043,3.971,3.971,0,0,0,.035-.649,2.9,2.9,0,0,0-.1-.683,2.053,2.053,0,0,0-.216-.554,1.579,1.579,0,0,0-.337-.45,1.826,1.826,0,0,1,.208.5,2.033,2.033,0,0,1,.061.536,2.889,2.889,0,0,1-.069.605,4.255,4.255,0,0,1-.2.614l-2.474-.311a2.906,2.906,0,0,1-1.652-.571,2.726,2.726,0,0,1-.675-1.41,33.765,33.765,0,0,1-.917-5.639,2.773,2.773,0,0,1,.13-1.358,3.461,3.461,0,0,1,1.4-1.254c2.759-1.782,4.359-4.93,5.241-8.1s1.185-6.469,2.032-9.644a29.714,29.714,0,0,1,2.076-5.5.008.008,0,0,1,.009-.009c.086-.164.164-.329.251-.493.017-.026.026-.052.043-.078.346-.666.718-1.323,1.116-1.955.009-.009.009-.026.017-.035a28.334,28.334,0,0,1,6.59-7.36A35.184,35.184,0,0,1,53.779,39.2c5.293-.7,10.725-.216,16.173.3h.009c.7.069,1.392.138,2.093.2a17.1,17.1,0,0,0,5.06-.043c1.3-.268,2.508-1.047,3.84-1.064a16.575,16.575,0,0,1,6.859,1.635S77.3,40.263,74.441,51.066a7.65,7.65,0,0,1,5.31-2.811s-5.016,3.537-6.028,8.761a8.983,8.983,0,0,1,4.766-2.595,31.707,31.707,0,0,0-3.633,5.051c-3.027,6.426-.623,9.791-.623,9.791a25.838,25.838,0,0,1,3.693-2.5,22.819,22.819,0,0,1,8.908-2.975h.009c.4-.035.822-.052,1.263-.061h.441c.147,0,.3,0,.45.009,1.133.934,2.456,5.025,2.716,5.509a13.9,13.9,0,0,0,2.837,3.088,9.725,9.725,0,0,1,3.01,4.921,33.011,33.011,0,0,0,.484,3.338C98.494,82.1,99.679,83.344,99.644,84.952Z" transform="translate(-17.819 -38.594)" fill="url(#linear-gradient-3)"/>
        <path id="Path_332" data-name="Path 332" d="M954.494,228.4a2.653,2.653,0,0,0-2.629,1.211c-.865,1.055-2.041.242-2.076-1.315-.06-2.923,2.612-5.25,4.982-4.567C957.582,224.527,957.72,228.3,954.494,228.4Z" transform="translate(-869.183 -207.609)" fill="url(#linear-gradient-4)"/>
        <path id="Path_333" data-name="Path 333" d="M690.611,76.729h0a3.061,3.061,0,0,1-1.271.294,3.167,3.167,0,0,0-1.816.4h0a4.368,4.368,0,0,0-.8.8,1.3,1.3,0,0,1-.519.406h0c-.752.311-1.531-.467-1.557-1.73a4.792,4.792,0,0,1,2.205-4.108l.009-.009a3.412,3.412,0,0,1,2.759-.458C691.987,73.018,692.462,75.812,690.611,76.729Zm-.138,9.012.156-.026h.009l.1-.026a.488.488,0,0,0,.1-.035,1.77,1.77,0,0,0,.5-.234.045.045,0,0,0,.035-.017c.026-.017.043-.026.069-.043l.182-.121a.261.261,0,0,0,.061-.043l.112-.078.156-.1a.856.856,0,0,1,.147-.1h0a.923.923,0,0,1-.13-.13.187.187,0,0,0-.035-.043.008.008,0,0,1-.009-.009.614.614,0,0,1-.069-.086.151.151,0,0,0-.035-.043,1.135,1.135,0,0,1-.087-.13c-.026-.043-.052-.086-.078-.138a.189.189,0,0,0-.026-.043c-.017-.043-.043-.086-.06-.13s-.026-.061-.043-.1a.754.754,0,0,1-.043-.13v-.009c-.017-.052-.026-.112-.043-.173v-.017l-.026-.182c0-.061-.009-.13-.009-.19v-.225a1.058,1.058,0,0,1,.017-.164c.009-.069.035-.138.043-.216v-.017a.066.066,0,0,1,.017-.043l.052-.156a.959.959,0,0,1,.06-.138,1.406,1.406,0,0,1,.086-.156,1.056,1.056,0,0,1,.1-.164c.225-.311.424-.458.623-.458a.65.65,0,0,1,.441.285,2.989,2.989,0,0,0,.839.692.532.532,0,0,1,.052.035,1.338,1.338,0,0,0,.294.078h.017a.566.566,0,0,0,.173-.061.486.486,0,0,0,.086-.13,1.019,1.019,0,0,0,.026-.346h0a.961.961,0,0,0-.017-.147l-.943-3.806a1.34,1.34,0,0,1-.035-.182v-.009a1.052,1.052,0,0,1-.009-.164.775.775,0,0,1,.017-.2,1.756,1.756,0,0,1,.043-.208,12.329,12.329,0,0,0-3.14-11.2.86.86,0,0,1-.1.086,2.02,2.02,0,0,1-.234.173c-.009.009-.017.009-.035.017a.065.065,0,0,1-.035.017c-.009.009-.017.009-.026.017s-.026.009-.035.017H689.8a.274.274,0,0,1-.078.026.763.763,0,0,1-.13.043h0a.147.147,0,0,1-.06.009c-.017,0-.035.009-.052.009s-.035.009-.052.009a.751.751,0,0,1-.2-.009.307.307,0,0,1-.086-.017.487.487,0,0,1-.1-.035.35.35,0,0,1-.078-.043.008.008,0,0,1-.009-.009c-.026-.017-.052-.026-.078-.043-.009-.009-.017-.009-.026-.017a.375.375,0,0,1-.06-.052l-.026-.026c-.009-.009-.009-.017-.017-.017s-.017-.017-.017-.026a.179.179,0,0,1-.035-.052v-.009l-.009-.009a.008.008,0,0,0-.009-.009c-.009-.017-.017-.026-.026-.043h0a.376.376,0,0,1-.035-.061.065.065,0,0,0-.017-.035v-.009h0a1.129,1.129,0,0,1-.112-.631c.58-3.961-3.191-3.615-4.843.934a.027.027,0,0,1-.009.017c-.026.061-.052.121-.086.2-.32.666-1.012,1.851-1.687,1.937h-.009a.658.658,0,0,1-.311-.052c-.562-.259-.6-.891-.424-1.522V67.05a.759.759,0,0,1,.043-.13c.026-.086.061-.173.1-.259a9.876,9.876,0,0,1,2.3-3.563,22.819,22.819,0,0,0-3.252-1.885,2.671,2.671,0,0,1-.381-.208c-.078-.043-.156-.086-.225-.121-.173-.1-.337-.182-.484-.259-.052-.026-.1-.052-.147-.078a.066.066,0,0,1-.035-.017c-.216-.112-.467-.225-.778-.363h-.009c-.009,0-.017-.009-.026-.009L676.15,59.05l-.009-.009L674.014,57.9s-10.508.035-13.371,10.837a7.65,7.65,0,0,1,5.31-2.811s-5.016,3.537-6.028,8.761a8.907,8.907,0,0,1,4.766-2.586,31.707,31.707,0,0,0-3.633,5.051c-3.027,6.426-.623,9.791-.623,9.791s.234-.2.666-.519c.069-.052.138-.1.216-.156a29.282,29.282,0,0,1,3.719-2.3c.156-.086.311-.164.476-.242a23.466,23.466,0,0,1,3.8-1.5c.2-.061.4-.121.6-.173.225-.061.441-.112.666-.164.182-.043.372-.086.562-.121a17.1,17.1,0,0,1,1.92-.285h.009c.19-.017.389-.035.588-.043.355-.017.735-.026,1.116-.026a27.943,27.943,0,0,1,13.587,3.953c.043.017.086.043.13.061s.078.035.121.052c.009.009.026.009.035.017l.13.052c.086.035.173.061.26.086.035.009.078.026.112.035.052.017.112.026.164.043s.1.017.147.026l.182.026h.035c.026,0,.043.009.069.009a.656.656,0,0,0,.13.009h.432Z" transform="translate(-604.029 -56.23)" fill="url(#linear-gradient-5)"/>
        <path id="Path_334" data-name="Path 334" d="M181.127,42.219c-1.687,1.064-4.264,3.572-4.541,9.393-.208,4.446-1.764,7.049-3.2,8.511a7.186,7.186,0,0,0-1.816,7.083c.069.225.112.355.112.355a3.925,3.925,0,0,1-2.154-2.18c-.242,2.794,2.586,6.6,2.586,6.6a28.869,28.869,0,0,1-12.385.839s1.012-1.444,1.522-5.207a3.9,3.9,0,0,0-3.468.432c1.271-7.412-5.942-11.287-11.9-7.23L139.5,64.965h0a22.967,22.967,0,0,1,1.185-3.486c1.514-3.382,5.189-5.57,5.734-6.054a14.484,14.484,0,0,0-6.53,3.676.008.008,0,0,1,.009-.009c.087-.164.173-.32.251-.493.017-.026.026-.052.043-.078a28.648,28.648,0,0,1,7.723-9.349,35.257,35.257,0,0,1,17.021-7.265c5.293-.7,10.725-.216,16.173.3C181.119,42.219,181.119,42.219,181.127,42.219Z" transform="translate(-128.976 -41.302)" fill="url(#linear-gradient-6)"/>
        <path id="Path_335" data-name="Path 335" d="M185.138,42.245c-.147,0-12.264.009-20.775,3.4a11.689,11.689,0,0,0-4.826,3.226,5.067,5.067,0,0,1,.657-1.834q-9.029,2.3-16.295,12.1a.008.008,0,0,1,.009-.009c.458-.856.925-1.7,1.41-2.525.009-.009.009-.026.017-.035a28.334,28.334,0,0,1,6.59-7.36,35.252,35.252,0,0,1,17.03-7.274c5.293-.7,10.725-.208,16.182.311Z" transform="translate(-132.995 -41.328)" fill-rule="evenodd" fill="url(#linear-gradient-7)"/>
        <path id="Path_336" data-name="Path 336" d="M701.846,295.475a1.406,1.406,0,0,1-.147.1q-.143.091-.259.182c-.017.017-.043.026-.061.043l-.182.121c-.026.017-.043.026-.069.043a.045.045,0,0,1-.035.017,2.2,2.2,0,0,1-.5.234.485.485,0,0,0-.1.035c-.035.009-.061.017-.1.026h-.009l-.156.026h-.026c-.043.009-.1.009-.138.017h-.432a1.3,1.3,0,0,1-.19-.017H699.4c-.061-.009-.13-.017-.182-.026l-.147-.026a1.154,1.154,0,0,1-.164-.043.56.56,0,0,1-.112-.035c-.086-.026-.173-.052-.259-.086l-.13-.052c-.009-.009-.026-.009-.034-.017-.043-.017-.087-.035-.121-.052s-.087-.043-.13-.061a27.968,27.968,0,0,0-13.587-3.953c-.381,0-.761,0-1.116.026-.2.009-.4.026-.588.043h-.009a17.717,17.717,0,0,0-1.92.285c-.19.035-.372.078-.562.121-.225.052-.45.1-.666.164-.2.052-.4.112-.6.173a25.537,25.537,0,0,0-3.8,1.5c-.164.078-.32.156-.476.242a29.287,29.287,0,0,0-3.719,2.3c-.078.052-.147.1-.216.156-.432.32-.666.519-.666.519.035-.112.069-.225.112-.329s.069-.182.112-.277a6.6,6.6,0,0,1,.32-.657c.035-.069.078-.147.121-.216s.1-.156.138-.234c.026-.043.061-.1.087-.138s.078-.112.112-.164a.086.086,0,0,1,.035-.043c.052-.078.112-.156.173-.234.009-.009.009-.017.017-.026.061-.086.13-.173.2-.259s.138-.182.216-.268l.182-.208c.1-.112.2-.216.3-.329.078-.078.147-.156.225-.234s.164-.164.251-.242.173-.164.259-.242.182-.156.268-.234c.078-.061.147-.13.225-.19.4-.337.813-.649,1.245-.96.086-.061.173-.121.251-.173.1-.069.2-.138.3-.208.3-.2.614-.4.917-.579l.311-.182.311-.182c.1-.061.208-.121.311-.173.311-.173.614-.337.917-.493.026-.017.052-.026.078-.043a14.546,14.546,0,0,1,14.279.605,32.853,32.853,0,0,1,2.949,2.093c1.228.977,3.088,2.171,4.541,1.721h.009a2.167,2.167,0,0,0,.251-.1,2.044,2.044,0,0,0,.605-.441,2.147,2.147,0,0,0,.32-.4,1.519,1.519,0,0,0,.1-.156.066.066,0,0,1-.017.043c-.017.078-.035.156-.052.225a1.065,1.065,0,0,0-.017.164v.035a2.108,2.108,0,0,0,0,.381.66.66,0,0,0,.026.182v.017a1.272,1.272,0,0,0,.043.173v.009a.765.765,0,0,0,.043.13.192.192,0,0,0,.043.1,2.089,2.089,0,0,0,.156.311,1.133,1.133,0,0,0,.087.13.15.15,0,0,0,.035.043.92.92,0,0,0,.078.1c.009.017.026.026.035.043A.389.389,0,0,1,701.846,295.475Z" transform="translate(-613.776 -266.778)" fill-rule="evenodd" fill="url(#linear-gradient-8)"/>
        <path id="Path_337" data-name="Path 337" d="M920.981,133.645l-.943-3.806a1.449,1.449,0,0,1,.017-.77,12.329,12.329,0,0,0-3.14-11.2,1.07,1.07,0,0,1-1.392.277c-.026-.026-.061-.043-.087-.069s-.035-.026-.043-.052c-.009-.009-.017-.017-.017-.026a.181.181,0,0,1-.035-.052c0-.009-.009-.009-.009-.017a.032.032,0,0,1-.009-.026c-.017-.043-.043-.086-.069-.138h0a1.128,1.128,0,0,1-.112-.631c.579-3.961-3.192-3.615-4.844.934a59.453,59.453,0,0,0-2.387,6.245h0a8.93,8.93,0,0,0-.277,1.643c-.1,1.86,1.142,2.776,2.067,1.8a25.149,25.149,0,0,1,3.373-3.546c3.555-2.5,7.542,1.678,5.008,4.126-1.453,1.4,1.479,5.354,2.292,5.9a.455.455,0,0,0,.519.043C920.99,134.181,921.033,133.991,920.981,133.645Z" transform="translate(-830.671 -107.836)" fill="url(#linear-gradient-9)"/>
        <path id="Path_338" data-name="Path 338" d="M917.2,102.123h0a.863.863,0,0,1-.1.086,2.028,2.028,0,0,1-.234.173c-.009.009-.017.009-.035.017a.066.066,0,0,1-.035.017c-.009.009-.017.009-.026.017s-.026.009-.035.017h-.009a.274.274,0,0,1-.078.026.761.761,0,0,1-.13.043h0a.147.147,0,0,1-.061.009h-.052c-.017,0-.035.009-.052.009a.751.751,0,0,1-.2-.009.307.307,0,0,1-.086-.017.486.486,0,0,1-.1-.035.351.351,0,0,1-.078-.043.008.008,0,0,1-.009-.009c-.026-.017-.052-.026-.078-.043-.009-.009-.017-.009-.026-.017a.373.373,0,0,1-.06-.052l-.026-.026c-.009-.009-.009-.017-.017-.017s-.017-.017-.017-.026a.182.182,0,0,1-.035-.052v-.009l-.009-.009a.008.008,0,0,0-.009-.009c-.009-.017-.017-.026-.026-.043h0a.376.376,0,0,1-.035-.061.066.066,0,0,0-.017-.035v-.009h0a1.128,1.128,0,0,1-.112-.631c.579-3.961-3.191-3.615-4.843.934a.027.027,0,0,1-.009.017c-.026.061-.052.121-.086.2-.311.675-.96,1.877-1.687,1.937h-.009a.658.658,0,0,1-.311-.052c-.579-.234-.605-.882-.424-1.522v-.009a.765.765,0,0,1,.043-.13c.026-.086.061-.173.1-.259a9.876,9.876,0,0,1,2.3-3.563C910.495,98.949,916.367,93.292,917.2,102.123Z" transform="translate(-830.961 -92.098)" fill-rule="evenodd" fill="url(#linear-gradient-10)"/>
      </g>
    </g>
    <text id="Koupon_Panda" data-name="Koupon Panda" transform="translate(157 3569)" fill="#fff" font-size="12" font-family="Nunito-Black, Nunito" font-weight="800" letter-spacing="0.05em"><tspan x="-45.324" y="0">Koupon Panda</tspan></text>
  </g>
</svg>
