<svg xmlns="http://www.w3.org/2000/svg" xmlns:xlink="http://www.w3.org/1999/xlink" width="221.694" height="34.754" viewBox="0 0 221.694 34.754">
  <defs>
    <linearGradient id="linear-gradient" y1="0.497" x2="1" y2="0.497" gradientUnits="objectBoundingBox">
      <stop offset="0" stop-color="#fff"/>
      <stop offset="0.484" stop-color="#c5d4eb"/>
      <stop offset="1" stop-color="#83a4d4"/>
    </linearGradient>
    <linearGradient id="linear-gradient-2" x1="0.978" y1="1.535" x2="-2.777" y2="-6.161" gradientUnits="objectBoundingBox">
      <stop offset="0" stop-color="#6859ea"/>
      <stop offset="1" stop-color="#6acbe0"/>
    </linearGradient>
    <linearGradient id="linear-gradient-3" x1="0" y1="0.5" x2="1" y2="0.5" xlink:href="#linear-gradient-2"/>
    <linearGradient id="linear-gradient-4" x1="1.372" y1="2.298" x2="-1.153" y2="-2.706" xlink:href="#linear-gradient-2"/>
    <linearGradient id="linear-gradient-5" x1="1.16" y1="0.528" x2="-0.506" y2="0.476" xlink:href="#linear-gradient"/>
    <linearGradient id="linear-gradient-6" y1="0.5" x2="1" y2="0.5" gradientUnits="objectBoundingBox">
      <stop offset="0" stop-color="#83a4d4"/>
      <stop offset="0.516" stop-color="#c5d4eb"/>
      <stop offset="1" stop-color="#fff"/>
    </linearGradient>
    <linearGradient id="linear-gradient-7" x1="0" y1="0.5" x2="1" y2="0.5" xlink:href="#linear-gradient"/>
    <linearGradient id="linear-gradient-8" x1="0" y1="0.497" x2="1" y2="0.497" xlink:href="#linear-gradient-6"/>
    <linearGradient id="linear-gradient-9" x1="0.33" y1="0.019" x2="0.792" y2="1.797" xlink:href="#linear-gradient"/>
    <linearGradient id="linear-gradient-10" x1="1.246" y1="2.371" x2="0.017" y2="-0.438" xlink:href="#linear-gradient-2"/>
  </defs>
  <g id="Group_181" data-name="Group 181" transform="translate(0.333)">
    <text id="Head." transform="translate(-0.333 24.333)" fill="#fff" font-size="22" font-family="Nunito-Black, Nunito" font-weight="800" letter-spacing="-0.01em"><tspan x="0" y="0">Koupon Panda</tspan></text>
    <text id="Save_More_Buy_Smarter" data-name="Save More, Buy Smarter" transform="translate(104.667 32.333)" fill="#fff" font-size="7" font-family="Nunito-Light, Nunito" font-weight="300" letter-spacing="0.1em"><tspan x="-44.639" y="0">Save More, Buy Smarter</tspan></text>
    <g id="log-rgb" transform="translate(160.667)">
      <g id="Group_177" data-name="Group 177" transform="translate(0 0)">
        <path id="Path_329" data-name="Path 329" d="M691.463,283.169a.943.943,0,0,1-.1.064q-.1.061-.174.122c-.012.012-.029.017-.041.029l-.122.081-.047.029a.03.03,0,0,1-.023.012,1.482,1.482,0,0,1-.337.157.328.328,0,0,0-.07.023c-.023.006-.041.012-.07.017h-.006l-.1.017h-.017c-.029.006-.064.006-.093.012h-.291a.867.867,0,0,1-.128-.012h-.023l-.122-.017-.1-.017a.773.773,0,0,1-.11-.029.375.375,0,0,1-.076-.023c-.058-.017-.116-.035-.174-.058l-.087-.035c-.006-.006-.017-.006-.023-.012-.029-.012-.058-.023-.081-.035s-.058-.029-.087-.041a18.791,18.791,0,0,0-9.129-2.656c-.256,0-.511,0-.75.017-.134.006-.267.017-.4.029h-.006a11.908,11.908,0,0,0-1.29.192c-.128.023-.25.052-.378.081-.151.035-.3.07-.447.11s-.267.076-.4.116a17.153,17.153,0,0,0-2.551,1.011c-.11.052-.215.1-.32.163a19.674,19.674,0,0,0-2.5,1.546c-.052.035-.1.07-.145.1-.291.215-.448.349-.448.349.023-.076.047-.151.076-.221s.047-.122.076-.186a4.415,4.415,0,0,1,.215-.442c.023-.046.052-.1.081-.145s.064-.1.093-.157c.017-.029.041-.064.058-.093l.076-.11a.058.058,0,0,1,.023-.029c.035-.052.076-.1.116-.157.006-.006.006-.012.012-.017.041-.058.087-.116.134-.174s.093-.122.145-.18l.122-.139c.064-.076.134-.145.2-.221.052-.052.1-.1.151-.157s.11-.11.169-.163.116-.11.174-.163.122-.1.18-.157.1-.087.151-.128c.267-.227.546-.436.837-.645.058-.041.116-.081.169-.116.07-.046.134-.093.2-.139.2-.134.413-.267.616-.389l.209-.122.209-.122c.07-.041.139-.081.209-.116.209-.116.413-.227.616-.331.017-.012.035-.017.052-.029a25.971,25.971,0,0,1,3.626-1.517c1.894-.75,5.358,1.2,7.95,3.33.814.668,2.075,1.464,3.051,1.156h.006a1.449,1.449,0,0,0,.169-.064,1.373,1.373,0,0,0,.407-.3,1.441,1.441,0,0,0,.215-.267,1.01,1.01,0,0,0,.064-.1.044.044,0,0,1-.012.029c-.012.052-.023.1-.035.151a.706.706,0,0,0-.012.11v.023a1.412,1.412,0,0,0,0,.256.441.441,0,0,0,.017.122v.012a.844.844,0,0,0,.029.116v.006a.507.507,0,0,0,.029.087.129.129,0,0,0,.029.064,1.4,1.4,0,0,0,.1.209.756.756,0,0,0,.058.087.1.1,0,0,0,.023.029.619.619,0,0,0,.052.064c.006.012.017.017.023.029A.261.261,0,0,1,691.463,283.169Z" transform="translate(-632.289 -263.887)" fill-rule="evenodd" fill="url(#linear-gradient)"/>
        <path id="Path_330" data-name="Path 330" d="M1007.308,324.405s.145.883-1.511,1.825l-1.7-.686,1.383-2.144,1.313.267Z" transform="translate(-946.785 -306.849)" fill="url(#linear-gradient-2)"/>
        <path id="Path_331" data-name="Path 331" d="M72.8,69.742a.936.936,0,0,1-.4.785.951.951,0,0,1-1.1-.18,2.919,2.919,0,0,0,.325-.221,2.24,2.24,0,0,0,.384-.418.757.757,0,0,0,.11-.227.739.739,0,0,1-.18.163,2.167,2.167,0,0,1-.465.227,1.74,1.74,0,0,1-.477.093.284.284,0,0,1-.076-.006.369.369,0,0,1-.041-.012l-.07-.012v.035q-.166-.139-.331-.3a3.85,3.85,0,0,0,.488-.279,2.341,2.341,0,0,0,.506-.465.93.93,0,0,0,.151-.267.984.984,0,0,1-.215.2,2.212,2.212,0,0,1-.575.267,3.136,3.136,0,0,1-.61.122c-.076.006-.122.006-.169.006-.174-.186-.349-.378-.506-.581a3.069,3.069,0,0,0,.674-.36,1.913,1.913,0,0,0,.552-.552.669.669,0,0,0,.087-.238c.006-.058.006-.093.006-.093s-.012.029-.029.087a.772.772,0,0,1-.134.192,1.824,1.824,0,0,1-.616.349,2.655,2.655,0,0,1-.68.145c-.046,0-.093.006-.122.006H69.2a9.237,9.237,0,0,1-.8-1.424,3.164,3.164,0,0,1,.064-.994c.017-.093.046-.18.07-.273a2.616,2.616,0,0,1,.093-.256,2.156,2.156,0,0,1,.11-.232,1.694,1.694,0,0,1,.116-.2,2.223,2.223,0,0,1,.2-.291c.046-.058.076-.1.081-.1s-.041.035-.1.087a3.218,3.218,0,0,0-.256.25c-.052.058-.1.116-.157.186a2.135,2.135,0,0,0-.157.221c-.046.081-.1.163-.151.25s-.093.18-.134.273a3.581,3.581,0,0,0-.279,1.081,9.281,9.281,0,0,1-8.13-3.086,1.391,1.391,0,0,1,.076-.122,3.252,3.252,0,0,1,.325-.436,6.059,6.059,0,0,1,1.046-.941c.418-.314.9-.622,1.366-.97a6.2,6.2,0,0,0,.657-.575,5.437,5.437,0,0,0,.54-.639,6.32,6.32,0,0,0,.715-1.29,5.789,5.789,0,0,0,.3-.994c.041-.215.058-.349.064-.384-.006.029-.035.163-.093.372a5.291,5.291,0,0,1-.36.959,5.676,5.676,0,0,1-.785,1.209,5.248,5.248,0,0,1-.564.575,6.342,6.342,0,0,1-.657.506c-.465.308-.965.587-1.418.883a10.029,10.029,0,0,0-.936.7c-.169.134-.68.657-.726.709a7.855,7.855,0,0,0-1.778,5.149A2.488,2.488,0,0,0,58,69.945c-.139.035-.291.076-.436.116a6.4,6.4,0,0,0-.854.314,3.047,3.047,0,0,0-.36.2c.017-.006.169-.058.389-.11a5.81,5.81,0,0,1,.877-.11,6.646,6.646,0,0,1,1.127.029c.36.035.721.128,1.081.163.523.058,1.156.139,1.424.662a1.122,1.122,0,0,1-.291,1.319,1.848,1.848,0,0,1-.54.343,5.026,5.026,0,0,0-.11-.633,1.844,1.844,0,0,0-.064-.221.72.72,0,0,0-.122-.192.88.88,0,0,0-.291-.25.587.587,0,0,0-.25-.081c-.058-.006-.093-.006-.093-.006a.587.587,0,0,1,.273.18.784.784,0,0,1,.157.273.869.869,0,0,1,.035.169,1.656,1.656,0,0,1,.012.18,6.566,6.566,0,0,1-.052.738,5.609,5.609,0,0,1-.628.076V73.06a2.121,2.121,0,0,0-.221-.692,1.52,1.52,0,0,0-.436-.546.676.676,0,0,0-.2-.1l-.081-.017.07.041a.73.73,0,0,1,.145.151,1.434,1.434,0,0,1,.215.575,1.677,1.677,0,0,1,0,.593l-.017.07c-1.767.046-3.719,0-4.98-1.232a5.907,5.907,0,0,1-1.04-1.534,19.526,19.526,0,0,1-1.894-11.71c.139-.7.343-1.65.575-2.6a10.854,10.854,0,0,1,.895-2.231,7.138,7.138,0,0,1,.546-.895c.128-.192.314-.459.314-.459a1.775,1.775,0,0,0-.506.389,4.261,4.261,0,0,0-.7.947,12.452,12.452,0,0,0-.959,2.2c-.506,1.534-.8,3.057-.924,3.5a6.7,6.7,0,0,1-2.133,1.528,16.311,16.311,0,0,1-7.322,1.04C40,62.054,39.383,62,38.8,61.943s-1.127-.128-1.586-.2-.848-.139-1.116-.186c-.238-.041-.384-.07-.418-.076.035.006.18.041.413.1.267.064.645.163,1.11.25s1,.2,1.581.3,1.2.18,1.831.244a34.273,34.273,0,0,0,3.458.2c.192,0,.36,0,.529-.006A18.5,18.5,0,0,1,44.3,69c-.3.076-.657.169-1.005.273a10.394,10.394,0,0,0-1.238.43,3,3,0,0,0-.384.209c-.058.052-.1.087-.116.1l.128-.081a2.3,2.3,0,0,1,.4-.139,9.677,9.677,0,0,1,1.267-.227c.628-.081,1.249-.128,1.6-.151a3.285,3.285,0,0,1,1.313.5,2.186,2.186,0,0,1,.18.145,1.046,1.046,0,0,1,.139,1.424,1.914,1.914,0,0,0-.418-.628,2.267,2.267,0,0,0-.349-.285,2.966,2.966,0,0,0-.331-.192,1.751,1.751,0,0,0-.337-.139,2.356,2.356,0,0,1,.285.221,2.665,2.665,0,0,1,.262.256,2.007,2.007,0,0,1,.238.331,1.548,1.548,0,0,1,.151.354,1.141,1.141,0,0,1,.052.32v.116a1.215,1.215,0,0,1-.3.081c-.1.012-.209.017-.32.029a.741.741,0,0,0-.006-.11,1.077,1.077,0,0,0-.157-.43,1.568,1.568,0,0,0-.145-.2,2.3,2.3,0,0,0-.169-.169,4.62,4.62,0,0,0-1.005-.622c.017.017.128.1.273.238a4.014,4.014,0,0,1,.517.581,1.27,1.27,0,0,1,.1.169.84.84,0,0,1,.064.169.687.687,0,0,1,.023.279.428.428,0,0,1-.046.139,53.49,53.49,0,0,1-5.625.232,1.6,1.6,0,0,1-.552-.07c-.616-.232-.732-1.034-.8-1.691A11.187,11.187,0,0,0,34,63.152c.081-.1.169-.215.262-.337a16.442,16.442,0,0,0,1.5-2.4,15.045,15.045,0,0,0,.628-1.371c.093-.221.169-.442.244-.645s.139-.4.2-.587c.116-.366.2-.674.244-.889.041-.169.07-.279.081-.32-.012.041-.052.151-.1.314-.064.209-.169.511-.308.866-.064.18-.145.366-.238.569s-.18.413-.285.622c-.209.424-.447.872-.715,1.3A15.827,15.827,0,0,1,33.874,62.5a6.5,6.5,0,0,1-.645.622c-3.033,2.516-6.166,5.085-9.2,7.607a.382.382,0,0,0-.1.134,6.306,6.306,0,0,0-.593-.232,4.142,4.142,0,0,0-.941-.2,2.775,2.775,0,0,0-.314,0c-.076.006-.116.006-.116.006l.116.017a1.769,1.769,0,0,1,.3.07,3.789,3.789,0,0,1,.837.372,5.272,5.272,0,0,1,.744.529c.122.1.2.174.256.221a.825.825,0,0,1,.157.517,1.225,1.225,0,0,1-.628.924,2.415,2.415,0,0,0-.262-.779,2.226,2.226,0,0,0-.535-.651,1.851,1.851,0,0,0-.3-.209,2.23,2.23,0,0,1,.238.273,2.042,2.042,0,0,1,.325.7,1.917,1.917,0,0,1,.046.732.7.7,0,0,1-.023.134,3.561,3.561,0,0,1-1.139.029,2.668,2.668,0,0,0,.023-.436,1.945,1.945,0,0,0-.064-.459,1.379,1.379,0,0,0-.145-.372,1.061,1.061,0,0,0-.227-.3,1.226,1.226,0,0,1,.139.337,1.366,1.366,0,0,1,.041.36,1.941,1.941,0,0,1-.046.407,2.858,2.858,0,0,1-.134.413l-1.662-.209a1.952,1.952,0,0,1-1.11-.384,1.832,1.832,0,0,1-.453-.947,22.687,22.687,0,0,1-.616-3.789,1.863,1.863,0,0,1,.087-.912,2.325,2.325,0,0,1,.941-.843,9.242,9.242,0,0,0,3.522-5.439c.6-2.127.8-4.347,1.366-6.479a19.965,19.965,0,0,1,1.395-3.7.006.006,0,0,1,.006-.006c.058-.11.11-.221.169-.331.012-.017.017-.035.029-.052.232-.447.482-.889.75-1.313.006-.006.006-.017.012-.023a19.038,19.038,0,0,1,4.428-4.945A23.64,23.64,0,0,1,41.98,39a48.331,48.331,0,0,1,10.867.2h.006c.471.046.936.093,1.406.134a11.489,11.489,0,0,0,3.4-.029,14.2,14.2,0,0,1,2.58-.715,11.136,11.136,0,0,1,4.608,1.1,9.614,9.614,0,0,0-8.984,7.281,5.14,5.14,0,0,1,3.568-1.889s-3.37,2.377-4.05,5.887a6.036,6.036,0,0,1,3.2-1.743,21.3,21.3,0,0,0-2.441,3.394c-2.034,4.318-.418,6.578-.418,6.578a17.36,17.36,0,0,1,2.481-1.679,15.332,15.332,0,0,1,5.986-2H64.2c.267-.023.552-.035.848-.041h.3c.1,0,.2,0,.3.006.761.628,1.65,3.376,1.825,3.7a9.341,9.341,0,0,0,1.906,2.075A6.534,6.534,0,0,1,71.4,64.57a22.178,22.178,0,0,0,.325,2.243C72.024,67.824,72.82,68.661,72.8,69.742Z" transform="translate(-17.819 -38.594)" fill="url(#linear-gradient-3)"/>
        <path id="Path_332" data-name="Path 332" d="M952.95,226.83a1.782,1.782,0,0,0-1.767.814c-.581.709-1.371.163-1.395-.883-.041-1.964,1.755-3.527,3.347-3.068C955.025,224.226,955.118,226.76,952.95,226.83Z" transform="translate(-895.63 -212.859)" fill="url(#linear-gradient-4)"/>
        <path id="Path_333" data-name="Path 333" d="M680.413,70.551h0a2.056,2.056,0,0,1-.854.2,2.128,2.128,0,0,0-1.22.267h0a2.938,2.938,0,0,0-.54.54.873.873,0,0,1-.349.273h0c-.506.209-1.029-.314-1.046-1.162a3.22,3.22,0,0,1,1.482-2.76l.006-.006a2.293,2.293,0,0,1,1.854-.308C681.337,68.058,681.657,69.935,680.413,70.551Zm-.093,6.055.1-.017h.006l.07-.017a.327.327,0,0,0,.07-.023,1.189,1.189,0,0,0,.337-.157.03.03,0,0,0,.023-.012l.047-.029.122-.081a.177.177,0,0,0,.041-.029l.076-.052.1-.07a.579.579,0,0,1,.1-.064h0a.617.617,0,0,1-.087-.087.129.129,0,0,0-.023-.029.006.006,0,0,1-.006-.006.4.4,0,0,1-.047-.058.1.1,0,0,0-.023-.029.751.751,0,0,1-.058-.087c-.017-.029-.035-.058-.052-.093a.125.125,0,0,0-.017-.029c-.012-.029-.029-.058-.041-.087s-.017-.041-.029-.064a.512.512,0,0,1-.029-.087v-.006c-.012-.035-.017-.076-.029-.116v-.012l-.017-.122c0-.041-.006-.087-.006-.128v-.151a.714.714,0,0,1,.012-.11c.006-.046.023-.093.029-.145V74.6a.044.044,0,0,1,.012-.029l.035-.1a.647.647,0,0,1,.041-.093.932.932,0,0,1,.058-.1.712.712,0,0,1,.07-.11c.151-.209.285-.308.418-.308a.437.437,0,0,1,.3.192,2.009,2.009,0,0,0,.564.465.363.363,0,0,1,.035.023.9.9,0,0,0,.2.052h.012a.381.381,0,0,0,.116-.041.325.325,0,0,0,.058-.087.685.685,0,0,0,.017-.232h0a.649.649,0,0,0-.012-.1l-.633-2.557a.9.9,0,0,1-.023-.122v-.006a.7.7,0,0,1-.006-.11.519.519,0,0,1,.012-.134,1.181,1.181,0,0,1,.029-.139,8.284,8.284,0,0,0-2.109-7.525.579.579,0,0,1-.064.058,1.362,1.362,0,0,1-.157.116c-.006.006-.012.006-.023.012a.044.044,0,0,1-.023.012c-.006.006-.012.006-.017.012s-.017.006-.023.012h-.006a.184.184,0,0,1-.052.017.511.511,0,0,1-.087.029h0a.1.1,0,0,1-.041.006c-.012,0-.023.006-.035.006s-.023.006-.035.006a.5.5,0,0,1-.134-.006.207.207,0,0,1-.058-.012.328.328,0,0,1-.07-.023.234.234,0,0,1-.052-.029.006.006,0,0,1-.006-.006c-.017-.012-.035-.017-.052-.029s-.012-.006-.017-.012a.256.256,0,0,1-.041-.035l-.017-.017c-.006-.006-.006-.012-.012-.012s-.012-.012-.012-.017a.12.12,0,0,1-.023-.035v-.006l-.006-.006a.006.006,0,0,0-.006-.006c-.006-.012-.012-.017-.017-.029h0a.253.253,0,0,1-.023-.041.044.044,0,0,0-.012-.023v-.006h0a.758.758,0,0,1-.076-.424c.389-2.662-2.144-2.429-3.254.628a.018.018,0,0,1-.006.012c-.017.041-.035.081-.058.134-.215.447-.68,1.244-1.133,1.3h-.006a.443.443,0,0,1-.209-.035c-.378-.174-.4-.6-.285-1.023v-.006a.507.507,0,0,1,.029-.087c.017-.058.041-.116.064-.174a6.636,6.636,0,0,1,1.546-2.394,15.324,15.324,0,0,0-2.185-1.267,1.8,1.8,0,0,1-.256-.139c-.052-.029-.1-.058-.151-.081-.116-.064-.227-.122-.325-.174-.035-.017-.07-.035-.1-.052a.044.044,0,0,1-.023-.012c-.145-.076-.314-.151-.523-.244H672.1c-.006,0-.012-.006-.017-.006l-1.389-.744-.006-.006-1.43-.767a9.614,9.614,0,0,0-8.984,7.281,5.14,5.14,0,0,1,3.568-1.889s-3.37,2.377-4.05,5.887a5.985,5.985,0,0,1,3.2-1.738,21.3,21.3,0,0,0-2.441,3.394c-2.034,4.318-.418,6.578-.418,6.578s.157-.134.447-.349c.047-.035.093-.07.145-.1a19.671,19.671,0,0,1,2.5-1.546c.1-.058.209-.11.32-.163a15.768,15.768,0,0,1,2.551-1.011c.134-.041.267-.081.4-.116.151-.041.3-.076.447-.11.122-.029.25-.058.378-.081a11.488,11.488,0,0,1,1.29-.192h.006c.128-.012.262-.023.4-.029.238-.012.494-.017.75-.017A18.775,18.775,0,0,1,678.9,76.35c.029.012.058.029.087.041l.081.035c.006.006.017.006.023.012l.087.035c.058.023.116.041.174.058.023.006.052.017.076.023s.076.017.11.029l.1.017.122.017h.023c.017,0,.029.006.047.006a.44.44,0,0,0,.087.006h.291Z" transform="translate(-622.239 -56.778)" fill="url(#linear-gradient-5)"/>
        <path id="Path_334" data-name="Path 334" d="M167.469,42c-1.133.715-2.865,2.4-3.051,6.311a8.4,8.4,0,0,1-2.15,5.718,4.828,4.828,0,0,0-1.22,4.759c.046.151.076.238.076.238a2.637,2.637,0,0,1-1.447-1.464c-.163,1.877,1.738,4.434,1.738,4.434a19.4,19.4,0,0,1-8.322.564,8.631,8.631,0,0,0,1.023-3.5,2.621,2.621,0,0,0-2.33.291c.854-4.98-3.992-7.584-8-4.858L139.5,57.285h0a15.432,15.432,0,0,1,.8-2.342c1.017-2.272,3.487-3.742,3.853-4.068a9.731,9.731,0,0,0-4.387,2.47.006.006,0,0,1,.006-.006c.058-.11.116-.215.169-.331.012-.017.017-.035.029-.052a19.249,19.249,0,0,1,5.189-6.282,23.689,23.689,0,0,1,11.436-4.881,48.331,48.331,0,0,1,10.867.2C167.463,42,167.463,42,167.469,42Z" transform="translate(-132.429 -41.386)" fill="url(#linear-gradient-6)"/>
        <path id="Path_335" data-name="Path 335" d="M171.608,42.029c-.1,0-8.24.006-13.958,2.284a7.854,7.854,0,0,0-3.243,2.168,3.4,3.4,0,0,1,.442-1.232q-6.067,1.543-10.948,8.13a.006.006,0,0,1,.006-.006c.308-.575.622-1.139.947-1.7.006-.006.006-.017.012-.023a19.038,19.038,0,0,1,4.428-4.945,23.686,23.686,0,0,1,11.442-4.887,48.393,48.393,0,0,1,10.873.209Z" transform="translate(-136.573 -41.413)" fill-rule="evenodd" fill="url(#linear-gradient-7)"/>
        <path id="Path_336" data-name="Path 336" d="M691.463,293.148a.938.938,0,0,1-.1.064q-.1.061-.174.122c-.012.012-.029.017-.041.029l-.122.081-.047.029a.03.03,0,0,1-.023.012,1.481,1.481,0,0,1-.337.157.327.327,0,0,0-.07.023c-.023.006-.041.012-.07.017h-.006l-.1.017h-.017c-.029.006-.064.006-.093.012h-.291a.867.867,0,0,1-.128-.012h-.023l-.122-.017-.1-.017a.781.781,0,0,1-.11-.029.377.377,0,0,1-.076-.023c-.058-.017-.116-.035-.174-.058l-.087-.035c-.006-.006-.017-.006-.023-.012-.029-.012-.058-.023-.081-.035s-.058-.029-.087-.041a18.792,18.792,0,0,0-9.129-2.656c-.256,0-.511,0-.75.017-.134.006-.267.017-.4.029h-.006a11.9,11.9,0,0,0-1.29.192c-.128.023-.25.052-.378.081-.151.035-.3.07-.447.11s-.267.076-.4.116a17.153,17.153,0,0,0-2.551,1.011c-.11.052-.215.1-.32.163a19.671,19.671,0,0,0-2.5,1.546c-.052.035-.1.07-.145.1-.291.215-.448.349-.448.349.023-.076.047-.151.076-.221s.047-.122.076-.186a4.415,4.415,0,0,1,.215-.442c.023-.046.052-.1.081-.145s.064-.1.093-.157c.017-.029.041-.064.058-.093l.076-.11a.058.058,0,0,1,.023-.029c.035-.052.076-.1.116-.157.006-.006.006-.012.012-.017.041-.058.087-.116.134-.174s.093-.122.145-.18l.122-.139c.064-.076.134-.145.2-.221.052-.052.1-.1.151-.157s.11-.11.169-.163.116-.11.174-.163.122-.1.18-.157.1-.087.151-.128c.267-.227.546-.436.837-.645.058-.041.116-.081.169-.116.07-.046.134-.093.2-.139.2-.134.413-.267.616-.389l.209-.122.209-.122c.07-.041.139-.081.209-.116.209-.116.413-.227.616-.331.017-.012.035-.017.052-.029a9.773,9.773,0,0,1,9.594.407,22.085,22.085,0,0,1,1.982,1.406c.825.657,2.075,1.459,3.051,1.156h.006a1.439,1.439,0,0,0,.168-.064,1.373,1.373,0,0,0,.407-.3,1.441,1.441,0,0,0,.215-.267,1.017,1.017,0,0,0,.064-.1.044.044,0,0,1-.012.029c-.012.052-.023.1-.035.151a.706.706,0,0,0-.012.11V292a1.412,1.412,0,0,0,0,.256.441.441,0,0,0,.017.122v.012a.844.844,0,0,0,.029.116v.006a.507.507,0,0,0,.029.087.129.129,0,0,0,.029.064,1.4,1.4,0,0,0,.1.209.759.759,0,0,0,.058.087.1.1,0,0,0,.023.029.616.616,0,0,0,.052.064c.006.012.017.017.023.029A.261.261,0,0,1,691.463,293.148Z" transform="translate(-632.289 -273.866)" fill-rule="evenodd" fill="url(#linear-gradient-8)"/>
        <path id="Path_337" data-name="Path 337" d="M916.6,127.328l-.633-2.557a.973.973,0,0,1,.012-.517,8.284,8.284,0,0,0-2.109-7.525.719.719,0,0,1-.936.186c-.017-.017-.041-.029-.058-.046s-.023-.017-.029-.035-.012-.012-.012-.017a.121.121,0,0,1-.023-.035c0-.006-.006-.006-.006-.012a.022.022,0,0,1-.006-.017c-.012-.029-.029-.058-.047-.093h0a.758.758,0,0,1-.076-.424c.389-2.662-2.144-2.429-3.254.628a39.937,39.937,0,0,0-1.6,4.2h0a6,6,0,0,0-.186,1.1c-.07,1.249.767,1.865,1.389,1.209a16.9,16.9,0,0,1,2.266-2.383c2.388-1.679,5.067,1.127,3.365,2.772-.976.941.994,3.6,1.54,3.963a.306.306,0,0,0,.349.029C916.606,127.688,916.635,127.56,916.6,127.328Z" transform="translate(-855.921 -109.987)" fill="url(#linear-gradient-9)"/>
        <path id="Path_338" data-name="Path 338" d="M914.163,100.5h0a.573.573,0,0,1-.064.058,1.356,1.356,0,0,1-.157.116c-.006.006-.012.006-.023.012a.044.044,0,0,1-.023.012c-.006.006-.012.006-.017.012s-.017.006-.023.012h-.006a.185.185,0,0,1-.052.017.511.511,0,0,1-.087.029h0a.1.1,0,0,1-.041.006h-.035c-.012,0-.023.006-.035.006a.5.5,0,0,1-.134-.006.206.206,0,0,1-.058-.012.328.328,0,0,1-.07-.023.236.236,0,0,1-.052-.029.006.006,0,0,1-.006-.006c-.017-.012-.035-.017-.052-.029s-.012-.006-.017-.012a.25.25,0,0,1-.041-.035l-.017-.017c-.006-.006-.006-.012-.012-.012s-.012-.012-.012-.017a.121.121,0,0,1-.023-.035v-.006l-.006-.006a.006.006,0,0,0-.006-.006c-.006-.012-.012-.017-.017-.029h0a.252.252,0,0,1-.023-.041.044.044,0,0,0-.012-.023v-.006h0a.758.758,0,0,1-.076-.424c.389-2.662-2.144-2.429-3.254.628a.018.018,0,0,1-.006.012c-.017.041-.035.081-.058.134-.209.453-.645,1.261-1.133,1.3h-.006a.442.442,0,0,1-.209-.035c-.389-.157-.407-.593-.285-1.023v-.006a.513.513,0,0,1,.029-.087c.017-.058.041-.116.064-.174a6.635,6.635,0,0,1,1.546-2.394C909.659,98.363,913.6,94.562,914.163,100.5Z" transform="translate(-856.221 -93.76)" fill-rule="evenodd" fill="url(#linear-gradient-10)"/>
      </g>
    </g>
  </g>
</svg>
