<svg xmlns="http://www.w3.org/2000/svg" width="116.175" height="34.938" viewBox="0 0 116.175 34.938"><defs><style>.a{fill:#fff;}</style></defs><g transform="translate(0)"><path class="a" d="M186.121,3.68h-.448V1.075a4.81,4.81,0,0,1,.651-.049c.684,0,1.057.3,1.057.852a.789.789,0,0,1-.517.773l.789,1.027h-.542l-.688-.925h-.294Zm0-1.3h.219c.357,0,.592-.154.592-.491,0-.3-.207-.475-.6-.475h-.2Zm.3,2.366a1.935,1.935,0,1,1,0,.008Zm0-4.311a2.7,2.7,0,1,1,0,.008Z" transform="translate(-147.771 -0.04)"/><path class="a" d="M30.424,0H4.514A4.514,4.514,0,0,0,0,4.514v25.91a4.514,4.514,0,0,0,4.514,4.514h25.91a4.514,4.514,0,0,0,4.514-4.514V4.514A4.514,4.514,0,0,0,30.424,0M26.066,16.456A6.362,6.362,0,0,0,19.7,22.818v6.476h-4.7v-7.08a10.434,10.434,0,0,1,10.42-10.422h.639Zm0-6.113h-.639a11.883,11.883,0,0,0-11.87,11.87v7.08H8.874V21.907A16.283,16.283,0,0,1,25.137,5.642h.931Z" transform="translate(0)"/><path class="a" d="M225.723,121.348a1.708,1.708,0,0,1-1.7,1.787,1.653,1.653,0,0,1-1.353-.627v.538h-.525V118.08h.525v2.11a1.653,1.653,0,0,1,1.353-.627,1.708,1.708,0,0,1,1.7,1.785Zm-.511,0a1.246,1.246,0,0,0-1.268-1.323,1.321,1.321,0,0,0,0,2.641,1.242,1.242,0,0,0,1.268-1.317Z" transform="translate(-178.342 -94.794)"/><path class="a" d="M243.376,130.575h-.592l.56-1.221L241.82,126h.592l1.219,2.717L244.873,126h.592Z" transform="translate(-194.133 -101.153)"/><path class="a" d="M274.064,124.442l-.515-1.173h-2.435l-.523,1.173H270l2.069-4.622h.5l2.069,4.622Zm-1.729-3.944-1.008,2.284h2.008Z" transform="translate(-216.756 -96.191)"/><path class="a" d="M300.573,121.348a1.708,1.708,0,0,1-1.7,1.787,1.647,1.647,0,0,1-1.351-.627v.538H297V118.08h.525v2.11a1.647,1.647,0,0,1,1.351-.627,1.708,1.708,0,0,1,1.7,1.785Zm-.511,0a1.246,1.246,0,0,0-1.268-1.323,1.321,1.321,0,0,0,0,2.641,1.242,1.242,0,0,0,1.268-1.317Z" transform="translate(-238.431 -94.794)"/><path class="a" d="M321.743,123.046h-.525v-.538a1.651,1.651,0,0,1-1.351.627,1.789,1.789,0,0,1,0-3.571,1.651,1.651,0,0,1,1.351.627v-2.11h.525Zm-.525-1.7a1.282,1.282,0,0,0-1.268-1.323,1.321,1.321,0,0,0,0,2.641,1.28,1.28,0,0,0,1.268-1.317Z" transform="translate(-255.436 -94.794)"/><path class="a" d="M345.149,129.4h-.53v-.552a1.479,1.479,0,0,1-1.284.643,1.336,1.336,0,0,1-1.365-1.449V126h.53v1.937a.943.943,0,0,0,.937,1.055c.712,0,1.183-.475,1.183-1.359V126h.53Z" transform="translate(-274.533 -101.153)"/><path class="a" d="M364.2,123.046V118.08h.525v4.966Z" transform="translate(-292.379 -94.794)"/><path class="a" d="M385.011,124.442H381.82V119.82h.544v4.125h2.646Z" transform="translate(-306.525 -96.191)"/><path class="a" d="M404.158,129.079h-.529v-.538a1.653,1.653,0,0,1-1.353.627,1.789,1.789,0,0,1,0-3.571,1.653,1.653,0,0,1,1.353.627v-.548h.525Zm-.529-1.7a1.282,1.282,0,0,0-1.27-1.323,1.321,1.321,0,0,0,0,2.641,1.28,1.28,0,0,0,1.27-1.317Z" transform="translate(-321.594 -100.828)"/><path class="a" d="M424.39,124.809a1.29,1.29,0,0,1-.789.268,1.042,1.042,0,0,1-1.124-1.152v-1.9h-.738v-.444h.738V120.5h.53v1.085h1.215v.44h-1.215v1.864a.609.609,0,0,0,.627.688,1.039,1.039,0,0,0,.58-.207Z" transform="translate(-338.572 -96.737)"/><path class="a" d="M439.114,119.371a.351.351,0,0,1-.365.353.347.347,0,0,1-.359-.353.355.355,0,0,1,.359-.351.361.361,0,0,1,.365.351Zm-.627,4.429v-3.4h.53v3.4Z" transform="translate(-351.939 -95.549)"/><path class="a" d="M446.746,119.571v2.958h-.525v-2.958h-.592v-.444h.592v-.5a1.1,1.1,0,0,1,1.165-1.183,1.221,1.221,0,0,1,.552.124l-.13.428a1.12,1.12,0,0,0-.394-.075.641.641,0,0,0-.676.7v.509h1.234v.44Z" transform="translate(-357.751 -94.28)"/><path class="a" d="M470.414,122.766a1.662,1.662,0,0,1-1.71,1.775,1.637,1.637,0,0,1-1.684-1.489l.517-.118a1.152,1.152,0,0,0,1.167,1.11,1.169,1.169,0,0,0,1.165-1.276V119.83h.544Z" transform="translate(-374.923 -96.199)"/><path class="a" d="M491.933,129.079h-.525v-.538a1.651,1.651,0,0,1-1.351.627,1.789,1.789,0,0,1,0-3.571,1.651,1.651,0,0,1,1.351.627v-.548h.525Zm-.525-1.7a1.282,1.282,0,0,0-1.268-1.323,1.321,1.321,0,0,0,0,2.641,1.28,1.28,0,0,0,1.268-1.317Z" transform="translate(-392.064 -100.828)"/><path class="a" d="M517.971,126.892v2.2h-.523v-2.11a.842.842,0,0,0-.876-.891c-.629,0-1.043.463-1.043,1.262v1.739h-.523v-2.11a.84.84,0,0,0-.87-.891c-.627,0-1.035.463-1.035,1.262v1.739h-.523v-3.4h.523v.517a1.309,1.309,0,0,1,1.16-.592,1.221,1.221,0,0,1,1.158.688,1.455,1.455,0,0,1,1.284-.688,1.225,1.225,0,0,1,1.268,1.278Z" transform="translate(-411.499 -100.841)"/><path class="a" d="M547.553,127.489h-2.919a1.242,1.242,0,0,0,1.215,1.221,1.169,1.169,0,0,0,1.158-.732l.469.11a1.631,1.631,0,0,1-1.627,1.083,1.787,1.787,0,0,1,.036-3.571,1.66,1.66,0,0,1,1.67,1.7Zm-2.9-.394h2.366a1.122,1.122,0,0,0-1.138-1.035,1.219,1.219,0,0,0-1.229,1.037Z" transform="translate(-436.833 -100.832)"/><path class="a" d="M567.933,127.489h-2.917a1.24,1.24,0,0,0,1.213,1.221,1.183,1.183,0,0,0,1.16-.732l.467.11a1.631,1.631,0,0,1-1.627,1.083,1.787,1.787,0,0,1,.035-3.571,1.659,1.659,0,0,1,1.668,1.7Zm-2.9-.394H567.4a1.124,1.124,0,0,0-1.138-1.035,1.221,1.221,0,0,0-1.229,1.037Z" transform="translate(-453.194 -100.832)"/><path class="a" d="M586.41,123.046V118.08h.525v4.966Z" transform="translate(-470.769 -94.794)"/><path class="a" d="M229.857,33.272l-.164,2.349a6.351,6.351,0,0,0-.682-.024c-2.958,0-4.417,2.069-4.417,5.263v4.112H222.15V33.319h2.443V35.81a5.062,5.062,0,0,1,4.441-2.633,2.516,2.516,0,0,1,.822.095" transform="translate(-178.342 -26.632)"/><path class="a" d="M274.588,38.982H265.15a3.615,3.615,0,0,0,3.524,3.455,3.487,3.487,0,0,0,3.431-2.021l2.185.469a5.664,5.664,0,0,1-5.616,3.666,5.922,5.922,0,0,1-5.944-6.133,5.966,5.966,0,0,1,6.038-6.178,5.839,5.839,0,0,1,5.827,5.9Zm-9.375-1.737h6.861A3.252,3.252,0,0,0,268.76,34.4a3.559,3.559,0,0,0-3.55,2.844" transform="translate(-210.919 -25.882)"/><path class="a" d="M342.257,24.136H339.79V22.821a5.814,5.814,0,0,1-4.23,1.645,5.9,5.9,0,0,1-5.78-6.157,5.9,5.9,0,0,1,5.78-6.155,5.735,5.735,0,0,1,4.23,1.668V7.22h2.467Zm-2.467-5.827a3.868,3.868,0,0,0-3.83-3.993,3.736,3.736,0,0,0-3.784,3.993,3.737,3.737,0,0,0,3.784,4,3.854,3.854,0,0,0,3.83-4" transform="translate(-264.747 -5.796)"/><path class="a" d="M403.293,40.556c.164,1.38,1.38,1.972,2.913,1.972,1.41,0,2.3-.633,2.3-1.55,0-.706-.493-1.152-1.578-1.38l-2.534-.527c-2.021-.448-3.173-1.528-3.173-3.171,0-2.169,1.81-3.69,4.607-3.69,2.678,0,4.486,1.41,4.908,3.352l-2.325.493a2.414,2.414,0,0,0-2.654-1.9c-1.434,0-2.069.7-2.069,1.526,0,.659.377,1.081,1.41,1.315l2.773.611c1.879.394,3.031,1.5,3.031,3.155,0,2.443-2,3.759-4.91,3.759-2.609,0-4.839-1.1-5.145-3.455Z" transform="translate(-321.802 -25.858)"/><path class="a" d="M470.986,38.982h-9.444a3.612,3.612,0,0,0,3.524,3.455,3.484,3.484,0,0,0,3.429-2.021l2.185.469a5.661,5.661,0,0,1-5.614,3.666,5.922,5.922,0,0,1-5.946-6.133,5.966,5.966,0,0,1,6.038-6.178,5.833,5.833,0,0,1,5.827,5.9Zm-9.375-1.737h6.861a3.252,3.252,0,0,0-3.313-2.844,3.559,3.559,0,0,0-3.55,2.844" transform="translate(-368.581 -25.882)"/><path class="a" d="M538.431,44.222h-2.443V42.883a5.694,5.694,0,0,1-4.23,1.668,5.883,5.883,0,0,1-5.778-6.157,5.881,5.881,0,0,1,5.778-6.155,5.694,5.694,0,0,1,4.23,1.668V32.569h2.443Zm-2.443-5.827a3.881,3.881,0,0,0-3.83-3.993,3.74,3.74,0,0,0-3.806,3.993,3.742,3.742,0,0,0,3.806,4,3.867,3.867,0,0,0,3.83-4" transform="translate(-422.256 -25.882)"/></g></svg>