<svg xmlns="http://www.w3.org/2000/svg" xmlns:xlink="http://www.w3.org/1999/xlink" width="89.716" height="51.372" viewBox="0 0 89.716 51.372"><defs><style>.a,.g,.h,.j{fill-rule:evenodd;}.a{fill:url(#a);}.b{fill:url(#b);}.c{fill:url(#c);}.d{fill:url(#d);}.e{fill:url(#e);}.f{fill:url(#f);}.g{fill:url(#g);}.h{fill:url(#h);}.i{fill:url(#i);}.j{fill:url(#j);}</style><linearGradient id="a" y1="0.497" x2="1" y2="0.497" gradientUnits="objectBoundingBox"><stop offset="0" stop-color="#fff"/><stop offset="0.484" stop-color="#c5d4eb"/><stop offset="1" stop-color="#83a4d4"/></linearGradient><linearGradient id="b" x1="0.978" y1="1.535" x2="-2.777" y2="-6.161" gradientUnits="objectBoundingBox"><stop offset="0" stop-color="#6859ea"/><stop offset="1" stop-color="#6acbe0"/></linearGradient><linearGradient id="c" x1="0" y1="0.5" x2="1" y2="0.5" xlink:href="#b"/><linearGradient id="d" x1="1.372" y1="2.298" x2="-1.153" y2="-2.706" xlink:href="#b"/><linearGradient id="e" x1="1.16" y1="0.528" x2="-0.506" y2="0.476" xlink:href="#a"/><linearGradient id="f" y1="0.5" x2="1" y2="0.5" gradientUnits="objectBoundingBox"><stop offset="0" stop-color="#83a4d4"/><stop offset="0.516" stop-color="#c5d4eb"/><stop offset="1" stop-color="#fff"/></linearGradient><linearGradient id="g" x1="0" y1="0.5" x2="1" y2="0.5" xlink:href="#a"/><linearGradient id="h" x1="0" y1="0.497" x2="1" y2="0.497" xlink:href="#f"/><linearGradient id="i" x1="0.33" y1="0.019" x2="0.792" y2="1.797" xlink:href="#a"/><linearGradient id="j" x1="1.246" y1="2.371" x2="0.017" y2="-0.438" xlink:href="#b"/></defs><g transform="translate(0)"><path class="a" d="M701.63,285.742a1.4,1.4,0,0,1-.146.094q-.142.09-.258.18c-.017.017-.043.026-.06.043l-.18.12c-.026.017-.043.026-.069.043a.044.044,0,0,1-.034.017,2.187,2.187,0,0,1-.5.232.486.486,0,0,0-.1.034c-.034.009-.06.017-.1.026h-.009l-.155.026h-.026c-.043.009-.094.009-.137.017h-.429a1.286,1.286,0,0,1-.189-.017H699.2c-.06-.009-.129-.017-.18-.026l-.146-.026a1.15,1.15,0,0,1-.163-.043.559.559,0,0,1-.112-.034c-.086-.026-.172-.052-.258-.086l-.129-.052c-.009-.009-.026-.009-.034-.017-.043-.017-.086-.034-.12-.052s-.086-.043-.129-.06a27.777,27.777,0,0,0-13.495-3.926c-.378,0-.756,0-1.108.026-.2.009-.4.026-.584.043h-.009a17.6,17.6,0,0,0-1.907.283c-.189.034-.369.077-.558.12-.223.052-.447.1-.661.163-.2.052-.4.112-.593.172a25.367,25.367,0,0,0-3.771,1.495c-.163.077-.318.155-.472.241a29.081,29.081,0,0,0-3.694,2.285c-.077.052-.146.1-.215.155-.429.318-.661.515-.661.515.034-.112.069-.223.112-.326s.069-.18.112-.275a6.511,6.511,0,0,1,.318-.653c.034-.069.077-.146.12-.215s.094-.155.137-.232c.026-.043.06-.095.086-.137s.077-.112.112-.163a.087.087,0,0,1,.034-.043c.052-.077.112-.155.172-.232.009-.009.009-.017.017-.026.06-.086.129-.172.2-.258s.137-.18.215-.266l.18-.206c.094-.112.2-.215.3-.326.077-.077.146-.155.223-.232s.163-.163.249-.241.172-.163.258-.241.18-.155.266-.232c.077-.06.146-.129.223-.189.4-.335.807-.644,1.237-.953.086-.06.172-.12.249-.172.1-.069.2-.137.3-.206.3-.2.61-.4.911-.576l.309-.18.309-.18c.1-.06.206-.12.309-.172.309-.172.61-.335.911-.49.026-.017.052-.026.077-.043a38.388,38.388,0,0,1,5.36-2.242c2.8-1.108,7.92,1.778,11.751,4.922,1.2.988,3.067,2.165,4.51,1.709h.009a2.146,2.146,0,0,0,.249-.094,2.03,2.03,0,0,0,.6-.438,2.133,2.133,0,0,0,.318-.4,1.481,1.481,0,0,0,.094-.155.065.065,0,0,1-.017.043c-.017.077-.034.155-.051.223a1.044,1.044,0,0,0-.017.163v.034a2.065,2.065,0,0,0,0,.378.653.653,0,0,0,.026.18v.017a1.262,1.262,0,0,0,.043.172v.009a.76.76,0,0,0,.043.129.19.19,0,0,0,.043.095,2.076,2.076,0,0,0,.155.309,1.12,1.12,0,0,0,.086.129.149.149,0,0,0,.034.043.927.927,0,0,0,.077.094c.009.017.026.026.034.043A.387.387,0,0,1,701.63,285.742Z" transform="translate(-614.161 -257.24)"/><path class="b" d="M1008.842,324.886s.215,1.306-2.233,2.7l-2.508-1.014,2.044-3.17,1.941.4Z" transform="translate(-919.38 -298.936)"/><path class="c" d="M99.086,84.636a1.383,1.383,0,0,1-.593,1.16,1.405,1.405,0,0,1-1.623-.266,4.315,4.315,0,0,0,.481-.326,3.311,3.311,0,0,0,.567-.618,1.118,1.118,0,0,0,.163-.335,1.092,1.092,0,0,1-.266.241,3.2,3.2,0,0,1-.687.335,2.572,2.572,0,0,1-.7.137.42.42,0,0,1-.112-.009.546.546,0,0,1-.06-.017c-.06-.009-.1-.017-.1-.017v.052q-.245-.206-.49-.438a5.689,5.689,0,0,0,.722-.412,3.46,3.46,0,0,0,.747-.687,1.375,1.375,0,0,0,.223-.4,1.454,1.454,0,0,1-.318.3,3.27,3.27,0,0,1-.85.4,4.635,4.635,0,0,1-.9.18c-.112.009-.18.009-.249.009-.258-.275-.515-.558-.747-.859a4.535,4.535,0,0,0,1-.533,2.827,2.827,0,0,0,.816-.816.989.989,0,0,0,.129-.352c.009-.086.009-.137.009-.137s-.017.043-.043.129a1.14,1.14,0,0,1-.2.283,2.7,2.7,0,0,1-.911.515,3.924,3.924,0,0,1-1.005.215c-.069,0-.137.009-.18.009h-.129a13.653,13.653,0,0,1-1.185-2.1,4.677,4.677,0,0,1,.094-1.469c.026-.137.069-.266.1-.4a3.868,3.868,0,0,1,.137-.378,3.191,3.191,0,0,1,.163-.344,2.5,2.5,0,0,1,.172-.3,3.286,3.286,0,0,1,.292-.429c.069-.086.112-.146.12-.155-.009.009-.06.052-.146.129a4.759,4.759,0,0,0-.378.369c-.077.086-.155.172-.232.275a3.154,3.154,0,0,0-.232.326c-.069.12-.155.241-.223.369s-.137.266-.2.4a5.293,5.293,0,0,0-.412,1.6A13.719,13.719,0,0,1,79.827,75.7a2.058,2.058,0,0,1,.112-.18,4.808,4.808,0,0,1,.481-.644,8.958,8.958,0,0,1,1.546-1.392c.618-.464,1.331-.919,2.019-1.435a9.169,9.169,0,0,0,.971-.85,8.036,8.036,0,0,0,.8-.945,9.342,9.342,0,0,0,1.057-1.907,8.558,8.558,0,0,0,.438-1.469c.06-.318.086-.515.094-.567-.009.043-.052.241-.137.55a7.822,7.822,0,0,1-.533,1.417,8.39,8.39,0,0,1-1.16,1.787,7.757,7.757,0,0,1-.833.85,9.374,9.374,0,0,1-.971.747c-.687.455-1.426.868-2.1,1.306a14.821,14.821,0,0,0-1.383,1.039c-.249.2-1.005.971-1.074,1.048a11.611,11.611,0,0,0-2.629,7.611,3.678,3.678,0,0,0,.687,2.268c-.206.052-.429.112-.644.172a9.461,9.461,0,0,0-1.263.464,4.5,4.5,0,0,0-.533.292c.026-.009.249-.086.576-.163a8.59,8.59,0,0,1,1.3-.163,9.822,9.822,0,0,1,1.666.043c.533.052,1.065.189,1.6.241.773.086,1.709.206,2.1.979a1.659,1.659,0,0,1-.429,1.95,2.731,2.731,0,0,1-.8.507,7.432,7.432,0,0,0-.163-.936,2.727,2.727,0,0,0-.094-.326,1.064,1.064,0,0,0-.18-.283,1.3,1.3,0,0,0-.429-.369.868.868,0,0,0-.369-.12c-.086-.009-.137-.009-.137-.009a.867.867,0,0,1,.4.266,1.159,1.159,0,0,1,.232.4,1.286,1.286,0,0,1,.052.249,2.447,2.447,0,0,1,.017.266,9.706,9.706,0,0,1-.077,1.091,8.289,8.289,0,0,1-.928.112v-.06a3.135,3.135,0,0,0-.326-1.022,2.247,2.247,0,0,0-.644-.807,1,1,0,0,0-.3-.155l-.12-.026.1.06a1.079,1.079,0,0,1,.215.223,2.119,2.119,0,0,1,.318.85,2.48,2.48,0,0,1,0,.876l-.026.1c-2.611.069-5.5,0-7.362-1.821a8.731,8.731,0,0,1-1.538-2.268,28.863,28.863,0,0,1-2.8-17.309c.206-1.039.507-2.44.85-3.84a16.043,16.043,0,0,1,1.323-3.3,10.551,10.551,0,0,1,.807-1.323c.189-.283.464-.679.464-.679a2.624,2.624,0,0,0-.747.576,6.3,6.3,0,0,0-1.039,1.4,18.406,18.406,0,0,0-1.417,3.256c-.747,2.268-1.185,4.518-1.366,5.18a9.9,9.9,0,0,1-3.152,2.259,24.111,24.111,0,0,1-10.823,1.538c-.919-.043-1.838-.12-2.7-.206s-1.666-.189-2.345-.3c-.687-.094-1.254-.206-1.649-.275-.352-.06-.567-.1-.618-.112.052.009.266.06.61.146.4.094.953.241,1.641.369.679.146,1.477.292,2.336.438s1.778.266,2.706.361a50.663,50.663,0,0,0,5.111.292c.283,0,.533,0,.782-.009a27.338,27.338,0,0,1-.447,9.526c-.447.112-.971.249-1.486.4a15.366,15.366,0,0,0-1.83.636,4.438,4.438,0,0,0-.567.309c-.086.077-.146.129-.172.146l.189-.12a3.393,3.393,0,0,1,.584-.206,14.3,14.3,0,0,1,1.873-.335c.928-.12,1.847-.189,2.362-.223a4.855,4.855,0,0,1,1.941.739,3.231,3.231,0,0,1,.266.215,1.546,1.546,0,0,1,.206,2.1,2.829,2.829,0,0,0-.618-.928,3.351,3.351,0,0,0-.515-.421,4.387,4.387,0,0,0-.49-.283,2.589,2.589,0,0,0-.5-.206,3.484,3.484,0,0,1,.421.326,3.938,3.938,0,0,1,.387.378,2.965,2.965,0,0,1,.352.49,2.288,2.288,0,0,1,.223.524,1.687,1.687,0,0,1,.077.472v.172a1.8,1.8,0,0,1-.447.12c-.155.017-.309.026-.472.043a1.094,1.094,0,0,0-.009-.163,1.592,1.592,0,0,0-.232-.636,2.318,2.318,0,0,0-.215-.292,3.41,3.41,0,0,0-.249-.249,6.828,6.828,0,0,0-1.486-.919c.026.026.189.146.4.352a5.934,5.934,0,0,1,.764.859,1.876,1.876,0,0,1,.146.249,1.241,1.241,0,0,1,.094.249,1.016,1.016,0,0,1,.034.412.632.632,0,0,1-.069.206,79.066,79.066,0,0,1-8.315.344,2.37,2.37,0,0,1-.816-.1c-.911-.344-1.082-1.529-1.185-2.5A16.536,16.536,0,0,0,41.74,74.895c.12-.155.249-.318.387-.5a24.3,24.3,0,0,0,2.216-3.548,22.238,22.238,0,0,0,.928-2.027c.137-.326.249-.653.361-.953s.206-.593.292-.868c.172-.541.292-1,.361-1.314.06-.249.1-.412.12-.472-.017.06-.077.223-.155.464-.094.309-.249.756-.455,1.28-.094.266-.215.541-.352.842s-.266.61-.421.919c-.309.627-.661,1.288-1.057,1.924a23.4,23.4,0,0,1-2.414,3.29,9.6,9.6,0,0,1-.953.919c-4.484,3.719-9.114,7.516-13.606,11.244a.564.564,0,0,0-.155.2,9.322,9.322,0,0,0-.876-.344,6.121,6.121,0,0,0-1.392-.292,4.1,4.1,0,0,0-.464,0c-.112.009-.172.009-.172.009l.172.026a2.616,2.616,0,0,1,.447.1,5.6,5.6,0,0,1,1.237.55,7.8,7.8,0,0,1,1.1.782c.18.146.3.258.378.326a1.22,1.22,0,0,1,.232.765,1.81,1.81,0,0,1-.928,1.366,3.57,3.57,0,0,0-.387-1.151,3.29,3.29,0,0,0-.79-.962,2.737,2.737,0,0,0-.447-.309,3.3,3.3,0,0,1,.352.4A3.018,3.018,0,0,1,25.78,88.6a2.834,2.834,0,0,1,.069,1.082,1.035,1.035,0,0,1-.034.2,5.264,5.264,0,0,1-1.684.043,3.944,3.944,0,0,0,.034-.644,2.875,2.875,0,0,0-.094-.679,2.039,2.039,0,0,0-.215-.55,1.568,1.568,0,0,0-.335-.447,1.813,1.813,0,0,1,.206.5,2.019,2.019,0,0,1,.06.533,2.869,2.869,0,0,1-.069.6,4.225,4.225,0,0,1-.2.61l-2.457-.309a2.886,2.886,0,0,1-1.641-.567,2.707,2.707,0,0,1-.67-1.4,33.535,33.535,0,0,1-.911-5.6,2.754,2.754,0,0,1,.129-1.349,3.437,3.437,0,0,1,1.392-1.246c2.74-1.77,4.329-4.9,5.205-8.04s1.177-6.425,2.019-9.578a29.511,29.511,0,0,1,2.062-5.463.008.008,0,0,1,.009-.009c.086-.163.163-.326.249-.49.017-.026.026-.052.043-.077.344-.661.713-1.314,1.108-1.941.009-.009.009-.026.017-.034a28.141,28.141,0,0,1,6.545-7.31A34.944,34.944,0,0,1,53.534,39.2c5.257-.7,10.651-.215,16.063.3h.009c.7.069,1.383.137,2.079.2a16.982,16.982,0,0,0,5.025-.043c1.288-.266,2.491-1.039,3.814-1.057a16.461,16.461,0,0,1,6.812,1.623s-10.437.034-13.28,10.763a7.6,7.6,0,0,1,5.274-2.792s-4.982,3.513-5.987,8.7a8.922,8.922,0,0,1,4.733-2.577,31.49,31.49,0,0,0-3.608,5.016c-3.006,6.382-.618,9.724-.618,9.724a25.661,25.661,0,0,1,3.668-2.482,22.663,22.663,0,0,1,8.848-2.955h.009c.4-.034.816-.052,1.254-.06h.438c.146,0,.3,0,.447.009,1.125.928,2.44,4.991,2.7,5.472A13.808,13.808,0,0,0,94.026,72.1a9.658,9.658,0,0,1,2.989,4.888,32.784,32.784,0,0,0,.481,3.316C97.943,81.8,99.12,83.038,99.086,84.636Z" transform="translate(-17.819 -38.594)"/><path class="d" d="M954.462,228.369a2.634,2.634,0,0,0-2.611,1.2c-.859,1.048-2.027.241-2.062-1.306-.06-2.9,2.594-5.214,4.948-4.535C957.529,224.521,957.666,228.266,954.462,228.369Z" transform="translate(-869.733 -207.718)"/><path class="e" d="M690.4,76.6h0a3.04,3.04,0,0,1-1.263.292,3.146,3.146,0,0,0-1.8.4h0a4.346,4.346,0,0,0-.8.8,1.289,1.289,0,0,1-.515.4h0c-.747.309-1.52-.464-1.546-1.718a4.76,4.76,0,0,1,2.19-4.08l.009-.009a3.389,3.389,0,0,1,2.74-.455C691.765,72.915,692.238,75.69,690.4,76.6Zm-.137,8.951.155-.026h.009l.1-.026a.483.483,0,0,0,.1-.034,1.758,1.758,0,0,0,.5-.232.045.045,0,0,0,.034-.017c.026-.017.043-.026.069-.043l.18-.12a.26.26,0,0,0,.06-.043l.112-.077.155-.1a.857.857,0,0,1,.146-.094h0a.909.909,0,0,1-.129-.129.19.19,0,0,0-.034-.043.008.008,0,0,1-.009-.009.6.6,0,0,1-.069-.086.152.152,0,0,0-.034-.043,1.118,1.118,0,0,1-.086-.129c-.026-.043-.052-.086-.077-.137a.186.186,0,0,0-.026-.043c-.017-.043-.043-.086-.06-.129s-.026-.06-.043-.094a.765.765,0,0,1-.043-.129v-.009c-.017-.052-.026-.112-.043-.172v-.017l-.026-.18c0-.06-.009-.129-.009-.189v-.223a1.066,1.066,0,0,1,.017-.163c.009-.069.034-.137.043-.215v-.017a.066.066,0,0,1,.017-.043l.052-.155a.959.959,0,0,1,.06-.137,1.4,1.4,0,0,1,.086-.155,1.053,1.053,0,0,1,.1-.163c.223-.309.421-.455.619-.455a.646.646,0,0,1,.438.283,2.969,2.969,0,0,0,.833.687.528.528,0,0,1,.052.034,1.329,1.329,0,0,0,.292.077h.017a.561.561,0,0,0,.172-.06.478.478,0,0,0,.086-.129,1.011,1.011,0,0,0,.026-.344h0a.954.954,0,0,0-.017-.146l-.936-3.78a1.35,1.35,0,0,1-.034-.18v-.009a1.037,1.037,0,0,1-.009-.163.768.768,0,0,1,.017-.2,1.756,1.756,0,0,1,.043-.206,12.245,12.245,0,0,0-3.118-11.124.855.855,0,0,1-.094.086,2.014,2.014,0,0,1-.232.172c-.009.009-.017.009-.034.017a.065.065,0,0,1-.034.017c-.008.009-.017.009-.026.017s-.026.009-.034.017h-.009a.272.272,0,0,1-.077.026.757.757,0,0,1-.129.043h0a.146.146,0,0,1-.06.009c-.017,0-.034.009-.051.009s-.034.009-.052.009a.746.746,0,0,1-.2-.009.305.305,0,0,1-.086-.017.483.483,0,0,1-.1-.034.349.349,0,0,1-.077-.043.008.008,0,0,1-.009-.009c-.026-.017-.052-.026-.077-.043-.009-.009-.017-.009-.026-.017a.375.375,0,0,1-.06-.052l-.026-.026c-.009-.009-.009-.017-.017-.017s-.017-.017-.017-.026a.178.178,0,0,1-.034-.052v-.009l-.009-.009a.008.008,0,0,0-.009-.009c-.009-.017-.017-.026-.026-.043h0a.369.369,0,0,1-.034-.06.064.064,0,0,0-.017-.034V66.12h0a1.121,1.121,0,0,1-.112-.627c.576-3.934-3.17-3.591-4.81.928a.027.027,0,0,1-.009.017c-.026.06-.052.12-.086.2-.318.661-1.005,1.838-1.675,1.924H681.7a.654.654,0,0,1-.309-.052c-.558-.258-.593-.885-.421-1.512v-.009a.75.75,0,0,1,.043-.129c.026-.086.06-.172.094-.258a9.808,9.808,0,0,1,2.285-3.539,22.659,22.659,0,0,0-3.23-1.873,2.648,2.648,0,0,1-.378-.206c-.077-.043-.155-.086-.223-.12-.172-.094-.335-.18-.481-.258-.052-.026-.1-.052-.146-.077a.066.066,0,0,1-.034-.017c-.215-.112-.464-.223-.773-.361h-.009c-.009,0-.017-.009-.026-.009l-2.053-1.1-.009-.009L673.915,57.9s-10.437.034-13.28,10.763a7.6,7.6,0,0,1,5.274-2.792s-4.982,3.513-5.987,8.7A8.846,8.846,0,0,1,664.655,72a31.489,31.489,0,0,0-3.608,5.016c-3.006,6.382-.618,9.724-.618,9.724s.232-.2.661-.515c.069-.052.138-.1.215-.155A29.088,29.088,0,0,1,665,83.79c.155-.086.309-.163.473-.241a23.3,23.3,0,0,1,3.771-1.495c.2-.06.4-.12.593-.172.223-.06.438-.112.661-.163.18-.043.369-.086.558-.12a16.978,16.978,0,0,1,1.907-.283h.009c.189-.017.387-.034.584-.043.352-.017.73-.026,1.108-.026a27.753,27.753,0,0,1,13.495,3.926c.043.017.086.043.129.06s.077.034.12.052c.008.009.026.009.034.017l.129.052c.086.034.172.06.258.086.034.009.077.026.112.034.052.017.112.026.163.043s.094.017.146.026l.18.026h.034c.026,0,.043.009.069.009a.652.652,0,0,0,.129.009h.43Z" transform="translate(-604.408 -56.241)"/><path class="f" d="M180.843,42.214c-1.675,1.057-4.235,3.548-4.51,9.329-.206,4.415-1.752,7-3.178,8.452a7.137,7.137,0,0,0-1.8,7.035c.069.223.112.352.112.352a3.9,3.9,0,0,1-2.139-2.165c-.241,2.775,2.568,6.554,2.568,6.554a28.672,28.672,0,0,1-12.3.833s1.005-1.435,1.512-5.171a3.874,3.874,0,0,0-3.445.429c1.263-7.362-5.9-11.21-11.82-7.181L139.5,64.806h0a22.808,22.808,0,0,1,1.177-3.462c1.5-3.359,5.154-5.532,5.7-6.013a14.385,14.385,0,0,0-6.485,3.651.008.008,0,0,1,.009-.009c.086-.163.172-.318.249-.49.017-.026.026-.052.043-.077a28.452,28.452,0,0,1,7.671-9.286,35.016,35.016,0,0,1,16.9-7.216c5.257-.7,10.651-.215,16.063.3C180.834,42.214,180.834,42.214,180.843,42.214Z" transform="translate(-129.048 -41.303)"/><path class="g" d="M184.857,42.241c-.146,0-12.18.009-20.633,3.376a11.61,11.61,0,0,0-4.793,3.2A5.032,5.032,0,0,1,160.083,47Q151.116,49.28,143.9,59.017a.008.008,0,0,1,.009-.009c.455-.85.919-1.684,1.4-2.508.009-.009.009-.026.017-.034a28.141,28.141,0,0,1,6.545-7.31,35.012,35.012,0,0,1,16.913-7.224c5.257-.7,10.651-.206,16.072.309Z" transform="translate(-133.07 -41.33)"/><path class="h" d="M701.63,295.427a1.4,1.4,0,0,1-.146.094q-.142.09-.258.18c-.017.017-.043.026-.06.043l-.18.12c-.026.017-.043.026-.069.043a.044.044,0,0,1-.034.017,2.191,2.191,0,0,1-.5.232.484.484,0,0,0-.1.034c-.034.009-.06.017-.1.026h-.009l-.155.026h-.026c-.043.009-.094.009-.137.017h-.429a1.29,1.29,0,0,1-.189-.017H699.2c-.06-.009-.129-.017-.18-.026l-.146-.026a1.146,1.146,0,0,1-.163-.043.563.563,0,0,1-.112-.034c-.086-.026-.172-.052-.258-.086l-.129-.052c-.009-.009-.026-.009-.034-.017-.043-.017-.086-.034-.12-.052s-.086-.043-.129-.06a27.777,27.777,0,0,0-13.495-3.926c-.378,0-.756,0-1.108.026-.2.009-.4.026-.584.043h-.009a17.6,17.6,0,0,0-1.907.283c-.189.034-.369.077-.558.12-.223.052-.447.1-.661.163-.2.052-.4.112-.593.172a25.367,25.367,0,0,0-3.771,1.495c-.163.077-.318.155-.472.241a29.075,29.075,0,0,0-3.694,2.285c-.077.052-.146.1-.215.155-.429.318-.661.515-.661.515.034-.112.069-.223.112-.326s.069-.18.112-.275a6.5,6.5,0,0,1,.318-.653c.034-.069.077-.146.12-.215s.094-.155.137-.232c.026-.043.06-.094.086-.137s.077-.112.112-.163a.086.086,0,0,1,.034-.043c.052-.077.112-.155.172-.232.009-.009.009-.017.017-.026.06-.086.129-.172.2-.258s.137-.18.215-.266l.18-.206c.094-.112.2-.215.3-.326.077-.077.146-.155.223-.232s.163-.163.249-.241.172-.163.258-.241.18-.155.266-.232c.077-.06.146-.129.223-.189.4-.335.807-.644,1.237-.953.086-.06.172-.12.249-.172.1-.069.2-.137.3-.206.3-.2.61-.4.911-.576l.309-.18.309-.18c.1-.06.206-.12.309-.172.309-.172.61-.335.911-.49.026-.017.052-.026.077-.043a14.447,14.447,0,0,1,14.182.6,32.67,32.67,0,0,1,2.929,2.079c1.22.971,3.067,2.156,4.51,1.709h.009a2.141,2.141,0,0,0,.249-.094,2.032,2.032,0,0,0,.6-.438,2.133,2.133,0,0,0,.318-.4,1.484,1.484,0,0,0,.094-.155.065.065,0,0,1-.017.043c-.017.077-.034.155-.051.223a1.044,1.044,0,0,0-.017.163v.034a2.065,2.065,0,0,0,0,.378.652.652,0,0,0,.026.18v.017a1.263,1.263,0,0,0,.043.172v.009a.76.76,0,0,0,.043.129.19.19,0,0,0,.043.094,2.077,2.077,0,0,0,.155.309,1.128,1.128,0,0,0,.086.129.149.149,0,0,0,.034.043.934.934,0,0,0,.077.095c.009.017.026.026.034.043A.386.386,0,0,1,701.63,295.427Z" transform="translate(-614.161 -266.925)"/><path class="i" d="M920.89,133.513l-.936-3.78a1.439,1.439,0,0,1,.017-.764,12.245,12.245,0,0,0-3.118-11.124,1.063,1.063,0,0,1-1.383.275c-.026-.026-.06-.043-.086-.069s-.034-.026-.043-.052c-.009-.009-.017-.017-.017-.026a.18.18,0,0,1-.034-.052c0-.009-.009-.009-.009-.017a.032.032,0,0,1-.009-.026c-.017-.043-.043-.086-.069-.137h0a1.12,1.12,0,0,1-.112-.627c.575-3.934-3.17-3.591-4.81.928a59.033,59.033,0,0,0-2.371,6.2h0a8.85,8.85,0,0,0-.275,1.632c-.1,1.847,1.134,2.757,2.053,1.787a24.992,24.992,0,0,1,3.35-3.522c3.531-2.482,7.49,1.666,4.974,4.1-1.443,1.392,1.469,5.317,2.276,5.858a.452.452,0,0,0,.515.043C920.9,134.046,920.941,133.857,920.89,133.513Z" transform="translate(-831.196 -107.88)"/><path class="j" d="M917.135,102.089h0a.863.863,0,0,1-.094.086,2.014,2.014,0,0,1-.232.172c-.009.009-.017.009-.034.017a.065.065,0,0,1-.034.017c-.009.009-.017.009-.026.017s-.026.009-.034.017h-.009a.271.271,0,0,1-.077.026.749.749,0,0,1-.129.043h0a.146.146,0,0,1-.06.009h-.052c-.017,0-.034.009-.052.009a.745.745,0,0,1-.2-.009.3.3,0,0,1-.086-.017.479.479,0,0,1-.1-.034.346.346,0,0,1-.077-.043.008.008,0,0,1-.009-.009c-.026-.017-.052-.026-.077-.043-.009-.009-.017-.009-.026-.017a.371.371,0,0,1-.06-.052l-.026-.026c-.009-.009-.009-.017-.017-.017s-.017-.017-.017-.026a.178.178,0,0,1-.034-.052v-.009l-.009-.009a.008.008,0,0,0-.009-.009c-.009-.017-.017-.026-.026-.043h0a.392.392,0,0,1-.034-.06.065.065,0,0,0-.017-.034v-.009h0a1.12,1.12,0,0,1-.112-.627c.576-3.934-3.17-3.591-4.81.928a.027.027,0,0,1-.008.017c-.026.06-.052.12-.086.2-.309.67-.953,1.864-1.675,1.924h-.009a.653.653,0,0,1-.309-.052c-.576-.232-.6-.876-.421-1.512v-.009a.748.748,0,0,1,.043-.129c.026-.086.06-.172.094-.258a9.808,9.808,0,0,1,2.285-3.539C910.477,98.936,916.31,93.319,917.135,102.089Z" transform="translate(-831.487 -92.133)"/></g></svg>