<svg xmlns="http://www.w3.org/2000/svg" xmlns:xlink="http://www.w3.org/1999/xlink" width="425.285" height="243.519" viewBox="0 0 425.285 243.519"><defs><style>.a,.g,.h,.j{fill-rule:evenodd;}.a{fill:url(#a);}.b{fill:url(#b);}.c{fill:url(#c);}.d{fill:url(#d);}.e{fill:url(#e);}.f{fill:url(#f);}.g{fill:url(#g);}.h{fill:url(#h);}.i{fill:url(#i);}.j{fill:url(#j);}</style><linearGradient id="a" y1="0.497" x2="1" y2="0.497" gradientUnits="objectBoundingBox"><stop offset="0" stop-color="#fff"/><stop offset="0.484" stop-color="#c5d4eb"/><stop offset="1" stop-color="#83a4d4"/></linearGradient><linearGradient id="b" x1="0.978" y1="1.535" x2="-2.777" y2="-6.161" gradientUnits="objectBoundingBox"><stop offset="0" stop-color="#6859ea"/><stop offset="1" stop-color="#6acbe0"/></linearGradient><linearGradient id="c" x1="0" y1="0.5" x2="1" y2="0.5" xlink:href="#b"/><linearGradient id="d" x1="1.372" y1="2.298" x2="-1.153" y2="-2.706" xlink:href="#b"/><linearGradient id="e" x1="1.16" y1="0.528" x2="-0.506" y2="0.476" xlink:href="#a"/><linearGradient id="f" y1="0.5" x2="1" y2="0.5" gradientUnits="objectBoundingBox"><stop offset="0" stop-color="#83a4d4"/><stop offset="0.516" stop-color="#c5d4eb"/><stop offset="1" stop-color="#fff"/></linearGradient><linearGradient id="g" x1="0" y1="0.5" x2="1" y2="0.5" xlink:href="#a"/><linearGradient id="h" x1="0" y1="0.497" x2="1" y2="0.497" xlink:href="#f"/><linearGradient id="i" x1="0.33" y1="0.019" x2="0.792" y2="1.797" xlink:href="#a"/><linearGradient id="j" x1="1.246" y1="2.371" x2="0.017" y2="-0.438" xlink:href="#b"/></defs><g transform="translate(38.181 -270.594)"><g transform="translate(-38.181 270.594)"><path class="a" d="M819.191,315.5a6.637,6.637,0,0,1-.692.448q-.672.428-1.222.855c-.081.081-.2.122-.285.2l-.855.57c-.122.081-.2.122-.326.2a.212.212,0,0,1-.163.081,10.374,10.374,0,0,1-2.362,1.1,2.294,2.294,0,0,0-.489.163c-.163.041-.285.081-.489.122h-.041l-.733.122h-.122c-.2.041-.448.041-.651.081h-2.036a6.1,6.1,0,0,1-.9-.081h-.163c-.285-.041-.611-.081-.855-.122s-.448-.081-.692-.122a5.434,5.434,0,0,1-.774-.2,2.632,2.632,0,0,1-.529-.163c-.407-.122-.814-.244-1.222-.407l-.611-.244c-.041-.041-.122-.041-.163-.081-.2-.081-.407-.163-.57-.244-.2-.081-.407-.2-.611-.285-21.866-13.071-45.85-18.446-63.97-18.609-1.792,0-3.583,0-5.253.122-.937.041-1.873.122-2.769.2h-.041a83.365,83.365,0,0,0-9.04,1.344c-.9.163-1.751.366-2.647.57-1.059.244-2.117.489-3.135.774-.937.244-1.873.529-2.81.814A120.219,120.219,0,0,0,694.1,309.8c-.774.366-1.507.733-2.24,1.14a137.858,137.858,0,0,0-17.509,10.831c-.366.244-.692.489-1.018.733-2.036,1.507-3.135,2.443-3.135,2.443.163-.529.326-1.059.529-1.547.163-.448.326-.855.529-1.3A30.95,30.95,0,0,1,672.765,319c.163-.326.366-.692.57-1.018.2-.366.448-.733.651-1.1.122-.2.285-.448.407-.651.163-.244.366-.529.529-.774a.407.407,0,0,1,.163-.2c.244-.366.529-.733.814-1.1.041-.041.041-.081.081-.122.285-.407.611-.814.937-1.222s.651-.855,1.018-1.262l.855-.977c.448-.529.937-1.018,1.425-1.547.367-.366.692-.733,1.059-1.1.407-.407.774-.774,1.181-1.14.407-.407.814-.774,1.222-1.14s.855-.733,1.262-1.1c.367-.285.692-.611,1.059-.9,1.873-1.588,3.828-3.054,5.864-4.52.407-.285.814-.57,1.181-.814.489-.326.937-.652,1.425-.977,1.425-.937,2.891-1.873,4.316-2.728l1.466-.855,1.466-.855c.489-.285.977-.57,1.466-.814,1.466-.814,2.891-1.588,4.316-2.321.122-.081.244-.122.366-.2a181.99,181.99,0,0,1,25.409-10.628c13.274-5.253,37.543,8.429,55.7,23.332,5.7,4.683,14.537,10.261,21.378,8.1h.041a10.13,10.13,0,0,0,1.181-.448,9.623,9.623,0,0,0,2.85-2.077,10.1,10.1,0,0,0,1.507-1.873,7.06,7.06,0,0,0,.448-.733.311.311,0,0,1-.081.2c-.081.366-.163.733-.244,1.059a5,5,0,0,0-.081.774v.163a9.891,9.891,0,0,0,0,1.792,3.1,3.1,0,0,0,.122.855v.081a5.954,5.954,0,0,0,.2.814v.041a3.584,3.584,0,0,0,.2.611.9.9,0,0,0,.2.448,9.844,9.844,0,0,0,.733,1.466,5.3,5.3,0,0,0,.407.611.713.713,0,0,0,.163.2,4.329,4.329,0,0,0,.367.448c.041.081.122.122.163.2A1.831,1.831,0,0,1,819.191,315.5Z" transform="translate(-404.556 -180.389)"/><path class="b" d="M1026.577,330.444s1.018,6.189-10.587,12.786l-11.89-4.8,9.691-15.025,9.2,1.873Z" transform="translate(-602.495 -207.429)"/><path class="c" d="M403.054,256.85a6.556,6.556,0,0,1-2.81,5.5c-2.687,1.71-5.416.366-7.7-1.262a20.441,20.441,0,0,0,2.28-1.547,15.7,15.7,0,0,0,2.687-2.932,5.3,5.3,0,0,0,.774-1.588,5.175,5.175,0,0,1-1.262,1.14,15.18,15.18,0,0,1-3.258,1.588,12.192,12.192,0,0,1-3.339.651,1.99,1.99,0,0,1-.529-.041,2.587,2.587,0,0,1-.285-.081c-.285-.041-.489-.081-.489-.081v.244q-1.161-.977-2.321-2.077a26.971,26.971,0,0,0,3.42-1.955,16.4,16.4,0,0,0,3.543-3.258,6.517,6.517,0,0,0,1.059-1.873,6.893,6.893,0,0,1-1.507,1.425,15.5,15.5,0,0,1-4.031,1.873,21.977,21.977,0,0,1-4.276.855c-.529.041-.855.041-1.181.041-1.222-1.3-2.443-2.647-3.543-4.072a21.5,21.5,0,0,0,4.723-2.525,13.4,13.4,0,0,0,3.868-3.868,4.69,4.69,0,0,0,.611-1.669c.041-.407.041-.651.041-.651s-.081.2-.2.611a5.406,5.406,0,0,1-.937,1.344,12.778,12.778,0,0,1-4.316,2.443,18.6,18.6,0,0,1-4.764,1.018c-.326,0-.651.041-.855.041h-.611a64.72,64.72,0,0,1-5.619-9.976,22.171,22.171,0,0,1,.448-6.963c.122-.652.326-1.262.489-1.914a18.333,18.333,0,0,1,.652-1.792,15.111,15.111,0,0,1,.774-1.629,11.863,11.863,0,0,1,.814-1.425,15.574,15.574,0,0,1,1.384-2.036c.326-.407.529-.692.57-.733-.041.041-.285.244-.692.611a22.544,22.544,0,0,0-1.792,1.751c-.366.407-.733.814-1.1,1.3a14.954,14.954,0,0,0-1.1,1.547c-.326.57-.733,1.14-1.059,1.751s-.651,1.262-.937,1.914a25.09,25.09,0,0,0-1.955,7.574A65.032,65.032,0,0,1,311.762,214.5a9.743,9.743,0,0,1,.529-.855,22.789,22.789,0,0,1,2.28-3.054A42.462,42.462,0,0,1,321.9,204c2.932-2.2,6.311-4.357,9.569-6.8a43.474,43.474,0,0,0,4.6-4.031,38.1,38.1,0,0,0,3.787-4.479,44.284,44.284,0,0,0,5.008-9.04,40.565,40.565,0,0,0,2.077-6.963c.285-1.507.407-2.443.448-2.687-.041.2-.244,1.14-.651,2.606a37.08,37.08,0,0,1-2.525,6.719,39.768,39.768,0,0,1-5.5,8.47,36.771,36.771,0,0,1-3.95,4.031,44.433,44.433,0,0,1-4.6,3.543c-3.258,2.158-6.759,4.113-9.935,6.189a70.264,70.264,0,0,0-6.556,4.927c-1.181.937-4.764,4.6-5.09,4.968a55.042,55.042,0,0,0-12.46,36.077c.122,3.828.855,7.94,3.258,10.75-.977.244-2.036.529-3.054.814a44.856,44.856,0,0,0-5.986,2.2,21.347,21.347,0,0,0-2.525,1.384c.122-.041,1.181-.407,2.728-.774a40.715,40.715,0,0,1,6.149-.774,46.567,46.567,0,0,1,7.9.2c2.525.244,5.049.9,7.574,1.14,3.665.407,8.1.977,9.976,4.642a7.863,7.863,0,0,1-2.036,9.243,12.946,12.946,0,0,1-3.787,2.4,35.226,35.226,0,0,0-.774-4.438,12.927,12.927,0,0,0-.448-1.547,5.044,5.044,0,0,0-.855-1.344,6.17,6.17,0,0,0-2.036-1.751,4.114,4.114,0,0,0-1.751-.57c-.407-.041-.652-.041-.652-.041a4.11,4.11,0,0,1,1.914,1.262,5.493,5.493,0,0,1,1.1,1.914,6.094,6.094,0,0,1,.244,1.181,11.611,11.611,0,0,1,.081,1.262,46,46,0,0,1-.366,5.171,39.293,39.293,0,0,1-4.4.529V280.1a14.86,14.86,0,0,0-1.547-4.846,10.654,10.654,0,0,0-3.054-3.828,4.738,4.738,0,0,0-1.425-.733c-.366-.081-.57-.122-.57-.122s.2.122.489.285a5.113,5.113,0,0,1,1.018,1.059,10.045,10.045,0,0,1,1.507,4.031,11.755,11.755,0,0,1,0,4.153l-.122.489c-12.379.326-26.06,0-34.9-8.632a41.389,41.389,0,0,1-7.289-10.75,136.819,136.819,0,0,1-13.274-82.049c.977-4.927,2.4-11.564,4.031-18.2,1.588-6.474,4.4-11.768,6.271-15.636a50.021,50.021,0,0,1,3.828-6.271c.9-1.344,2.2-3.217,2.2-3.217A12.439,12.439,0,0,0,262,138.561a29.855,29.855,0,0,0-4.927,6.637,87.254,87.254,0,0,0-6.719,15.433c-3.543,10.75-5.619,21.418-6.474,24.554-4.4,4.479-9.569,8.51-14.944,10.709-16.939,7-33.267,8.144-51.306,7.289-4.357-.2-8.714-.57-12.786-.977-4.072-.448-7.9-.9-11.116-1.425-3.258-.448-5.945-.977-7.818-1.3-1.669-.285-2.687-.489-2.932-.529.244.041,1.262.285,2.891.692,1.873.448,4.52,1.14,7.777,1.751,3.217.692,7,1.384,11.076,2.077,4.072.652,8.429,1.262,12.827,1.71a240.161,240.161,0,0,0,24.228,1.384c1.344,0,2.525,0,3.705-.041,2.117,14.822,1.059,30.539-2.117,45.157-2.117.529-4.6,1.181-7.044,1.914a72.838,72.838,0,0,0-8.673,3.013,21.039,21.039,0,0,0-2.687,1.466c-.407.366-.692.611-.814.692.122-.081.448-.285.9-.57a16.082,16.082,0,0,1,2.769-.977,67.805,67.805,0,0,1,8.877-1.588c4.4-.57,8.755-.9,11.2-1.059a23.016,23.016,0,0,1,9.2,3.5,15.314,15.314,0,0,1,1.262,1.018,7.329,7.329,0,0,1,.977,9.976,13.411,13.411,0,0,0-2.932-4.4,15.889,15.889,0,0,0-2.443-2,20.8,20.8,0,0,0-2.321-1.344,12.271,12.271,0,0,0-2.362-.977,16.518,16.518,0,0,1,2,1.547,18.67,18.67,0,0,1,1.832,1.792,14.058,14.058,0,0,1,1.669,2.321,10.847,10.847,0,0,1,1.059,2.484,8,8,0,0,1,.366,2.24v.814a8.51,8.51,0,0,1-2.117.57c-.733.081-1.466.122-2.24.2a5.191,5.191,0,0,0-.041-.774,7.546,7.546,0,0,0-1.1-3.013,10.987,10.987,0,0,0-1.018-1.384,16.154,16.154,0,0,0-1.181-1.181,32.369,32.369,0,0,0-7.044-4.357c.122.122.9.692,1.914,1.669a28.126,28.126,0,0,1,3.624,4.072,8.9,8.9,0,0,1,.692,1.181,5.887,5.887,0,0,1,.448,1.181,4.814,4.814,0,0,1,.163,1.954,3,3,0,0,1-.326.977,374.826,374.826,0,0,1-39.416,1.629,11.232,11.232,0,0,1-3.868-.489c-4.316-1.629-5.131-7.248-5.619-11.849a78.387,78.387,0,0,0-27.852-51.265c.57-.733,1.181-1.507,1.832-2.362A115.207,115.207,0,0,0,143.552,191.5a105.406,105.406,0,0,0,4.4-9.61c.652-1.547,1.181-3.095,1.71-4.52s.977-2.81,1.384-4.113c.814-2.565,1.384-4.723,1.71-6.23.285-1.181.489-1.954.57-2.24-.081.285-.366,1.059-.733,2.2-.448,1.466-1.181,3.583-2.158,6.067-.448,1.262-1.018,2.565-1.669,3.99-.611,1.384-1.262,2.891-2,4.357-1.466,2.972-3.135,6.108-5.008,9.121a110.9,110.9,0,0,1-11.442,15.6,45.518,45.518,0,0,1-4.52,4.357c-21.255,17.631-43.2,35.629-64.5,53.3a2.674,2.674,0,0,0-.733.937,44.179,44.179,0,0,0-4.153-1.629,29.02,29.02,0,0,0-6.6-1.384,19.428,19.428,0,0,0-2.2,0c-.529.041-.814.041-.814.041s.285.041.814.122a12.4,12.4,0,0,1,2.117.489,26.547,26.547,0,0,1,5.864,2.606,36.945,36.945,0,0,1,5.212,3.705c.855.692,1.425,1.222,1.792,1.547a5.782,5.782,0,0,1,1.1,3.624,8.582,8.582,0,0,1-4.4,6.474,16.925,16.925,0,0,0-1.832-5.456,15.6,15.6,0,0,0-3.746-4.561,12.97,12.97,0,0,0-2.117-1.466,15.626,15.626,0,0,1,1.669,1.914,14.308,14.308,0,0,1,2.28,4.886,13.435,13.435,0,0,1,.326,5.131,4.906,4.906,0,0,1-.163.937,24.953,24.953,0,0,1-7.981.2,18.7,18.7,0,0,0,.163-3.054,13.628,13.628,0,0,0-.448-3.217,9.665,9.665,0,0,0-1.018-2.606,7.435,7.435,0,0,0-1.588-2.117,8.6,8.6,0,0,1,.977,2.362,9.572,9.572,0,0,1,.285,2.525,13.6,13.6,0,0,1-.326,2.85,20.029,20.029,0,0,1-.937,2.891c-3.868-.489-7.777-.977-11.646-1.466-2.769-.366-5.7-.774-7.777-2.687-1.832-1.669-2.565-4.194-3.176-6.637a158.967,158.967,0,0,1-4.316-26.549c-.163-2.158-.285-4.4.611-6.393,1.262-2.728,4.113-4.275,6.6-5.9,12.989-8.388,20.522-23.21,24.676-38.113,4.194-14.9,5.579-30.458,9.569-45.4a139.9,139.9,0,0,1,9.773-25.9.04.04,0,0,1,.041-.041c.407-.774.774-1.547,1.181-2.321.081-.122.122-.244.2-.366,1.629-3.135,3.38-6.23,5.253-9.2.041-.041.041-.122.081-.163a133.4,133.4,0,0,1,31.028-34.652c23.536-18.4,51.021-30.417,80.176-34.285,24.92-3.3,50.492-1.018,76.145,1.425h.041c3.3.326,6.556.652,9.854.937,7.94.733,16,1.425,23.821-.2,6.108-1.262,11.809-4.927,18.079-5.008,12.5-.122,24.309,4.031,32.29,7.7,0,0-49.474.163-62.952,51.021a36.018,36.018,0,0,1,25-13.234s-23.617,16.654-28.381,41.248a42.293,42.293,0,0,1,22.436-12.216s-12.786,14.7-17.1,23.78c-14.252,30.254-2.932,46.094-2.932,46.094a121.643,121.643,0,0,1,17.387-11.768c10.75-6.067,25.572-12.5,41.941-14.007h.041c1.873-.163,3.868-.244,5.945-.285h2.077c.692,0,1.425,0,2.117.041,5.334,4.4,11.564,23.658,12.786,25.938,3.176,5.782,8.592,9.976,13.356,14.537,6.637,6.393,12.379,14.17,14.17,23.169,1.018,5.212.733,10.628,2.28,15.718C397.638,243.413,403.217,249.277,403.054,256.85Z" transform="translate(-17.819 -38.594)"/><path class="d" d="M971.944,246.165c-7.044.2-8.632,1.1-12.379,5.7-4.072,4.968-9.61,1.14-9.773-6.189-.285-13.763,12.3-24.716,23.454-21.5C986.481,227.923,987.132,245.676,971.944,246.165Z" transform="translate(-570.299 -148.274)"/><path class="e" d="M805.862,146.545h0a14.412,14.412,0,0,1-5.986,1.384c-4.316.122-6.6.529-8.551,1.873h0a20.577,20.577,0,0,0-3.787,3.787A6.112,6.112,0,0,1,785.1,155.5h0c-3.543,1.466-7.207-2.2-7.329-8.144a22.561,22.561,0,0,1,10.383-19.342l.041-.041a16.065,16.065,0,0,1,12.989-2.158C812.336,129.077,814.576,142.229,805.862,146.545Zm-.652,42.429.733-.122h.041l.489-.122a2.3,2.3,0,0,0,.489-.163,8.335,8.335,0,0,0,2.362-1.1.212.212,0,0,0,.163-.081c.122-.081.2-.122.326-.2l.855-.57a1.238,1.238,0,0,0,.285-.2l.529-.366.733-.489a4.035,4.035,0,0,1,.692-.448h0a4.32,4.32,0,0,1-.611-.611.89.89,0,0,0-.163-.2.04.04,0,0,1-.041-.041,2.854,2.854,0,0,1-.326-.407.714.714,0,0,0-.163-.2,5.307,5.307,0,0,1-.407-.611c-.122-.2-.244-.407-.367-.652a.885.885,0,0,0-.122-.2c-.081-.2-.2-.407-.285-.611-.081-.163-.122-.285-.2-.448a3.584,3.584,0,0,1-.2-.611v-.041c-.081-.244-.122-.529-.2-.814v-.081l-.122-.855c0-.285-.041-.611-.041-.9v-1.059a4.99,4.99,0,0,1,.081-.774c.041-.326.163-.652.2-1.018v-.081a.311.311,0,0,1,.081-.2l.244-.733a4.526,4.526,0,0,1,.285-.652,6.6,6.6,0,0,1,.407-.733,4.984,4.984,0,0,1,.489-.774c1.059-1.466,2-2.158,2.932-2.158a3.062,3.062,0,0,1,2.077,1.344,14.076,14.076,0,0,0,3.95,3.258,2.492,2.492,0,0,1,.244.163,6.3,6.3,0,0,0,1.384.366h.081a2.667,2.667,0,0,0,.814-.285,2.282,2.282,0,0,0,.407-.611,4.8,4.8,0,0,0,.122-1.629h0a4.543,4.543,0,0,0-.081-.692l-4.438-17.916a6.333,6.333,0,0,1-.163-.855v-.041a4.936,4.936,0,0,1-.041-.774,3.647,3.647,0,0,1,.081-.937,8.33,8.33,0,0,1,.2-.977,58.045,58.045,0,0,0-14.781-52.731,4.056,4.056,0,0,1-.448.407,9.54,9.54,0,0,1-1.1.814c-.041.041-.081.041-.163.081a.309.309,0,0,1-.163.081c-.041.041-.081.041-.122.081s-.122.041-.163.081h-.041a1.294,1.294,0,0,1-.367.122,3.582,3.582,0,0,1-.611.2h0a.693.693,0,0,1-.285.041c-.081,0-.163.041-.244.041s-.163.041-.244.041a3.535,3.535,0,0,1-.937-.041,1.447,1.447,0,0,1-.407-.081,2.3,2.3,0,0,1-.489-.163,1.652,1.652,0,0,1-.367-.2.04.04,0,0,1-.041-.041c-.122-.081-.244-.122-.367-.2-.041-.041-.081-.041-.122-.081a1.768,1.768,0,0,1-.285-.244l-.122-.122c-.041-.041-.041-.081-.081-.081s-.081-.081-.081-.122a.851.851,0,0,1-.163-.244v-.041l-.041-.041a.04.04,0,0,0-.041-.041c-.041-.081-.081-.122-.122-.2h0a1.766,1.766,0,0,1-.163-.285.308.308,0,0,0-.081-.163v-.041h0a5.312,5.312,0,0,1-.529-2.972c2.728-18.649-15.025-17.021-22.8,4.4a.126.126,0,0,1-.041.081c-.122.285-.244.57-.407.937-1.507,3.135-4.764,8.714-7.94,9.121h-.041a3.1,3.1,0,0,1-1.466-.244c-2.647-1.222-2.81-4.194-2-7.167v-.041a3.574,3.574,0,0,1,.2-.611c.122-.407.285-.814.448-1.222,4.561-11.238,10.505-16.451,10.831-16.776a107.408,107.408,0,0,0-15.31-8.877,12.585,12.585,0,0,1-1.792-.977c-.366-.2-.733-.407-1.059-.57-.814-.448-1.588-.855-2.28-1.222-.244-.122-.489-.244-.692-.366a.309.309,0,0,1-.163-.081c-1.018-.529-2.2-1.059-3.665-1.71h-.041c-.041,0-.081-.041-.122-.041l-9.732-5.212-.041-.041L727.722,57.9s-49.474.163-62.952,51.021a36.018,36.018,0,0,1,25-13.234s-23.617,16.654-28.381,41.248a41.933,41.933,0,0,1,22.436-12.175s-12.786,14.7-17.1,23.78c-14.252,30.254-2.932,46.094-2.932,46.094s1.1-.937,3.135-2.443c.326-.244.651-.489,1.018-.733a137.851,137.851,0,0,1,17.509-10.831c.733-.407,1.466-.774,2.24-1.14a110.479,110.479,0,0,1,17.876-7.085c.937-.285,1.873-.57,2.81-.814,1.059-.285,2.077-.529,3.135-.774.855-.2,1.751-.407,2.647-.57a80.477,80.477,0,0,1,9.04-1.344h.041c.9-.081,1.832-.163,2.769-.2,1.669-.081,3.461-.122,5.253-.122,18.161.163,42.1,5.538,63.97,18.609.2.081.407.2.611.285s.367.163.57.244c.041.041.122.041.163.081l.611.244c.407.163.814.285,1.222.407.163.041.367.122.529.163.244.081.529.122.774.2.2.041.448.081.692.122l.855.122h.163c.122,0,.2.041.326.041a3.083,3.083,0,0,0,.611.041H804.4Z" transform="translate(-398.231 -50.039)"/><path class="f" d="M335.481,44.67c-7.94,5.008-20.074,16.817-21.378,44.221-.977,20.93-8.307,33.186-15.066,40.068a33.83,33.83,0,0,0-8.551,33.349c.326,1.059.529,1.669.529,1.669-6.841-1.914-10.139-10.261-10.139-10.261-1.14,13.152,12.175,31.069,12.175,31.069-26.834,6.963-38.194,5.864-58.31,3.95,0,0,4.764-6.8,7.167-24.513a18.363,18.363,0,0,0-16.328,2.036c5.986-34.9-27.974-53.138-56.029-34.041L139.5,151.761h0a108.129,108.129,0,0,1,5.579-16.41c7.126-15.921,24.431-26.223,27-28.5-9.243,2.158-18.283,6.393-30.743,17.306a.04.04,0,0,1,.041-.041c.407-.774.814-1.507,1.181-2.321.081-.122.122-.244.2-.366A134.875,134.875,0,0,1,179.12,77.408c23.495-18.324,50.98-30.336,80.135-34.2,24.92-3.3,50.492-1.018,76.145,1.425C335.44,44.67,335.44,44.67,335.481,44.67Z" transform="translate(-89.952 -40.351)"/><path class="g" d="M338.049,44.687c-.692,0-57.74.041-97.807,16-9.813,3.909-17.428,8.8-22.721,15.188a23.856,23.856,0,0,1,3.095-8.632Q178.1,78.056,143.9,124.211a.04.04,0,0,1,.041-.041c2.158-4.031,4.357-7.981,6.637-11.89.041-.041.041-.122.081-.163a133.4,133.4,0,0,1,31.028-34.652c23.536-18.364,51.021-30.376,80.176-34.245,24.92-3.3,50.492-.977,76.185,1.466Z" transform="translate(-92.561 -40.368)"/><path class="h" d="M819.191,321.779a6.633,6.633,0,0,1-.692.448q-.672.428-1.222.855c-.081.081-.2.122-.285.2l-.855.57c-.122.081-.2.122-.326.2a.211.211,0,0,1-.163.081,10.375,10.375,0,0,1-2.362,1.1,2.3,2.3,0,0,0-.489.163c-.163.041-.285.081-.489.122h-.041l-.733.122h-.122c-.2.041-.448.041-.651.081h-2.036a6.1,6.1,0,0,1-.9-.081h-.163c-.285-.041-.611-.081-.855-.122s-.448-.081-.692-.122a5.422,5.422,0,0,1-.774-.2,2.634,2.634,0,0,1-.529-.163c-.407-.122-.814-.244-1.222-.407l-.611-.244c-.041-.041-.122-.041-.163-.081-.2-.081-.407-.163-.57-.244-.2-.081-.407-.2-.611-.285-21.866-13.071-45.85-18.446-63.97-18.609-1.792,0-3.583,0-5.253.122-.937.041-1.873.122-2.769.2h-.041a83.373,83.373,0,0,0-9.04,1.344c-.9.163-1.751.366-2.647.57-1.059.244-2.117.489-3.135.774-.937.244-1.873.529-2.81.814a120.212,120.212,0,0,0-17.876,7.085c-.774.366-1.507.733-2.24,1.14a137.862,137.862,0,0,0-17.509,10.831c-.366.244-.692.489-1.018.733-2.036,1.507-3.135,2.443-3.135,2.443.163-.529.326-1.059.529-1.547.163-.448.326-.855.529-1.3a30.948,30.948,0,0,1,1.507-3.095c.163-.326.366-.692.57-1.018.2-.366.448-.733.651-1.1.122-.2.285-.448.407-.652.163-.244.366-.529.529-.774a.406.406,0,0,1,.163-.2c.244-.366.529-.733.814-1.1.041-.041.041-.081.081-.122.285-.407.611-.814.937-1.222s.651-.855,1.018-1.262l.855-.977c.448-.529.937-1.018,1.425-1.547.367-.366.692-.733,1.059-1.1.407-.407.774-.774,1.181-1.14.407-.407.814-.774,1.222-1.14s.855-.733,1.262-1.1c.367-.285.692-.611,1.059-.9,1.873-1.588,3.828-3.054,5.864-4.52.407-.285.814-.57,1.181-.814.489-.326.937-.651,1.425-.977,1.425-.937,2.891-1.873,4.316-2.728l1.466-.855,1.466-.855c.489-.285.977-.57,1.466-.814,1.466-.814,2.891-1.588,4.316-2.321.122-.081.244-.122.366-.2a68.481,68.481,0,0,1,67.227,2.85,154.758,154.758,0,0,1,13.885,9.854c5.782,4.6,14.537,10.22,21.377,8.1h.041a10.144,10.144,0,0,0,1.181-.448,9.623,9.623,0,0,0,2.85-2.077,10.1,10.1,0,0,0,1.507-1.873,7.063,7.063,0,0,0,.448-.733.311.311,0,0,1-.081.2c-.081.366-.163.733-.244,1.059a5,5,0,0,0-.081.774v.163a9.891,9.891,0,0,0,0,1.792,3.1,3.1,0,0,0,.122.855v.081a5.955,5.955,0,0,0,.2.814v.041a3.583,3.583,0,0,0,.2.611.9.9,0,0,0,.2.448,9.845,9.845,0,0,0,.733,1.466,5.3,5.3,0,0,0,.407.611.714.714,0,0,0,.163.2,4.332,4.332,0,0,0,.367.448c.041.081.122.122.163.2A1.831,1.831,0,0,1,819.191,321.779Z" transform="translate(-404.556 -186.67)"/><path class="i" d="M970.488,205.036l-4.438-17.916a6.816,6.816,0,0,1,.081-3.624,58.046,58.046,0,0,0-14.781-52.731c-2.24,2.28-4.886,2.525-6.556,1.3-.122-.122-.285-.2-.407-.326-.081-.081-.163-.122-.2-.244-.041-.041-.081-.081-.081-.122a.852.852,0,0,1-.163-.244c0-.041-.041-.041-.041-.081a.15.15,0,0,1-.041-.122c-.081-.2-.2-.407-.326-.652h0A5.312,5.312,0,0,1,943,127.3c2.728-18.649-15.025-17.021-22.8,4.4-.407,1.14-9.447,21.418-11.238,29.4h0a42.046,42.046,0,0,0-1.3,7.737c-.489,8.755,5.375,13.071,9.732,8.47,4.479-4.723,9.569-12.216,15.88-16.695,16.735-11.768,35.507,7.9,23.576,19.423-6.841,6.6,6.963,25.205,10.791,27.77a2.141,2.141,0,0,0,2.443.2C970.529,207.56,970.732,206.664,970.488,205.036Z" transform="translate(-545.307 -83.527)"/><path class="j" d="M951.5,120.511h0a4.061,4.061,0,0,1-.448.407,9.541,9.541,0,0,1-1.1.814c-.041.041-.081.041-.163.081a.309.309,0,0,1-.163.081c-.041.041-.081.041-.122.081s-.122.041-.163.081H949.3a1.294,1.294,0,0,1-.366.122,3.584,3.584,0,0,1-.611.2h0a.693.693,0,0,1-.285.041h-.244c-.081,0-.163.041-.244.041a3.536,3.536,0,0,1-.937-.041,1.447,1.447,0,0,1-.407-.081,2.3,2.3,0,0,1-.489-.163,1.649,1.649,0,0,1-.367-.2.04.04,0,0,1-.041-.041c-.122-.081-.244-.122-.366-.2-.041-.041-.081-.041-.122-.081a1.772,1.772,0,0,1-.285-.244l-.122-.122c-.041-.041-.041-.081-.081-.081-.041-.041-.081-.081-.081-.122a.852.852,0,0,1-.163-.244V120.8l-.041-.041a.04.04,0,0,0-.041-.041c-.041-.081-.081-.122-.122-.2h0a1.77,1.77,0,0,1-.163-.285.309.309,0,0,0-.081-.163v-.041h0a5.312,5.312,0,0,1-.529-2.972c2.728-18.649-15.025-17.021-22.8,4.4a.126.126,0,0,1-.041.081c-.122.285-.244.57-.407.937-1.466,3.176-4.52,8.836-7.94,9.121h-.041a3.1,3.1,0,0,1-1.466-.244c-2.728-1.1-2.85-4.153-2-7.167v-.041a3.584,3.584,0,0,1,.2-.611c.122-.407.285-.814.448-1.222,4.561-11.238,10.505-16.451,10.831-16.776C919.94,105.567,947.589,78.936,951.5,120.511Z" transform="translate(-545.495 -73.314)"/></g></g></svg>