<svg width="9.221000000000002" height="16.136" xmlns="http://www.w3.org/2000/svg">

 <g>
  <title>background</title>
  <rect fill="none" id="canvas_background" height="402" width="582" y="-1" x="-1"/>
 </g>
 <g>
  <title>Layer 1</title>
  <g id="svg_1" transform="rotate(90 4.594490528106689,8.09743118286133) ">
   <path id="svg_2" d="m4.592987,9.946914l-6.084,-6.117a1.157,1.157 0 0 0 -1.644,0a1.176,1.176 0 0 0 0,1.657l6.847,6.882a1.151,1.151 0 0 0 0.88,0.337a1.151,1.151 0 0 0 0.88,-0.337l6.853,-6.882a1.176,1.176 0 0 0 0,-1.655a1.157,1.157 0 0 0 -1.644,0l-6.088,6.115z"/>
  </g>
 </g>
</svg>