<svg xmlns="http://www.w3.org/2000/svg" width="72.022" height="37.628" viewBox="0 0 72.022 37.628"><defs><style>.a{fill:#fff;fill-rule:evenodd;}</style></defs><path class="a" d="M30.477,70.642a.985.985,0,1,0,1.021.985A.974.974,0,0,0,30.477,70.642Zm0,1.687a.7.7,0,1,1,.711-.7A.7.7,0,0,1,30.477,72.329ZM40.413,67.2H35.442l.565-8.64L32.779,67.2H28.163l7.324-19.529H40.4l-.567,8.758,3.289-8.758h4.616Zm.6,0,7.324-19.529h4.616L45.628,67.2Z" transform="translate(-18.405 -47.607)"/><path class="a" d="M12.035,79.08c-6.45,7.575-12.535,17.654-7.16,22.3,5.208,4.5,11.717,1.835,16.156.059s53.5-23.08,53.5-23.08c.473-.237.385-.533-.207-.385-.239.06-53.408,14.469-53.408,14.469C14.166,94.333,6.472,90.2,12.035,79.08Z" transform="translate(-2.809 -66.223)"/><path class="a" d="M33.681,71.6a.246.246,0,0,0,.255-.279c0-.256-.167-.32-.446-.32h-.4v1.06h.267v-.451H33.4l.244.451h.308Zm-.172-.172h-.152v-.246h.129c.079,0,.169.009.169.112S33.6,71.43,33.509,71.43Zm46.4-23.918a.985.985,0,1,0,1.021.985A.974.974,0,0,0,79.908,47.512Zm0,1.687a.7.7,0,1,1,.711-.7A.7.7,0,0,1,79.908,49.2Z" transform="translate(-21.435 -47.512)"/><path class="a" d="M106.276,48.662a.246.246,0,0,0,.256-.279c0-.256-.167-.32-.446-.32h-.4v1.059h.267v-.451H106l.243.451h.308Zm-.172-.172h-.152v-.246h.129c.079,0,.169.01.169.112s-.053.134-.146.134Zm-3.044,2.432,1.24-3.255H90.217l-4.836,5.859,2.233-5.859H82.938L75.673,67.2h4.616l3.1-8.167L83.6,67.2l14.163-.031,1.348-3.756H93.73L95.5,58.674h4.438l1.366-3.639H96.865l1.521-4.113h4.674ZM88.183,65.894l-.3-10.178,6.979-7.663Z" transform="translate(-47.629 -47.607)"/></svg>