<svg xmlns="http://www.w3.org/2000/svg" width="160.531" height="55.064" viewBox="0 0 160.531 55.064"><defs><style>.a{fill:#404553;fill-rule:evenodd;}</style></defs><path class="a" d="M0,28.838C0,43.6,12.546,55.064,27.135,55.064A27.546,27.546,0,0,0,54.779,27.7,28.083,28.083,0,0,0,44.221,6.017l-4.6,7.947a18.264,18.264,0,0,1,6.416,13.853,18.876,18.876,0,0,1-37.751-.284,19.856,19.856,0,0,1,.341-3.691L0,28.836ZM35.649,1.362A20.451,20.451,0,0,0,28.384,0a22.626,22.626,0,0,0-4.427.454l-5.9,10.217A15.989,15.989,0,0,1,26,8.741a18.293,18.293,0,0,1,4.995.681l4.654-8.06Z"/><path class="a" d="M51.831,11.378a8.332,8.332,0,0,0-5.514,1.966l-.43-1.511H42.193v18.82h4.7V20.422a4.208,4.208,0,0,1,4.27-4.41c2.194,0,3.5,1.544,3.5,4.132V30.652h4.706V19.795c0-5.191-2.892-8.417-7.546-8.417M111.624,20.8c0,3.021-1.972,5.214-4.687,5.214s-4.69-2.193-4.69-5.214,1.972-5.211,4.688-5.211,4.688,2.191,4.688,5.211m-4.687-9.844A9.556,9.556,0,0,0,97.473,20.8a9.471,9.471,0,1,0,18.927,0,9.557,9.557,0,0,0-9.464-9.844M83.549,20.8c0,3.021-1.972,5.214-4.687,5.214s-4.69-2.193-4.69-5.214,1.972-5.211,4.688-5.211,4.688,2.191,4.688,5.211m-4.687-9.844A9.556,9.556,0,0,0,69.4,20.8a9.47,9.47,0,1,0,18.926,0,9.556,9.556,0,0,0-9.463-9.844m57.2.417a8.335,8.335,0,0,0-5.514,1.966l-.428-1.511h-3.7v18.82h4.706V20.422a4.208,4.208,0,0,1,4.27-4.41c2.194,0,3.5,1.544,3.5,4.132V30.652h4.706V19.795c0-5.191-2.892-8.417-7.548-8.417" transform="translate(16.926 6.782)"/></svg>