<svg xmlns="http://www.w3.org/2000/svg" width="105.877" height="15.936" viewBox="0 0 105.877 15.936"><defs><style>.a{fill:#fff;fill-rule:evenodd;}</style></defs><g transform="translate(0 0)"><g transform="translate(0 0)"><g transform="translate(0)"><path class="a" d="M65.948,28.223a5.5,5.5,0,0,1-5.576-5.677,5.577,5.577,0,1,1,11.151,0,5.632,5.632,0,0,1-1.6,4.055,5.512,5.512,0,0,1-3.974,1.622m-3.082-5.677a3.18,3.18,0,0,0,3.082,3.488c1.743,0,3.062-1.358,3.062-3.488,0-2.108-1.318-3.507-3.062-3.507a3.2,3.2,0,0,0-3.082,3.507" transform="translate(-42.997 -12.287)"/><path class="a" d="M102.467,19.394v-6.2h-1.278V11.06h1.278V8.607h2.271V11.06h1.642v2.129h-1.642V19.17c0,.487.121.588.466.588h1.927V22.09h-1.987c-1.866,0-2.676-.791-2.676-2.7" transform="translate(-72.067 -6.418)"/><g transform="translate(36.382)"><path class="a" d="M7.127,10.137c0-2.068-.588-2.858-1.946-2.858-1.561,0-2.331.892-2.331,2.94V16.3H.415V.629H2.849V6.062a3.89,3.89,0,0,1,2.635-.973c2.494,0,4.075,1.824,4.075,4.886V16.3H7.127Z" transform="translate(-0.415 -0.629)"/></g><path class="a" d="M170.189,26.014a4.337,4.337,0,0,0,3.406-1.784l1.765,1.439a6.421,6.421,0,0,1-5.211,2.555,5.508,5.508,0,0,1-5.736-5.616,5.392,5.392,0,0,1,5.574-5.758c3.345,0,5.677,2.453,5.677,6.143v.446h-8.818a3.134,3.134,0,0,0,3.344,2.575m-3.324-4.623h6.122a2.981,2.981,0,0,0-3.021-2.352,3.081,3.081,0,0,0-3.1,2.352" transform="translate(-117.095 -12.288)"/><path class="a" d="M211.356,22.118V28.16h-2.271V17.313h2.189V18.1a2.9,2.9,0,0,1,2.251-.974,3.377,3.377,0,0,1,.872.1v2.433a5.651,5.651,0,0,0-1.116-.182c-1.256,0-1.926.791-1.926,2.635" transform="translate(-148.911 -12.488)"/><g transform="translate(65.963 4.561)"><path class="a" d="M.2,6.175A5.422,5.422,0,0,1,5.733.477,5.425,5.425,0,0,1,9.687,2.059l-1.542,1.8a2.947,2.947,0,0,0-2.412-1.2c-1.763,0-3.061,1.419-3.061,3.507,0,2.108,1.3,3.467,3.061,3.467a2.865,2.865,0,0,0,2.474-1.3l1.582,1.825a5.512,5.512,0,0,1-4.056,1.683A5.416,5.416,0,0,1,.2,6.175" transform="translate(-0.198 -0.477)"/></g><path class="a" d="M272.418,26.935a4.577,4.577,0,0,1-3.426,1.318,5.458,5.458,0,0,1-5.494-5.6,5.251,5.251,0,0,1,5.494-5.6,4.959,4.959,0,0,1,3.569,1.4v-1.2h2.27V28.111h-2.413Zm-6.447-4.258a3.278,3.278,0,1,0,6.549,0,3.278,3.278,0,1,0-6.549,0Z" transform="translate(-187.663 -12.439)"/><path class="a" d="M312.1,22.118V28.16h-2.271V17.313h2.19V18.1a2.9,2.9,0,0,1,2.251-.974,3.361,3.361,0,0,1,.871.1v2.433a5.642,5.642,0,0,0-1.114-.182c-1.257,0-1.926.791-1.926,2.635" transform="translate(-220.656 -12.488)"/><path class="a" d="M334.566,26.014a4.34,4.34,0,0,0,3.407-1.784l1.763,1.439a6.42,6.42,0,0,1-5.211,2.555,5.508,5.508,0,0,1-5.737-5.616,5.392,5.392,0,0,1,5.575-5.758c3.346,0,5.677,2.453,5.677,6.143v.446h-8.819a3.135,3.135,0,0,0,3.345,2.575m-3.325-4.623h6.123a2.982,2.982,0,0,0-3.021-2.352,3.08,3.08,0,0,0-3.1,2.352" transform="translate(-234.163 -12.288)"/><path class="a" d="M13.2,22.048c0-2.027-.669-2.818-1.906-2.818C9.752,19.23,9,20.082,9,22.13v5.981H6.65V22.048c0-2.007-.689-2.818-1.926-2.818-1.541,0-2.291.852-2.291,2.9v5.981H0V17.263H2.413v.77a3.931,3.931,0,0,1,2.636-.973,3.6,3.6,0,0,1,3,1.5,4.6,4.6,0,0,1,3.467-1.5c2.473,0,4.1,1.8,4.1,4.805v6.244H13.2Z" transform="translate(-0.001 -12.439)"/></g></g></g></svg>