<svg xmlns="http://www.w3.org/2000/svg" width="79.6" height="36.839" viewBox="0 0 79.6 36.839"><defs><style>.a{fill:#fff;}</style></defs><g transform="translate(0 0)"><g transform="translate(0 0)"><path class="a" d="M0,0H2.5V2.549H0Z" transform="translate(43.961 2.541) rotate(-89.849)"/><path class="a" d="M28.147,31,22,45.433l2.5.013,1.431-3.465,6.56.013,1.4,3.465,2.578.013L30.4,31.013Zm-1.3,8.742,2.4-5.73,2.384,5.744Z" transform="translate(-6.08 -8.634)"/><path class="a" d="M0,0H2.5V2.549H0Z" transform="translate(76.935 2.624) rotate(-89.849)"/><path class="a" d="M0,0H2.5V2.549H0Z" transform="translate(38.214 2.516) rotate(-89.849)"/><path class="a" d="M0,0H2.5V2.549H0Z" transform="translate(2.557 18.179) rotate(-89.849)"/><path class="a" d="M0,0H2.5V2.549H0Z" transform="translate(32.471 2.499) rotate(-89.849)"/><path class="a" d="M2.458,35.171,10.2,45.459l2.066.013L12.3,31.027H9.87l-.026,9.979L2.327,31H.039L0,45.433l2.432.013Z" transform="translate(0 -8.634)"/><path class="a" d="M0,0H2.5V2.549H0Z" transform="translate(7.481 18.189) rotate(-89.849)"/><path class="a" d="M58.723,45.473l.026-14.433-2.607-.013-4.267,6.814L47.646,31h-2.62L45,45.433l2.413.013.026-10.315L51.784,41.9h.078L56.3,35.118l-.039,10.355Z" transform="translate(-12.436 -8.634)"/><path class="a" d="M0,0H14.226V2.549H0Z" transform="translate(76.842 36.494) rotate(-89.849)"/><path class="a" d="M96.12,37.023l-6.649-.013L89.484,31H87.039L87,45.433l2.458.013.013-6.09,6.636.027-.013,6.076,2.445.013.039-14.446H96.133Z" transform="translate(-24.043 -8.634)"/><path class="a" d="M67.982,15.916l9.069.027,2.523.013.027-10.7-2.523-.013L77.051,13.4,68,13.368A6.308,6.308,0,0,0,55.607,13.3l-9.042-.027.027-8.127-2.523-.013-.027,8.127H40.8l.027-8.127-2.523-.013-.027,8.127-3.266-.013.027-8.14-2.523-.013-.027,8.14-8.631-.027.027-8.127-3.333-.013A5.538,5.538,0,0,0,15,10.565l-.013,2.6-12.455-.04V13.1a5.564,5.564,0,0,1,5.55-5.552l1.925.013.013-2.548L8.1,5A8.1,8.1,0,0,0,.013,13.087L0,15.662l17.513.054.013-5.163a2.993,2.993,0,0,1,3.014-2.964h.8l-.027,8.127,34.283.08a6.35,6.35,0,0,0,6.174,5.123A6.243,6.243,0,0,0,67.982,15.916Zm-6.187,2.508a3.829,3.829,0,1,1,3.8-3.822A3.822,3.822,0,0,1,61.795,18.424Z" transform="translate(0 -1.448)"/><path class="a" d="M73.351,37.119c-2.681-.654-3.319-1.137-3.319-2.236,0-.941.846-1.687,2.291-1.687a6.385,6.385,0,0,1,3.8,1.451l1.328-1.87A7.7,7.7,0,0,0,72.375,31c-2.785-.013-4.79,1.634-4.79,4.092-.013,2.615,1.666,3.5,4.646,4.236,2.6.614,3.163,1.15,3.163,2.183,0,1.085-.963,1.791-2.486,1.778a6.4,6.4,0,0,1-4.425-1.843L67,43.211a8.561,8.561,0,0,0,5.844,2.262c2.941.013,5.011-1.556,5.011-4.21C77.855,38.91,76.306,37.851,73.351,37.119Z" transform="translate(-18.516 -8.634)"/></g></g></svg>