<svg xmlns="http://www.w3.org/2000/svg" width="75.39" height="40.551" viewBox="0 0 75.39 40.551"><defs><style>.a{fill:#fff;}</style></defs><path class="a" d="M40.212,391.9c-3.476,0-5.312,2.051-5.312,6.064v5.575h3.134v-5.81c0-2.021.83-2.939,2.109-2.939a2.109,2.109,0,0,1,1.152.322l1.455-2.588a5.252,5.252,0,0,0-2.539-.625" transform="translate(-34.9 -363.164)"/><path class="a" d="M117.652,394.453a2.5,2.5,0,0,1,2.636-1.943,2.27,2.27,0,0,1,2.412,1.943ZM120.3,389.6a5.665,5.665,0,0,0-5.9,6.015,5.823,5.823,0,0,0,6.044,6.015,5.994,5.994,0,0,0,4.609-2.138l-2.07-1.865a3.449,3.449,0,0,1-2.539,1.094,2.666,2.666,0,0,1-2.763-1.943h8.036a8.484,8.484,0,0,0,.117-1.387,5.346,5.346,0,0,0-5.536-5.79" transform="translate(-106.637 -361.088)"/><path class="a" d="M254.812,341.143a3.55,3.55,0,0,0-2.959,1.5V335.9H248.7v17.078h3.154v-6.21c0-1.992,1.26-2.714,2.168-2.714.957,0,2.168.391,2.168,2.334v6.6h3.154v-6.6c.01-3.642-2.041-5.243-4.531-5.243" transform="translate(-227.824 -312.632)"/><path class="a" d="M390.494,350.263a3.126,3.126,0,1,1,2.763-3.105,2.961,2.961,0,0,1-2.763,3.105m2.754-7.616a4.139,4.139,0,0,0-3.252-1.5c-3.086,0-5.419,2.568-5.419,6.015a6.971,6.971,0,0,0,.332,2.148l-.01-.01a2.064,2.064,0,0,1-1.826.967c-1.279,0-2.119-.918-2.119-2.959V335.9H377.8v11.161c0,4.052,1.845,6.112,5.351,6.112a5.365,5.365,0,0,0,3.476-1.25,5.112,5.112,0,0,0,3.378,1.25,4.028,4.028,0,0,0,3.251-1.553v1.357h3.154V341.339h-3.164Z" transform="translate(-344.318 -312.632)"/><path class="a" d="M591.654,345.7l-3.154.02v11.258c0,2.812,1.728,5.048,4.833,5.048a5.66,5.66,0,0,0,3.447-.869l-1.182-2.4c-1.426.732-3.945.508-3.945-1.67V353.1h5.126v-2.91h-5.126Z" transform="translate(-534.445 -321.475)"/><path class="a" d="M398.944,97.6A20.8,20.8,0,0,0,378,118.212h3.066a17.881,17.881,0,0,1,35.757,0,17.538,17.538,0,0,1-8.837,15.164l1.474,2.646a20.551,20.551,0,0,0,10.428-17.81A20.8,20.8,0,0,0,398.944,97.6" transform="translate(-344.499 -97.6)"/></svg>