<svg xmlns="http://www.w3.org/2000/svg" width="98.734" height="12.796" viewBox="0 0 98.734 12.796"><defs><style>.a{fill:none;}.b{fill:#fff;}</style></defs><path class="a" d="M345.474,19.6c-.217-1.985-2.705-1.836-3.179-1.836h-1v4.1c.425.02.75.02,1.175.02C342.976,21.876,345.73,21.946,345.474,19.6Zm-17.891-1.9a4.321,4.321,0,0,0-4.433,4.65,4.438,4.438,0,1,0,8.866,0A4.322,4.322,0,0,0,327.583,17.7Zm-32.217.128H294.3V22.2h1.254c1.126,0,3.436-.109,3.308-2.32C298.783,17.621,295.86,17.828,295.366,17.828Zm63.111.4-1.915,5.993,3.939-.02-2-5.973" transform="translate(-265.243 -15.952)"/><path class="b" d="M48.715,5.144h-6.2V.385H40.639V12.47h1.876V6.744h6.2V12.47h1.856V.385H48.715M30.42.346c-.681-.02-2.064-.02-3.288-.02V12.46h1.9v-4.6c.474,0,1.451-.039,2.241-.059a3.775,3.775,0,0,0,3.969-3.9C35.268.148,31.111.346,30.42.346Zm-.1,5.9H29.067V1.876h1.066c.494,0,3.406-.217,3.5,2.044.118,2.222-2.182,2.33-3.308,2.33ZM12.924.326l.02,12.134h7.612V10.88H14.84V6.763h4.048c0-.346-.02-.849,0-1.511H14.84V1.945h5.717c-.02-.958,0-1.619,0-1.619ZM1.856,3.288c0-1.985,2.626-2.064,4.176-.79C6.566.968,6.605.859,6.605.859,2.083-1.313.02,1.56.02,3.4c0,4.394,6.23,3.456,5.332,6.546-.316,1.126-2.32,1.767-4.631.365A17.681,17.681,0,0,1,0,11.927c3.051,1.6,7.01.829,7.138-2.468C7.316,5.312,1.856,5.608,1.856,3.288Zm80.014.444C81.594.128,78.1.4,77.328.365c-.642-.02-2-.039-3.179-.039V12.44h1.9V7.346c.642,0,.849,0,1.817-.039l3.456,5.134h2.3L79.8,6.99A2.972,2.972,0,0,0,81.87,3.732ZM77.22,5.924c-.425,0-.75,0-1.175-.02v-4.1h1c.474,0,2.962-.148,3.179,1.836C80.488,5.993,77.733,5.924,77.22,5.924ZM94.38.346H92.188L88.219,12.48h1.876c.592-2.192.79-2.814.79-2.814l4.907-.02c.573,1.619,1,2.853,1,2.853h1.945ZM91.319,8.274l1.915-5.993h.02l2,5.973ZM62.341,0a6.176,6.176,0,0,0-6.378,6.4,6.378,6.378,0,1,0,12.756,0A6.176,6.176,0,0,0,62.341,0Zm0,11.048c-2.834,0-4.433-2.064-4.433-4.65a4.438,4.438,0,1,1,8.866,0A4.321,4.321,0,0,1,62.341,11.048Z" transform="translate(0)"/></svg>