<svg xmlns="http://www.w3.org/2000/svg" width="88.66" height="36.985" viewBox="0 0 88.66 36.985"><defs><style>.a,.b{fill:#fff;}.b{fill-rule:evenodd;}</style></defs><path class="a" d="M13.48,8.689l-6-1.358c-1.21-.272-1.6-.617-1.6-1.234,0-.469.37-.864,1.481-.864H18.369V2A1.654,1.654,0,0,0,16.715.344H7.086C2.444.344,0,3.036,0,6.492c0,3.061,1.876,4.913,5.629,5.753l6,1.333c1.21.272,1.6.617,1.6,1.234,0,.469-.37.864-1.481.864H.37v3.234a1.654,1.654,0,0,0,1.654,1.654h9.357c5.506,0,7.728-2.691,7.728-5.876,0-3.308-1.9-5.16-5.629-6M60.168.246a1.681,1.681,0,0,0-1.7,1.654v9.876A3.879,3.879,0,0,1,54.317,15.6a3.964,3.964,0,0,1-3.654-3.975V1.9a1.681,1.681,0,0,0-1.7-1.654H45.5a.024.024,0,0,0-.025.025V11.529a9.133,9.133,0,0,0,8.74,9.135,9.01,9.01,0,0,0,9.407-8.913V.246A.024.024,0,0,0,63.6.221H60.168ZM32.071,15.8A5.333,5.333,0,1,1,37.4,10.467,5.342,5.342,0,0,1,32.071,15.8m0-15.826A10.518,10.518,0,1,0,42.589,10.492,10.526,10.526,0,0,0,32.071-.026M82.216,11.85l-2-2-3.753,3.629,2.1,2.1a5.8,5.8,0,0,1-1.481.2,5.333,5.333,0,1,1,5.333-5.333,5.529,5.529,0,0,1-.2,1.407m3.926,3.9a10.5,10.5,0,1,0-3.679,3.7L83.5,20.491a1.714,1.714,0,0,0,2.42,0l2.469-2.469V18Z" transform="translate(0 0.1)"/><g transform="translate(0.025 27.751)"><path class="a" d="M4.322,117.682H3.482l-.074-.543a2.77,2.77,0,0,1-.815.494,2.277,2.277,0,0,1-.889.173,1.629,1.629,0,0,1-1.16-.42A1.433,1.433,0,0,1,.1,116.275a1.511,1.511,0,0,1,.543-1.21,2.16,2.16,0,0,1,1.432-.444,4.847,4.847,0,0,1,1.284.173V114.1a1.012,1.012,0,0,0-.247-.79,1.3,1.3,0,0,0-.864-.222,5.246,5.246,0,0,0-1.8.321v-.691a3.608,3.608,0,0,1,.914-.3,5.232,5.232,0,0,1,1.086-.1,2.112,2.112,0,0,1,1.432.4,1.532,1.532,0,0,1,.469,1.234v3.728Zm-.988-2.222a3.967,3.967,0,0,0-1.086-.123c-.765,0-1.16.3-1.16.889a.729.729,0,0,0,.222.593.822.822,0,0,0,.617.222,2.365,2.365,0,0,0,1.407-.518Zm7.036,2.222H9.359V114.2a1.119,1.119,0,0,0-.222-.79.846.846,0,0,0-.691-.247,2.938,2.938,0,0,0-1.6.518v4.024H5.828V112.5h.864l.1.568a3.321,3.321,0,0,1,2.049-.741,1.48,1.48,0,0,1,1.136.4,1.517,1.517,0,0,1,.4,1.136Zm40.367-.2a3.079,3.079,0,0,1-1.383.3,2.35,2.35,0,0,1-1.852-.691,2.9,2.9,0,0,1-.642-2,2.86,2.86,0,0,1,.667-2.025,2.455,2.455,0,0,1,1.876-.716,2.806,2.806,0,0,1,1.284.3v.741a3.78,3.78,0,0,0-1.16-.173,1.536,1.536,0,0,0-1.234.444,2.151,2.151,0,0,0-.37,1.383v.123a2.011,2.011,0,0,0,.4,1.383,1.514,1.514,0,0,0,1.21.444,4.564,4.564,0,0,0,1.21-.2Zm5.037-.4a2.624,2.624,0,0,1-3.654,0,3.408,3.408,0,0,1,0-4.049,2.624,2.624,0,0,1,3.654,0,3.408,3.408,0,0,1,0,4.049Zm-1.827-.1c.963,0,1.457-.642,1.457-1.95,0-1.284-.494-1.926-1.457-1.926s-1.457.642-1.457,1.926C52.491,116.349,52.985,116.991,53.948,116.991Zm11.431.691H64.366v-3.531a1.29,1.29,0,0,0-.2-.765.72.72,0,0,0-.617-.247,2.759,2.759,0,0,0-1.506.469v4.074H61.033v-3.531a1.29,1.29,0,0,0-.2-.765.72.72,0,0,0-.617-.247,2.875,2.875,0,0,0-1.506.444v4.1H57.7v-5.209h.864l.1.518a3.533,3.533,0,0,1,1.926-.691,1.265,1.265,0,0,1,1.284.741A3.416,3.416,0,0,1,63.9,112.3a1.4,1.4,0,0,1,1.086.4,1.613,1.613,0,0,1,.37,1.136v3.852Zm2.518,2.1H66.885v-7.333h.864l.1.543a2.532,2.532,0,0,1,1.728-.691,1.96,1.96,0,0,1,1.58.716,3.673,3.673,0,0,1-.049,4,1.911,1.911,0,0,1-1.6.765,2.257,2.257,0,0,1-1.6-.617Zm0-3.308a2.3,2.3,0,0,0,1.358.494c.938,0,1.407-.642,1.407-1.9a2.586,2.586,0,0,0-.346-1.457,1.211,1.211,0,0,0-1.062-.469,2.28,2.28,0,0,0-1.383.469v2.864Zm8.962,1.21H76.02l-.074-.543a2.77,2.77,0,0,1-.815.494,2.277,2.277,0,0,1-.889.173,1.629,1.629,0,0,1-1.16-.42,1.432,1.432,0,0,1-.444-1.111,1.511,1.511,0,0,1,.543-1.21,2.16,2.16,0,0,1,1.432-.444,4.847,4.847,0,0,1,1.284.173V114.1a1.012,1.012,0,0,0-.247-.79,1.3,1.3,0,0,0-.864-.222,5.246,5.246,0,0,0-1.8.321v-.691a3.608,3.608,0,0,1,.914-.3,5.232,5.232,0,0,1,1.086-.1,2.112,2.112,0,0,1,1.432.4,1.532,1.532,0,0,1,.469,1.234v3.728ZM75.9,115.46a3.967,3.967,0,0,0-1.086-.123c-.765,0-1.16.3-1.16.889a.729.729,0,0,0,.222.593.822.822,0,0,0,.617.222,2.365,2.365,0,0,0,1.407-.518Zm7.036,2.222H81.921V114.2a1.119,1.119,0,0,0-.222-.79.935.935,0,0,0-.691-.247,2.938,2.938,0,0,0-1.6.518v4.024H78.39V112.5h.864l.1.568a3.321,3.321,0,0,1,2.049-.741,1.48,1.48,0,0,1,1.136.4,1.517,1.517,0,0,1,.4,1.136Zm3.432.914a2.31,2.31,0,0,1-.642,1.012,1.494,1.494,0,0,1-.963.3,2.047,2.047,0,0,1-.79-.148v-.741a2.16,2.16,0,0,0,.593.074.9.9,0,0,0,.593-.2,1.627,1.627,0,0,0,.4-.667l.2-.518-2.1-5.259h1.086l1.506,4.271,1.457-4.271h1.037Z" transform="translate(-0.1 -112.3)"/><g transform="translate(13.283 0.049)"><path class="b" d="M85.859,137.527a11.633,11.633,0,0,1-6.567,2,11.946,11.946,0,0,1-8.024-3.061c-.173-.148-.025-.346.173-.247a15.915,15.915,0,0,0,14.147.864C85.883,136.984,86.155,137.305,85.859,137.527Z" transform="translate(-66.922 -130.343)"/><path class="b" d="M73.577,118.845c-.222-.3-1.506-.148-2.074-.074-.173.025-.2-.123-.049-.247a3.138,3.138,0,0,1,2.864-.272,3.151,3.151,0,0,1-1.012,2.716c-.148.123-.3.049-.222-.1C73.306,120.327,73.8,119.141,73.577,118.845Zm-2.025-5.358V112.8a.169.169,0,0,1,.173-.173h3.111a.169.169,0,0,1,.173.173v.593a1.006,1.006,0,0,1-.222.444l-1.6,2.3a3.45,3.45,0,0,1,1.778.37.374.374,0,0,1,.173.272v.741c0,.1-.123.222-.222.148a3.583,3.583,0,0,0-3.284,0c-.1.049-.222-.049-.222-.173v-.667a.744.744,0,0,1,.123-.469l1.876-2.666h-1.63c-.148-.025-.222-.074-.222-.2ZM60.2,117.833h-.938a.165.165,0,0,1-.173-.148v-4.864a.169.169,0,0,1,.173-.173h.889a.169.169,0,0,1,.173.173v.642h.025a1.228,1.228,0,0,1,1.234-.889,1.278,1.278,0,0,1,1.234.889,1.387,1.387,0,0,1,2.395-.346,2.656,2.656,0,0,1,.247,1.531v3.061a.169.169,0,0,1-.173.173h-.938a.169.169,0,0,1-.173-.173v-2.568a5.648,5.648,0,0,0-.025-.914.5.5,0,0,0-.568-.42.634.634,0,0,0-.568.4,2.886,2.886,0,0,0-.1.938v2.568a.169.169,0,0,1-.173.173H61.8a.169.169,0,0,1-.173-.173v-2.568c0-.543.1-1.333-.593-1.333s-.642.765-.642,1.333v2.568c0,.049-.1.123-.2.123Zm17.48-5.284c1.407,0,2.173,1.21,2.173,2.741,0,1.481-.839,2.666-2.173,2.666-1.383,0-2.123-1.21-2.123-2.716C75.553,113.71,76.318,112.549,77.676,112.549Zm.025.988c-.691,0-.741.938-.741,1.531s0,1.852.741,1.852.765-1.012.765-1.654a4.461,4.461,0,0,0-.148-1.284A.6.6,0,0,0,77.7,113.537Zm3.975,4.3h-.938a.169.169,0,0,1-.173-.173V112.8c0-.1.074-.148.173-.148h.889a.18.18,0,0,1,.173.148v.741h.025a1.3,1.3,0,0,1,1.284-.988,1.258,1.258,0,0,1,1.111.568,3.084,3.084,0,0,1,.247,1.506v3.061c0,.074-.1.148-.173.148h-.988a.185.185,0,0,1-.173-.148v-2.642c0-.543.074-1.309-.593-1.309a.6.6,0,0,0-.543.4,2.293,2.293,0,0,0-.148.914v2.617A.169.169,0,0,1,81.676,117.833Zm-10.937-.889a1.32,1.32,0,0,1-.346-.864V114.6c0-.617.049-1.21-.42-1.63a2.174,2.174,0,0,0-1.432-.469,1.951,1.951,0,0,0-2.123,1.457c-.025.123.074.173.148.2l.913.1c.074,0,.148-.1.173-.173a.706.706,0,0,1,.765-.568.666.666,0,0,1,.543.247,1.33,1.33,0,0,1,.123.691v.123a6.267,6.267,0,0,0-1.778.321,1.617,1.617,0,0,0-1.012,1.555,1.343,1.343,0,0,0,1.407,1.481,1.838,1.838,0,0,0,1.555-.691,2.42,2.42,0,0,0,.543.642.184.184,0,0,0,.222-.025c.2-.173.543-.469.716-.617q.111-.185,0-.3Zm-1.679-1.432a2.047,2.047,0,0,1-.173,1.012.754.754,0,0,1-.667.42c-.37,0-.568-.272-.568-.691,0-.815.716-.963,1.407-.963Zm-10.715,1.432A1.32,1.32,0,0,1,58,116.08V114.6c0-.617.049-1.21-.42-1.63a2.174,2.174,0,0,0-1.432-.469,1.951,1.951,0,0,0-2.123,1.457c-.025.123.074.173.148.2l.914.1c.074,0,.148-.1.173-.173a.706.706,0,0,1,.765-.568.666.666,0,0,1,.543.247,1.33,1.33,0,0,1,.123.691v.123a6.267,6.267,0,0,0-1.778.321A1.617,1.617,0,0,0,53.9,116.45a1.343,1.343,0,0,0,1.407,1.481,1.838,1.838,0,0,0,1.555-.691,2.42,2.42,0,0,0,.543.642.184.184,0,0,0,.222-.025c.2-.173.543-.469.716-.617q.111-.185,0-.3Zm-1.679-1.432a2.047,2.047,0,0,1-.173,1.012.754.754,0,0,1-.667.42c-.37,0-.568-.272-.568-.691,0-.815.716-.963,1.407-.963Z" transform="translate(-53.9 -112.5)"/></g></g></svg>